<?xml version="1.0" encoding="utf-8" standalone="no"?>
<!DOCTYPE svg PUBLIC "-//W3C//DTD SVG 1.1//EN"
  "http://www.w3.org/Graphics/SVG/1.1/DTD/svg11.dtd">
<!-- Created with matplotlib (https://matplotlib.org/) -->
<svg height="864pt" version="1.1" viewBox="0 0 864 864" width="864pt" xmlns="http://www.w3.org/2000/svg" xmlns:xlink="http://www.w3.org/1999/xlink">
 <defs>
  <style type="text/css">
*{stroke-linecap:butt;stroke-linejoin:round;}
  </style>
 </defs>
 <g id="figure_1">
  <g id="patch_1">
   <path d="M 0 864 
L 864 864 
L 864 0 
L 0 0 
z
" style="fill:#ffffff;"/>
  </g>
  <g id="axes_1">
   <g id="patch_2">
    <path clip-path="url(#p53bc899bdd)" d="M 442.8 635.870769 
Q 442.8 635.870769 442.8 635.870769 
L 442.8 635.870769 
Q 442.8 635.870769 442.8 635.870769 
Q 442.8 635.870769 442.8 635.870769 
L 442.8 635.870769 
Q 442.8 635.870769 442.8 635.870769 
L 442.8 635.870769 
z
" style="fill-opacity:0.4;stroke:#000000;stroke-linecap:round;stroke-opacity:0.4;"/>
   </g>
   <g id="patch_3">
    <path clip-path="url(#p53bc899bdd)" d="M 443.941962 634.229369 
Q 459.845734 612.89377 444.239788 591.558566 
L 444.11872 591.647124 
Q 444.072761 591.37256 444.022655 591.096176 
Q 444.273203 591.223144 444.522282 591.351933 
L 444.401213 591.44049 
Q 460.094348 612.894892 444.102314 634.348898 
L 443.941962 634.229369 
z
" style="fill-opacity:0.4;stroke:#000000;stroke-linecap:round;stroke-opacity:0.4;"/>
   </g>
   <g id="patch_4">
    <path clip-path="url(#p53bc899bdd)" d="M 443.955855 634.239298 
Q 478.37074 589.712363 444.261517 545.185631 
L 444.14244 545.276849 
Q 444.090184 545.003081 444.035918 544.728459 
Q 444.287991 544.850198 444.539363 544.97279 
L 444.420286 545.064008 
Q 478.623094 589.712907 444.114099 634.361604 
L 443.955855 634.239298 
z
" style="fill-opacity:0.4;stroke:#000000;stroke-linecap:round;stroke-opacity:0.4;"/>
   </g>
   <g id="patch_5">
    <path clip-path="url(#p53bc899bdd)" d="M 443.961635 634.240974 
Q 496.90655 566.532843 444.269651 498.824847 
L 444.151227 498.916911 
Q 444.096137 498.642384 444.039708 498.367298 
Q 444.293074 498.488385 444.545973 498.610031 
L 444.427549 498.702095 
Q 497.160156 566.533202 444.119186 634.364172 
L 443.961635 634.240974 
z
" style="fill-opacity:0.4;stroke:#000000;stroke-linecap:round;stroke-opacity:0.4;"/>
   </g>
   <g id="patch_6">
    <path clip-path="url(#p53bc899bdd)" d="M 443.962563 634.24429 
Q 515.447132 543.354707 444.273081 452.465226 
L 444.154983 452.557707 
Q 444.099995 452.284743 444.04402 452.011367 
Q 444.296503 452.130196 444.548644 452.249437 
L 444.430546 452.341918 
Q 515.701367 543.354975 444.119767 634.36793 
L 443.962563 634.24429 
z
" style="fill-opacity:0.4;stroke:#000000;stroke-linecap:round;stroke-opacity:0.4;"/>
   </g>
   <g id="patch_7">
    <path clip-path="url(#p53bc899bdd)" d="M 443.966453 634.242037 
Q 533.987424 520.173701 444.274151 406.105446 
L 444.156247 406.198176 
Q 444.099591 405.923938 444.042139 405.64937 
Q 444.295837 405.769058 444.549259 405.889077 
L 444.431355 405.981806 
Q 534.242036 520.173913 444.123452 634.365938 
L 443.966453 634.242037 
z
" style="fill-opacity:0.4;stroke:#000000;stroke-linecap:round;stroke-opacity:0.4;"/>
   </g>
   <g id="patch_8">
    <path clip-path="url(#p53bc899bdd)" d="M 443.965697 634.244779 
Q 552.530017 496.995916 444.275248 359.74712 
L 444.157474 359.840014 
Q 444.10099 359.566558 444.043847 359.292829 
Q 444.297064 359.411462 444.550054 359.530368 
L 444.43228 359.623262 
Q 552.784881 496.996093 444.122556 634.368856 
L 443.965697 634.244779 
z
" style="fill-opacity:0.4;stroke:#000000;stroke-linecap:round;stroke-opacity:0.4;"/>
   </g>
   <g id="patch_9">
    <path clip-path="url(#p53bc899bdd)" d="M 443.969272 634.241535 
Q 571.070825 473.815064 444.275598 313.388651 
L 444.157917 313.481662 
Q 444.102018 313.209348 444.045561 312.936802 
Q 444.29797 313.054098 444.550188 313.171625 
L 444.432507 313.264636 
Q 571.325869 473.815214 444.126035 634.365734 
L 443.969272 634.241535 
z
" style="fill-opacity:0.4;stroke:#000000;stroke-linecap:round;stroke-opacity:0.4;"/>
   </g>
   <g id="patch_10">
    <path clip-path="url(#p53bc899bdd)" d="M 443.968102 634.243963 
Q 589.61383 450.637513 444.276288 267.031112 
L 444.158676 267.124211 
Q 444.102422 266.851746 444.04568 266.579077 
Q 444.298282 266.696379 444.550717 266.813883 
L 444.433104 266.906981 
Q 589.869009 450.637644 444.124791 634.368256 
L 443.968102 634.243963 
z
" style="fill-opacity:0.4;stroke:#000000;stroke-linecap:round;stroke-opacity:0.4;"/>
   </g>
   <g id="patch_11">
    <path clip-path="url(#p53bc899bdd)" d="M 443.967314 634.245695 
Q 608.157189 427.459093 444.275893 220.672536 
L 444.158334 220.765703 
Q 444.102391 220.493861 444.046016 220.22184 
Q 444.29818 220.338404 444.550195 220.455147 
L 444.432637 220.548314 
Q 608.412474 427.45921 444.123944 634.370061 
L 443.967314 634.245695 
z
" style="fill-opacity:0.4;stroke:#000000;stroke-linecap:round;stroke-opacity:0.4;"/>
   </g>
   <g id="patch_12">
    <path clip-path="url(#p53bc899bdd)" d="M 442.8 589.513846 
Q 442.8 589.513846 442.8 589.513846 
L 442.8 589.513846 
Q 442.8 589.513846 442.8 589.513846 
Q 442.8 589.513846 442.8 589.513846 
L 442.8 589.513846 
Q 442.8 589.513846 442.8 589.513846 
L 442.8 589.513846 
z
" style="fill-opacity:0.4;stroke:#000000;stroke-linecap:round;stroke-opacity:0.4;"/>
   </g>
   <g id="patch_13">
    <path clip-path="url(#p53bc899bdd)" d="M 443.941962 587.872446 
Q 459.845734 566.536847 444.239788 545.201643 
L 444.11872 545.290201 
Q 444.072761 545.015637 444.022655 544.739253 
Q 444.273203 544.866221 444.522282 544.995009 
L 444.401213 545.083567 
Q 460.094348 566.537969 444.102314 587.991975 
L 443.941962 587.872446 
z
" style="fill-opacity:0.4;stroke:#000000;stroke-linecap:round;stroke-opacity:0.4;"/>
   </g>
   <g id="patch_14">
    <path clip-path="url(#p53bc899bdd)" d="M 443.955855 587.882375 
Q 478.37074 543.35544 444.261517 498.828708 
L 444.14244 498.919926 
Q 444.090184 498.646158 444.035918 498.371536 
Q 444.287991 498.493275 444.539363 498.615867 
L 444.420286 498.707085 
Q 478.623094 543.355984 444.114099 588.004681 
L 443.955855 587.882375 
z
" style="fill-opacity:0.4;stroke:#000000;stroke-linecap:round;stroke-opacity:0.4;"/>
   </g>
   <g id="patch_15">
    <path clip-path="url(#p53bc899bdd)" d="M 443.961635 587.884051 
Q 496.90655 520.17592 444.269651 452.467924 
L 444.151227 452.559988 
Q 444.096137 452.285461 444.039708 452.010375 
Q 444.293074 452.131462 444.545973 452.253108 
L 444.427549 452.345172 
Q 497.160156 520.176279 444.119186 588.007249 
L 443.961635 587.884051 
z
" style="fill-opacity:0.4;stroke:#000000;stroke-linecap:round;stroke-opacity:0.4;"/>
   </g>
   <g id="patch_16">
    <path clip-path="url(#p53bc899bdd)" d="M 443.962563 587.887367 
Q 515.447132 496.997783 444.273081 406.108303 
L 444.154983 406.200784 
Q 444.099995 405.92782 444.04402 405.654444 
Q 444.296503 405.773272 444.548644 405.892514 
L 444.430546 405.984995 
Q 515.701367 496.998052 444.119767 588.011007 
L 443.962563 587.887367 
z
" style="fill-opacity:0.4;stroke:#000000;stroke-linecap:round;stroke-opacity:0.4;"/>
   </g>
   <g id="patch_17">
    <path clip-path="url(#p53bc899bdd)" d="M 443.966453 587.885114 
Q 533.987424 473.816778 444.274151 359.748523 
L 444.156247 359.841252 
Q 444.099591 359.567015 444.042139 359.292447 
Q 444.295837 359.412135 444.549259 359.532154 
L 444.431355 359.624883 
Q 534.242036 473.81699 444.123452 588.009015 
L 443.966453 587.885114 
z
" style="fill-opacity:0.4;stroke:#000000;stroke-linecap:round;stroke-opacity:0.4;"/>
   </g>
   <g id="patch_18">
    <path clip-path="url(#p53bc899bdd)" d="M 443.965697 587.887856 
Q 552.530017 450.638993 444.275248 313.390197 
L 444.157474 313.483091 
Q 444.10099 313.209635 444.043847 312.935906 
Q 444.297064 313.054539 444.550054 313.173444 
L 444.43228 313.266338 
Q 552.784881 450.639169 444.122556 588.011932 
L 443.965697 587.887856 
z
" style="fill-opacity:0.4;stroke:#000000;stroke-linecap:round;stroke-opacity:0.4;"/>
   </g>
   <g id="patch_19">
    <path clip-path="url(#p53bc899bdd)" d="M 443.969272 587.884612 
Q 571.070825 427.458141 444.275598 267.031728 
L 444.157917 267.124739 
Q 444.102018 266.852425 444.045561 266.579879 
Q 444.29797 266.697174 444.550188 266.814702 
L 444.432507 266.907713 
Q 571.325869 427.458291 444.126035 588.008811 
L 443.969272 587.884612 
z
" style="fill-opacity:0.4;stroke:#000000;stroke-linecap:round;stroke-opacity:0.4;"/>
   </g>
   <g id="patch_20">
    <path clip-path="url(#p53bc899bdd)" d="M 443.968102 587.88704 
Q 589.61383 404.28059 444.276288 220.674189 
L 444.158676 220.767288 
Q 444.102422 220.494823 444.04568 220.222154 
Q 444.298282 220.339456 444.550717 220.456959 
L 444.433104 220.550058 
Q 589.869009 404.280721 444.124791 588.011333 
L 443.968102 587.88704 
z
" style="fill-opacity:0.4;stroke:#000000;stroke-linecap:round;stroke-opacity:0.4;"/>
   </g>
   <g id="patch_21">
    <path clip-path="url(#p53bc899bdd)" d="M 442.8 543.156923 
Q 442.8 543.156923 442.8 543.156923 
L 442.8 543.156923 
Q 442.8 543.156923 442.8 543.156923 
Q 442.8 543.156923 442.8 543.156923 
L 442.8 543.156923 
Q 442.8 543.156923 442.8 543.156923 
L 442.8 543.156923 
z
" style="fill-opacity:0.4;stroke:#000000;stroke-linecap:round;stroke-opacity:0.4;"/>
   </g>
   <g id="patch_22">
    <path clip-path="url(#p53bc899bdd)" d="M 443.941962 541.515523 
Q 459.845734 520.179924 444.239788 498.84472 
L 444.11872 498.933278 
Q 444.072761 498.658714 444.022655 498.38233 
Q 444.273203 498.509298 444.522282 498.638086 
L 444.401213 498.726644 
Q 460.094348 520.181046 444.102314 541.635052 
L 443.941962 541.515523 
z
" style="fill-opacity:0.4;stroke:#000000;stroke-linecap:round;stroke-opacity:0.4;"/>
   </g>
   <g id="patch_23">
    <path clip-path="url(#p53bc899bdd)" d="M 443.955855 541.525452 
Q 478.37074 496.998517 444.261517 452.471785 
L 444.14244 452.563003 
Q 444.090184 452.289235 444.035918 452.014613 
Q 444.287991 452.136352 444.539363 452.258944 
L 444.420286 452.350162 
Q 478.623094 496.999061 444.114099 541.647758 
L 443.955855 541.525452 
z
" style="fill-opacity:0.4;stroke:#000000;stroke-linecap:round;stroke-opacity:0.4;"/>
   </g>
   <g id="patch_24">
    <path clip-path="url(#p53bc899bdd)" d="M 443.961635 541.527128 
Q 496.90655 473.818997 444.269651 406.111001 
L 444.151227 406.203065 
Q 444.096137 405.928538 444.039708 405.653452 
Q 444.293074 405.774538 444.545973 405.896185 
L 444.427549 405.988249 
Q 497.160156 473.819355 444.119186 541.650326 
L 443.961635 541.527128 
z
" style="fill-opacity:0.4;stroke:#000000;stroke-linecap:round;stroke-opacity:0.4;"/>
   </g>
   <g id="patch_25">
    <path clip-path="url(#p53bc899bdd)" d="M 443.962563 541.530443 
Q 515.447132 450.64086 444.273081 359.75138 
L 444.154983 359.843861 
Q 444.099995 359.570897 444.04402 359.29752 
Q 444.296503 359.416349 444.548644 359.535591 
L 444.430546 359.628072 
Q 515.701367 450.641129 444.119767 541.654084 
L 443.962563 541.530443 
z
" style="fill-opacity:0.4;stroke:#000000;stroke-linecap:round;stroke-opacity:0.4;"/>
   </g>
   <g id="patch_26">
    <path clip-path="url(#p53bc899bdd)" d="M 443.966453 541.528191 
Q 533.987424 427.459855 444.274151 313.3916 
L 444.156247 313.484329 
Q 444.099591 313.210092 444.042139 312.935524 
Q 444.295837 313.055212 444.549259 313.175231 
L 444.431355 313.26796 
Q 534.242036 427.460067 444.123452 541.652092 
L 443.966453 541.528191 
z
" style="fill-opacity:0.4;stroke:#000000;stroke-linecap:round;stroke-opacity:0.4;"/>
   </g>
   <g id="patch_27">
    <path clip-path="url(#p53bc899bdd)" d="M 443.965697 541.530933 
Q 552.530017 404.282069 444.275248 267.033274 
L 444.157474 267.126168 
Q 444.10099 266.852712 444.043847 266.578983 
Q 444.297064 266.697616 444.550054 266.816521 
L 444.43228 266.909415 
Q 552.784881 404.282246 444.122556 541.655009 
L 443.965697 541.530933 
z
" style="fill-opacity:0.4;stroke:#000000;stroke-linecap:round;stroke-opacity:0.4;"/>
   </g>
   <g id="patch_28">
    <path clip-path="url(#p53bc899bdd)" d="M 443.969272 541.527689 
Q 571.070825 381.101218 444.275598 220.674805 
L 444.157917 220.767816 
Q 444.102018 220.495502 444.045561 220.222956 
Q 444.29797 220.340251 444.550188 220.457779 
L 444.432507 220.55079 
Q 571.325869 381.101368 444.126035 541.651888 
L 443.969272 541.527689 
z
" style="fill-opacity:0.4;stroke:#000000;stroke-linecap:round;stroke-opacity:0.4;"/>
   </g>
   <g id="patch_29">
    <path clip-path="url(#p53bc899bdd)" d="M 442.8 496.8 
Q 442.8 496.8 442.8 496.8 
L 442.8 496.8 
Q 442.8 496.8 442.8 496.8 
Q 442.8 496.8 442.8 496.8 
L 442.8 496.8 
Q 442.8 496.8 442.8 496.8 
L 442.8 496.8 
z
" style="fill-opacity:0.4;stroke:#000000;stroke-linecap:round;stroke-opacity:0.4;"/>
   </g>
   <g id="patch_30">
    <path clip-path="url(#p53bc899bdd)" d="M 443.941962 495.1586 
Q 459.845734 473.823001 444.239788 452.487797 
L 444.11872 452.576355 
Q 444.072761 452.301791 444.022655 452.025407 
Q 444.273203 452.152375 444.522282 452.281163 
L 444.401213 452.369721 
Q 460.094348 473.824123 444.102314 495.278128 
L 443.941962 495.1586 
z
" style="fill-opacity:0.4;stroke:#000000;stroke-linecap:round;stroke-opacity:0.4;"/>
   </g>
   <g id="patch_31">
    <path clip-path="url(#p53bc899bdd)" d="M 443.955855 495.168529 
Q 478.37074 450.641594 444.261517 406.114862 
L 444.14244 406.20608 
Q 444.090184 405.932312 444.035918 405.65769 
Q 444.287991 405.779429 444.539363 405.902021 
L 444.420286 405.993239 
Q 478.623094 450.642138 444.114099 495.290835 
L 443.955855 495.168529 
z
" style="fill-opacity:0.4;stroke:#000000;stroke-linecap:round;stroke-opacity:0.4;"/>
   </g>
   <g id="patch_32">
    <path clip-path="url(#p53bc899bdd)" d="M 443.961635 495.170205 
Q 496.90655 427.462074 444.269651 359.754078 
L 444.151227 359.846142 
Q 444.096137 359.571615 444.039708 359.296528 
Q 444.293074 359.417615 444.545973 359.539262 
L 444.427549 359.631326 
Q 497.160156 427.462432 444.119186 495.293403 
L 443.961635 495.170205 
z
" style="fill-opacity:0.4;stroke:#000000;stroke-linecap:round;stroke-opacity:0.4;"/>
   </g>
   <g id="patch_33">
    <path clip-path="url(#p53bc899bdd)" d="M 443.962563 495.17352 
Q 515.447132 404.283937 444.273081 313.394457 
L 444.154983 313.486938 
Q 444.099995 313.213974 444.04402 312.940597 
Q 444.296503 313.059426 444.548644 313.178668 
L 444.430546 313.271149 
Q 515.701367 404.284206 444.119767 495.297161 
L 443.962563 495.17352 
z
" style="fill-opacity:0.4;stroke:#000000;stroke-linecap:round;stroke-opacity:0.4;"/>
   </g>
   <g id="patch_34">
    <path clip-path="url(#p53bc899bdd)" d="M 443.966453 495.171268 
Q 533.987424 381.102932 444.274151 267.034677 
L 444.156247 267.127406 
Q 444.099591 266.853169 444.042139 266.578601 
Q 444.295837 266.698289 444.549259 266.818308 
L 444.431355 266.911037 
Q 534.242036 381.103144 444.123452 495.295169 
L 443.966453 495.171268 
z
" style="fill-opacity:0.4;stroke:#000000;stroke-linecap:round;stroke-opacity:0.4;"/>
   </g>
   <g id="patch_35">
    <path clip-path="url(#p53bc899bdd)" d="M 443.965697 495.17401 
Q 552.530017 357.925146 444.275248 220.676351 
L 444.157474 220.769245 
Q 444.10099 220.495789 444.043847 220.22206 
Q 444.297064 220.340693 444.550054 220.459598 
L 444.43228 220.552492 
Q 552.784881 357.925323 444.122556 495.298086 
L 443.965697 495.17401 
z
" style="fill-opacity:0.4;stroke:#000000;stroke-linecap:round;stroke-opacity:0.4;"/>
   </g>
   <g id="patch_36">
    <path clip-path="url(#p53bc899bdd)" d="M 442.8 450.443077 
Q 442.8 450.443077 442.8 450.443077 
L 442.8 450.443077 
Q 442.8 450.443077 442.8 450.443077 
Q 442.8 450.443077 442.8 450.443077 
L 442.8 450.443077 
Q 442.8 450.443077 442.8 450.443077 
L 442.8 450.443077 
z
" style="fill-opacity:0.4;stroke:#000000;stroke-linecap:round;stroke-opacity:0.4;"/>
   </g>
   <g id="patch_37">
    <path clip-path="url(#p53bc899bdd)" d="M 443.941962 448.801677 
Q 459.845734 427.466078 444.239788 406.130874 
L 444.11872 406.219431 
Q 444.072761 405.944868 444.022655 405.668484 
Q 444.273203 405.795451 444.522282 405.92424 
L 444.401213 406.012798 
Q 460.094348 427.467199 444.102314 448.921205 
L 443.941962 448.801677 
z
" style="fill-opacity:0.4;stroke:#000000;stroke-linecap:round;stroke-opacity:0.4;"/>
   </g>
   <g id="patch_38">
    <path clip-path="url(#p53bc899bdd)" d="M 443.955855 448.811605 
Q 478.37074 404.284671 444.261517 359.757939 
L 444.14244 359.849157 
Q 444.090184 359.575388 444.035918 359.300767 
Q 444.287991 359.422506 444.539363 359.545098 
L 444.420286 359.636315 
Q 478.623094 404.285215 444.114099 448.933912 
L 443.955855 448.811605 
z
" style="fill-opacity:0.4;stroke:#000000;stroke-linecap:round;stroke-opacity:0.4;"/>
   </g>
   <g id="patch_39">
    <path clip-path="url(#p53bc899bdd)" d="M 443.961635 448.813282 
Q 496.90655 381.105151 444.269651 313.397155 
L 444.151227 313.489219 
Q 444.096137 313.214692 444.039708 312.939605 
Q 444.293074 313.060692 444.545973 313.182339 
L 444.427549 313.274403 
Q 497.160156 381.105509 444.119186 448.93648 
L 443.961635 448.813282 
z
" style="fill-opacity:0.4;stroke:#000000;stroke-linecap:round;stroke-opacity:0.4;"/>
   </g>
   <g id="patch_40">
    <path clip-path="url(#p53bc899bdd)" d="M 443.962563 448.816597 
Q 515.447132 357.927014 444.273081 267.037534 
L 444.154983 267.130015 
Q 444.099995 266.857051 444.04402 266.583674 
Q 444.296503 266.702503 444.548644 266.821745 
L 444.430546 266.914226 
Q 515.701367 357.927283 444.119767 448.940238 
L 443.962563 448.816597 
z
" style="fill-opacity:0.4;stroke:#000000;stroke-linecap:round;stroke-opacity:0.4;"/>
   </g>
   <g id="patch_41">
    <path clip-path="url(#p53bc899bdd)" d="M 443.966453 448.814345 
Q 533.987424 334.746009 444.274151 220.677754 
L 444.156247 220.770483 
Q 444.099591 220.496246 444.042139 220.221678 
Q 444.295837 220.341366 444.549259 220.461385 
L 444.431355 220.554114 
Q 534.242036 334.746221 444.123452 448.938246 
L 443.966453 448.814345 
z
" style="fill-opacity:0.4;stroke:#000000;stroke-linecap:round;stroke-opacity:0.4;"/>
   </g>
   <g id="patch_42">
    <path clip-path="url(#p53bc899bdd)" d="M 442.8 404.086154 
Q 442.8 404.086154 442.8 404.086154 
L 442.8 404.086154 
Q 442.8 404.086154 442.8 404.086154 
Q 442.8 404.086154 442.8 404.086154 
L 442.8 404.086154 
Q 442.8 404.086154 442.8 404.086154 
L 442.8 404.086154 
z
" style="fill-opacity:0.4;stroke:#000000;stroke-linecap:round;stroke-opacity:0.4;"/>
   </g>
   <g id="patch_43">
    <path clip-path="url(#p53bc899bdd)" d="M 443.941962 402.444754 
Q 459.845734 381.109155 444.239788 359.773951 
L 444.11872 359.862508 
Q 444.072761 359.587945 444.022655 359.311561 
Q 444.273203 359.438528 444.522282 359.567317 
L 444.401213 359.655875 
Q 460.094348 381.110276 444.102314 402.564282 
L 443.941962 402.444754 
z
" style="fill-opacity:0.4;stroke:#000000;stroke-linecap:round;stroke-opacity:0.4;"/>
   </g>
   <g id="patch_44">
    <path clip-path="url(#p53bc899bdd)" d="M 443.955855 402.454682 
Q 478.37074 357.927748 444.261517 313.401016 
L 444.14244 313.492234 
Q 444.090184 313.218465 444.035918 312.943844 
Q 444.287991 313.065583 444.539363 313.188175 
L 444.420286 313.279392 
Q 478.623094 357.928292 444.114099 402.576989 
L 443.955855 402.454682 
z
" style="fill-opacity:0.4;stroke:#000000;stroke-linecap:round;stroke-opacity:0.4;"/>
   </g>
   <g id="patch_45">
    <path clip-path="url(#p53bc899bdd)" d="M 443.961635 402.456359 
Q 496.90655 334.748228 444.269651 267.040232 
L 444.151227 267.132296 
Q 444.096137 266.857769 444.039708 266.582682 
Q 444.293074 266.703769 444.545973 266.825416 
L 444.427549 266.91748 
Q 497.160156 334.748586 444.119186 402.579557 
L 443.961635 402.456359 
z
" style="fill-opacity:0.4;stroke:#000000;stroke-linecap:round;stroke-opacity:0.4;"/>
   </g>
   <g id="patch_46">
    <path clip-path="url(#p53bc899bdd)" d="M 443.962563 402.459674 
Q 515.447132 311.570091 444.273081 220.68061 
L 444.154983 220.773091 
Q 444.099995 220.500128 444.04402 220.226751 
Q 444.296503 220.34558 444.548644 220.464821 
L 444.430546 220.557302 
Q 515.701367 311.57036 444.119767 402.583315 
L 443.962563 402.459674 
z
" style="fill-opacity:0.4;stroke:#000000;stroke-linecap:round;stroke-opacity:0.4;"/>
   </g>
   <g id="patch_47">
    <path clip-path="url(#p53bc899bdd)" d="M 442.8 357.729231 
Q 442.8 357.729231 442.8 357.729231 
L 442.8 357.729231 
Q 442.8 357.729231 442.8 357.729231 
Q 442.8 357.729231 442.8 357.729231 
L 442.8 357.729231 
Q 442.8 357.729231 442.8 357.729231 
L 442.8 357.729231 
z
" style="fill-opacity:0.4;stroke:#000000;stroke-linecap:round;stroke-opacity:0.4;"/>
   </g>
   <g id="patch_48">
    <path clip-path="url(#p53bc899bdd)" d="M 443.941962 356.087831 
Q 459.845734 334.752231 444.239788 313.417028 
L 444.11872 313.505585 
Q 444.072761 313.231022 444.022655 312.954637 
Q 444.273203 313.081605 444.522282 313.210394 
L 444.401213 313.298951 
Q 460.094348 334.753353 444.102314 356.207359 
L 443.941962 356.087831 
z
" style="fill-opacity:0.4;stroke:#000000;stroke-linecap:round;stroke-opacity:0.4;"/>
   </g>
   <g id="patch_49">
    <path clip-path="url(#p53bc899bdd)" d="M 443.955855 356.097759 
Q 478.37074 311.570825 444.261517 267.044093 
L 444.14244 267.135311 
Q 444.090184 266.861542 444.035918 266.586921 
Q 444.287991 266.708659 444.539363 266.831252 
L 444.420286 266.922469 
Q 478.623094 311.571369 444.114099 356.220066 
L 443.955855 356.097759 
z
" style="fill-opacity:0.4;stroke:#000000;stroke-linecap:round;stroke-opacity:0.4;"/>
   </g>
   <g id="patch_50">
    <path clip-path="url(#p53bc899bdd)" d="M 443.961635 356.099436 
Q 496.90655 288.391304 444.269651 220.683309 
L 444.151227 220.775373 
Q 444.096137 220.500846 444.039708 220.225759 
Q 444.293074 220.346846 444.545973 220.468493 
L 444.427549 220.560557 
Q 497.160156 288.391663 444.119186 356.222634 
L 443.961635 356.099436 
z
" style="fill-opacity:0.4;stroke:#000000;stroke-linecap:round;stroke-opacity:0.4;"/>
   </g>
   <g id="patch_51">
    <path clip-path="url(#p53bc899bdd)" d="M 442.8 311.372308 
Q 442.8 311.372308 442.8 311.372308 
L 442.8 311.372308 
Q 442.8 311.372308 442.8 311.372308 
Q 442.8 311.372308 442.8 311.372308 
L 442.8 311.372308 
Q 442.8 311.372308 442.8 311.372308 
L 442.8 311.372308 
z
" style="fill-opacity:0.4;stroke:#000000;stroke-linecap:round;stroke-opacity:0.4;"/>
   </g>
   <g id="patch_52">
    <path clip-path="url(#p53bc899bdd)" d="M 443.941962 309.730908 
Q 459.845734 288.395308 444.239788 267.060105 
L 444.11872 267.148662 
Q 444.072761 266.874099 444.022655 266.597714 
Q 444.273203 266.724682 444.522282 266.853471 
L 444.401213 266.942028 
Q 460.094348 288.39643 444.102314 309.850436 
L 443.941962 309.730908 
z
" style="fill-opacity:0.4;stroke:#000000;stroke-linecap:round;stroke-opacity:0.4;"/>
   </g>
   <g id="patch_53">
    <path clip-path="url(#p53bc899bdd)" d="M 443.955855 309.740836 
Q 478.37074 265.213902 444.261517 220.68717 
L 444.14244 220.778387 
Q 444.090184 220.504619 444.035918 220.229998 
Q 444.287991 220.351736 444.539363 220.474329 
L 444.420286 220.565546 
Q 478.623094 265.214446 444.114099 309.863143 
L 443.955855 309.740836 
z
" style="fill-opacity:0.4;stroke:#000000;stroke-linecap:round;stroke-opacity:0.4;"/>
   </g>
   <g id="patch_54">
    <path clip-path="url(#p53bc899bdd)" d="M 442.8 265.015385 
Q 442.8 265.015385 442.8 265.015385 
L 442.8 265.015385 
Q 442.8 265.015385 442.8 265.015385 
Q 442.8 265.015385 442.8 265.015385 
L 442.8 265.015385 
Q 442.8 265.015385 442.8 265.015385 
L 442.8 265.015385 
z
" style="fill-opacity:0.4;stroke:#000000;stroke-linecap:round;stroke-opacity:0.4;"/>
   </g>
   <g id="patch_55">
    <path clip-path="url(#p53bc899bdd)" d="M 443.941962 263.373985 
Q 459.845734 242.038385 444.239788 220.703182 
L 444.11872 220.791739 
Q 444.072761 220.517176 444.022655 220.240791 
Q 444.273203 220.367759 444.522282 220.496548 
L 444.401213 220.585105 
Q 460.094348 242.039507 444.102314 263.493513 
L 443.941962 263.373985 
z
" style="fill-opacity:0.4;stroke:#000000;stroke-linecap:round;stroke-opacity:0.4;"/>
   </g>
   <g id="patch_56">
    <path clip-path="url(#p53bc899bdd)" d="M 442.8 218.658462 
Q 442.8 218.658462 442.8 218.658462 
L 442.8 218.658462 
Q 442.8 218.658462 442.8 218.658462 
Q 442.8 218.658462 442.8 218.658462 
L 442.8 218.658462 
Q 442.8 218.658462 442.8 218.658462 
L 442.8 218.658462 
z
" style="fill-opacity:0.4;stroke:#000000;stroke-linecap:round;stroke-opacity:0.4;"/>
   </g>
   <g id="patch_57">
    <path clip-path="url(#p53bc899bdd)" d="M 417.046154 651.323077 
L 442.8 651.323077 
L 442.8 620.418462 
L 417.046154 620.418462 
z
" style="fill:none;stroke:#000000;stroke-linejoin:miter;stroke-opacity:0.4;"/>
   </g>
   <g id="patch_58">
    <path clip-path="url(#p53bc899bdd)" d="M 417.046154 604.966154 
L 442.8 604.966154 
L 442.8 574.061538 
L 417.046154 574.061538 
z
" style="fill:none;stroke:#000000;stroke-linejoin:miter;stroke-opacity:0.4;"/>
   </g>
   <g id="patch_59">
    <path clip-path="url(#p53bc899bdd)" d="M 417.046154 558.609231 
L 442.8 558.609231 
L 442.8 527.704615 
L 417.046154 527.704615 
z
" style="fill:none;stroke:#000000;stroke-linejoin:miter;stroke-opacity:0.4;"/>
   </g>
   <g id="patch_60">
    <path clip-path="url(#p53bc899bdd)" d="M 417.046154 512.252308 
L 442.8 512.252308 
L 442.8 481.347692 
L 417.046154 481.347692 
z
" style="fill:none;stroke:#000000;stroke-linejoin:miter;stroke-opacity:0.4;"/>
   </g>
   <g id="patch_61">
    <path clip-path="url(#p53bc899bdd)" d="M 417.046154 465.895385 
L 442.8 465.895385 
L 442.8 434.990769 
L 417.046154 434.990769 
z
" style="fill:none;stroke:#000000;stroke-linejoin:miter;stroke-opacity:0.4;"/>
   </g>
   <g id="patch_62">
    <path clip-path="url(#p53bc899bdd)" d="M 417.046154 419.538462 
L 442.8 419.538462 
L 442.8 388.633846 
L 417.046154 388.633846 
z
" style="fill:none;stroke:#000000;stroke-linejoin:miter;stroke-opacity:0.4;"/>
   </g>
   <g id="patch_63">
    <path clip-path="url(#p53bc899bdd)" d="M 417.046154 373.181538 
L 442.8 373.181538 
L 442.8 342.276923 
L 417.046154 342.276923 
z
" style="fill:none;stroke:#000000;stroke-linejoin:miter;stroke-opacity:0.4;"/>
   </g>
   <g id="patch_64">
    <path clip-path="url(#p53bc899bdd)" d="M 417.046154 326.824615 
L 442.8 326.824615 
L 442.8 295.92 
L 417.046154 295.92 
z
" style="fill:none;stroke:#000000;stroke-linejoin:miter;stroke-opacity:0.4;"/>
   </g>
   <g id="patch_65">
    <path clip-path="url(#p53bc899bdd)" d="M 417.046154 280.467692 
L 442.8 280.467692 
L 442.8 249.563077 
L 417.046154 249.563077 
z
" style="fill:none;stroke:#000000;stroke-linejoin:miter;stroke-opacity:0.4;"/>
   </g>
   <g id="patch_66">
    <path clip-path="url(#p53bc899bdd)" d="M 417.046154 234.110769 
L 442.8 234.110769 
L 442.8 203.206154 
L 417.046154 203.206154 
z
" style="fill:none;stroke:#000000;stroke-linejoin:miter;stroke-opacity:0.4;"/>
   </g>
   <g id="patch_67">
    <path clip-path="url(#p53bc899bdd)" d="M 171.869538 365.455385 
L 167.748923 365.455385 
L 167.748923 394.299692 
L 163.628308 394.299692 
L 169.809231 401.510769 
L 175.990154 394.299692 
L 171.869538 394.299692 
z
" style="fill:none;stroke:#000000;stroke-linejoin:miter;"/>
   </g>
   <g id="patch_68">
    <path clip-path="url(#p53bc899bdd)" d="M 128.603077 447.867692 
L 205.864615 447.867692 
L 205.864615 406.661538 
L 128.603077 406.661538 
z
" style="fill:none;stroke:#000000;stroke-linejoin:miter;"/>
   </g>
   <g id="patch_69">
    <path clip-path="url(#p53bc899bdd)" d="M 556.116923 427.779692 
L 556.116923 431.900308 
L 584.961231 431.900308 
L 584.961231 436.020923 
L 592.172308 429.84 
L 584.961231 423.659077 
L 584.961231 427.779692 
z
" style="fill:none;stroke:#000000;stroke-linejoin:miter;"/>
   </g>
   <g id="patch_70">
    <path clip-path="url(#p53bc899bdd)" d="M 623.076923 450.443077 
L 705.489231 450.443077 
L 705.489231 409.236923 
L 623.076923 409.236923 
z
" style="fill:none;stroke:#000000;stroke-linejoin:miter;"/>
   </g>
   <g id="patch_71">
    <path clip-path="url(#p53bc899bdd)" d="M 668.918769 458.169231 
L 664.798154 458.169231 
L 664.798154 487.013538 
L 660.677538 487.013538 
L 666.858462 494.224615 
L 673.039385 487.013538 
L 668.918769 487.013538 
z
" style="fill:none;stroke:#000000;stroke-linejoin:miter;"/>
   </g>
   <g id="line2d_1">
    <path clip-path="url(#p53bc899bdd)" d="M 205.864615 429.84 
L 262.523077 635.870769 
" style="fill:none;stroke:#000000;stroke-linecap:square;stroke-opacity:0.9;stroke-width:0.7;"/>
   </g>
   <g id="line2d_2">
    <path clip-path="url(#p53bc899bdd)" d="M 205.864615 429.84 
L 262.523077 589.513846 
" style="fill:none;stroke:#000000;stroke-linecap:square;stroke-opacity:0.9;stroke-width:0.7;"/>
   </g>
   <g id="line2d_3">
    <path clip-path="url(#p53bc899bdd)" d="M 205.864615 429.84 
L 262.523077 543.156923 
" style="fill:none;stroke:#000000;stroke-linecap:square;stroke-opacity:0.9;stroke-width:0.7;"/>
   </g>
   <g id="line2d_4">
    <path clip-path="url(#p53bc899bdd)" d="M 205.864615 429.84 
L 262.523077 496.8 
" style="fill:none;stroke:#000000;stroke-linecap:square;stroke-opacity:0.9;stroke-width:0.7;"/>
   </g>
   <g id="line2d_5">
    <path clip-path="url(#p53bc899bdd)" d="M 205.864615 429.84 
L 262.523077 450.443077 
" style="fill:none;stroke:#000000;stroke-linecap:square;stroke-opacity:0.9;stroke-width:0.7;"/>
   </g>
   <g id="line2d_6">
    <path clip-path="url(#p53bc899bdd)" d="M 205.864615 429.84 
L 262.523077 404.086154 
" style="fill:none;stroke:#000000;stroke-linecap:square;stroke-opacity:0.9;stroke-width:0.7;"/>
   </g>
   <g id="line2d_7">
    <path clip-path="url(#p53bc899bdd)" d="M 205.864615 429.84 
L 262.523077 357.729231 
" style="fill:none;stroke:#000000;stroke-linecap:square;stroke-opacity:0.9;stroke-width:0.7;"/>
   </g>
   <g id="line2d_8">
    <path clip-path="url(#p53bc899bdd)" d="M 205.864615 429.84 
L 262.523077 311.372308 
" style="fill:none;stroke:#000000;stroke-linecap:square;stroke-opacity:0.9;stroke-width:0.7;"/>
   </g>
   <g id="line2d_9">
    <path clip-path="url(#p53bc899bdd)" d="M 205.864615 429.84 
L 262.523077 265.015385 
" style="fill:none;stroke:#000000;stroke-linecap:square;stroke-opacity:0.9;stroke-width:0.7;"/>
   </g>
   <g id="line2d_10">
    <path clip-path="url(#p53bc899bdd)" d="M 205.864615 429.84 
L 262.523077 218.658462 
" style="fill:none;stroke:#000000;stroke-linecap:square;stroke-opacity:0.9;stroke-width:0.7;"/>
   </g>
   <g id="line2d_11">
    <path clip-path="url(#p53bc899bdd)" d="M 262.523077 635.870769 
L 417.046154 635.870769 
" style="fill:none;stroke:#000000;stroke-linecap:square;stroke-opacity:0.9;stroke-width:0.7;"/>
   </g>
   <g id="line2d_12">
    <path clip-path="url(#p53bc899bdd)" d="M 262.523077 589.513846 
L 417.046154 589.513846 
" style="fill:none;stroke:#000000;stroke-linecap:square;stroke-opacity:0.9;stroke-width:0.7;"/>
   </g>
   <g id="line2d_13">
    <path clip-path="url(#p53bc899bdd)" d="M 262.523077 543.156923 
L 417.046154 543.156923 
" style="fill:none;stroke:#000000;stroke-linecap:square;stroke-opacity:0.9;stroke-width:0.7;"/>
   </g>
   <g id="line2d_14">
    <path clip-path="url(#p53bc899bdd)" d="M 262.523077 496.8 
L 417.046154 496.8 
" style="fill:none;stroke:#000000;stroke-linecap:square;stroke-opacity:0.9;stroke-width:0.7;"/>
   </g>
   <g id="line2d_15">
    <path clip-path="url(#p53bc899bdd)" d="M 262.523077 450.443077 
L 417.046154 450.443077 
" style="fill:none;stroke:#000000;stroke-linecap:square;stroke-opacity:0.9;stroke-width:0.7;"/>
   </g>
   <g id="line2d_16">
    <path clip-path="url(#p53bc899bdd)" d="M 262.523077 404.086154 
L 417.046154 404.086154 
" style="fill:none;stroke:#000000;stroke-linecap:square;stroke-opacity:0.9;stroke-width:0.7;"/>
   </g>
   <g id="line2d_17">
    <path clip-path="url(#p53bc899bdd)" d="M 262.523077 357.729231 
L 417.046154 357.729231 
" style="fill:none;stroke:#000000;stroke-linecap:square;stroke-opacity:0.9;stroke-width:0.7;"/>
   </g>
   <g id="line2d_18">
    <path clip-path="url(#p53bc899bdd)" d="M 262.523077 311.372308 
L 417.046154 311.372308 
" style="fill:none;stroke:#000000;stroke-linecap:square;stroke-opacity:0.9;stroke-width:0.7;"/>
   </g>
   <g id="line2d_19">
    <path clip-path="url(#p53bc899bdd)" d="M 262.523077 265.015385 
L 417.046154 265.015385 
" style="fill:none;stroke:#000000;stroke-linecap:square;stroke-opacity:0.9;stroke-width:0.7;"/>
   </g>
   <g id="line2d_20">
    <path clip-path="url(#p53bc899bdd)" d="M 262.523077 218.658462 
L 417.046154 218.658462 
" style="fill:none;stroke:#000000;stroke-linecap:square;stroke-opacity:0.9;stroke-width:0.7;"/>
   </g>
   <g id="text_1">
    <!-- CSNN Network Model -->
    <defs>
     <path d="M 64.40625 67.28125 
L 64.40625 56.890625 
Q 59.421875 61.53125 53.78125 63.8125 
Q 48.140625 66.109375 41.796875 66.109375 
Q 29.296875 66.109375 22.65625 58.46875 
Q 16.015625 50.828125 16.015625 36.375 
Q 16.015625 21.96875 22.65625 14.328125 
Q 29.296875 6.6875 41.796875 6.6875 
Q 48.140625 6.6875 53.78125 8.984375 
Q 59.421875 11.28125 64.40625 15.921875 
L 64.40625 5.609375 
Q 59.234375 2.09375 53.4375 0.328125 
Q 47.65625 -1.421875 41.21875 -1.421875 
Q 24.65625 -1.421875 15.125 8.703125 
Q 5.609375 18.84375 5.609375 36.375 
Q 5.609375 53.953125 15.125 64.078125 
Q 24.65625 74.21875 41.21875 74.21875 
Q 47.75 74.21875 53.53125 72.484375 
Q 59.328125 70.75 64.40625 67.28125 
z
" id="DejaVuSans-67"/>
     <path d="M 53.515625 70.515625 
L 53.515625 60.890625 
Q 47.90625 63.578125 42.921875 64.890625 
Q 37.9375 66.21875 33.296875 66.21875 
Q 25.25 66.21875 20.875 63.09375 
Q 16.5 59.96875 16.5 54.203125 
Q 16.5 49.359375 19.40625 46.890625 
Q 22.3125 44.4375 30.421875 42.921875 
L 36.375 41.703125 
Q 47.40625 39.59375 52.65625 34.296875 
Q 57.90625 29 57.90625 20.125 
Q 57.90625 9.515625 50.796875 4.046875 
Q 43.703125 -1.421875 29.984375 -1.421875 
Q 24.8125 -1.421875 18.96875 -0.25 
Q 13.140625 0.921875 6.890625 3.21875 
L 6.890625 13.375 
Q 12.890625 10.015625 18.65625 8.296875 
Q 24.421875 6.59375 29.984375 6.59375 
Q 38.421875 6.59375 43.015625 9.90625 
Q 47.609375 13.234375 47.609375 19.390625 
Q 47.609375 24.75 44.3125 27.78125 
Q 41.015625 30.8125 33.5 32.328125 
L 27.484375 33.5 
Q 16.453125 35.6875 11.515625 40.375 
Q 6.59375 45.0625 6.59375 53.421875 
Q 6.59375 63.09375 13.40625 68.65625 
Q 20.21875 74.21875 32.171875 74.21875 
Q 37.3125 74.21875 42.625 73.28125 
Q 47.953125 72.359375 53.515625 70.515625 
z
" id="DejaVuSans-83"/>
     <path d="M 9.8125 72.90625 
L 23.09375 72.90625 
L 55.421875 11.921875 
L 55.421875 72.90625 
L 64.984375 72.90625 
L 64.984375 0 
L 51.703125 0 
L 19.390625 60.984375 
L 19.390625 0 
L 9.8125 0 
z
" id="DejaVuSans-78"/>
     <path id="DejaVuSans-32"/>
     <path d="M 56.203125 29.59375 
L 56.203125 25.203125 
L 14.890625 25.203125 
Q 15.484375 15.921875 20.484375 11.0625 
Q 25.484375 6.203125 34.421875 6.203125 
Q 39.59375 6.203125 44.453125 7.46875 
Q 49.3125 8.734375 54.109375 11.28125 
L 54.109375 2.78125 
Q 49.265625 0.734375 44.1875 -0.34375 
Q 39.109375 -1.421875 33.890625 -1.421875 
Q 20.796875 -1.421875 13.15625 6.1875 
Q 5.515625 13.8125 5.515625 26.8125 
Q 5.515625 40.234375 12.765625 48.109375 
Q 20.015625 56 32.328125 56 
Q 43.359375 56 49.78125 48.890625 
Q 56.203125 41.796875 56.203125 29.59375 
z
M 47.21875 32.234375 
Q 47.125 39.59375 43.09375 43.984375 
Q 39.0625 48.390625 32.421875 48.390625 
Q 24.90625 48.390625 20.390625 44.140625 
Q 15.875 39.890625 15.1875 32.171875 
z
" id="DejaVuSans-101"/>
     <path d="M 18.3125 70.21875 
L 18.3125 54.6875 
L 36.8125 54.6875 
L 36.8125 47.703125 
L 18.3125 47.703125 
L 18.3125 18.015625 
Q 18.3125 11.328125 20.140625 9.421875 
Q 21.96875 7.515625 27.59375 7.515625 
L 36.8125 7.515625 
L 36.8125 0 
L 27.59375 0 
Q 17.1875 0 13.234375 3.875 
Q 9.28125 7.765625 9.28125 18.015625 
L 9.28125 47.703125 
L 2.6875 47.703125 
L 2.6875 54.6875 
L 9.28125 54.6875 
L 9.28125 70.21875 
z
" id="DejaVuSans-116"/>
     <path d="M 4.203125 54.6875 
L 13.1875 54.6875 
L 24.421875 12.015625 
L 35.59375 54.6875 
L 46.1875 54.6875 
L 57.421875 12.015625 
L 68.609375 54.6875 
L 77.59375 54.6875 
L 63.28125 0 
L 52.6875 0 
L 40.921875 44.828125 
L 29.109375 0 
L 18.5 0 
z
" id="DejaVuSans-119"/>
     <path d="M 30.609375 48.390625 
Q 23.390625 48.390625 19.1875 42.75 
Q 14.984375 37.109375 14.984375 27.296875 
Q 14.984375 17.484375 19.15625 11.84375 
Q 23.34375 6.203125 30.609375 6.203125 
Q 37.796875 6.203125 41.984375 11.859375 
Q 46.1875 17.53125 46.1875 27.296875 
Q 46.1875 37.015625 41.984375 42.703125 
Q 37.796875 48.390625 30.609375 48.390625 
z
M 30.609375 56 
Q 42.328125 56 49.015625 48.375 
Q 55.71875 40.765625 55.71875 27.296875 
Q 55.71875 13.875 49.015625 6.21875 
Q 42.328125 -1.421875 30.609375 -1.421875 
Q 18.84375 -1.421875 12.171875 6.21875 
Q 5.515625 13.875 5.515625 27.296875 
Q 5.515625 40.765625 12.171875 48.375 
Q 18.84375 56 30.609375 56 
z
" id="DejaVuSans-111"/>
     <path d="M 41.109375 46.296875 
Q 39.59375 47.171875 37.8125 47.578125 
Q 36.03125 48 33.890625 48 
Q 26.265625 48 22.1875 43.046875 
Q 18.109375 38.09375 18.109375 28.8125 
L 18.109375 0 
L 9.078125 0 
L 9.078125 54.6875 
L 18.109375 54.6875 
L 18.109375 46.1875 
Q 20.953125 51.171875 25.484375 53.578125 
Q 30.03125 56 36.53125 56 
Q 37.453125 56 38.578125 55.875 
Q 39.703125 55.765625 41.0625 55.515625 
z
" id="DejaVuSans-114"/>
     <path d="M 9.078125 75.984375 
L 18.109375 75.984375 
L 18.109375 31.109375 
L 44.921875 54.6875 
L 56.390625 54.6875 
L 27.390625 29.109375 
L 57.625 0 
L 45.90625 0 
L 18.109375 26.703125 
L 18.109375 0 
L 9.078125 0 
z
" id="DejaVuSans-107"/>
     <path d="M 9.8125 72.90625 
L 24.515625 72.90625 
L 43.109375 23.296875 
L 61.8125 72.90625 
L 76.515625 72.90625 
L 76.515625 0 
L 66.890625 0 
L 66.890625 64.015625 
L 48.09375 14.015625 
L 38.1875 14.015625 
L 19.390625 64.015625 
L 19.390625 0 
L 9.8125 0 
z
" id="DejaVuSans-77"/>
     <path d="M 45.40625 46.390625 
L 45.40625 75.984375 
L 54.390625 75.984375 
L 54.390625 0 
L 45.40625 0 
L 45.40625 8.203125 
Q 42.578125 3.328125 38.25 0.953125 
Q 33.9375 -1.421875 27.875 -1.421875 
Q 17.96875 -1.421875 11.734375 6.484375 
Q 5.515625 14.40625 5.515625 27.296875 
Q 5.515625 40.1875 11.734375 48.09375 
Q 17.96875 56 27.875 56 
Q 33.9375 56 38.25 53.625 
Q 42.578125 51.265625 45.40625 46.390625 
z
M 14.796875 27.296875 
Q 14.796875 17.390625 18.875 11.75 
Q 22.953125 6.109375 30.078125 6.109375 
Q 37.203125 6.109375 41.296875 11.75 
Q 45.40625 17.390625 45.40625 27.296875 
Q 45.40625 37.203125 41.296875 42.84375 
Q 37.203125 48.484375 30.078125 48.484375 
Q 22.953125 48.484375 18.875 42.84375 
Q 14.796875 37.203125 14.796875 27.296875 
z
" id="DejaVuSans-100"/>
     <path d="M 9.421875 75.984375 
L 18.40625 75.984375 
L 18.40625 0 
L 9.421875 0 
z
" id="DejaVuSans-108"/>
    </defs>
    <g transform="translate(310.616466 177.820288)scale(0.2 -0.2)">
     <use xlink:href="#DejaVuSans-67"/>
     <use x="69.824219" xlink:href="#DejaVuSans-83"/>
     <use x="133.300781" xlink:href="#DejaVuSans-78"/>
     <use x="208.105469" xlink:href="#DejaVuSans-78"/>
     <use x="282.910156" xlink:href="#DejaVuSans-32"/>
     <use x="314.697266" xlink:href="#DejaVuSans-78"/>
     <use x="389.501953" xlink:href="#DejaVuSans-101"/>
     <use x="451.025391" xlink:href="#DejaVuSans-116"/>
     <use x="490.234375" xlink:href="#DejaVuSans-119"/>
     <use x="572.021484" xlink:href="#DejaVuSans-111"/>
     <use x="633.203125" xlink:href="#DejaVuSans-114"/>
     <use x="674.316406" xlink:href="#DejaVuSans-107"/>
     <use x="732.226562" xlink:href="#DejaVuSans-32"/>
     <use x="764.013672" xlink:href="#DejaVuSans-77"/>
     <use x="850.292969" xlink:href="#DejaVuSans-111"/>
     <use x="911.474609" xlink:href="#DejaVuSans-100"/>
     <use x="974.951172" xlink:href="#DejaVuSans-101"/>
     <use x="1036.474609" xlink:href="#DejaVuSans-108"/>
    </g>
   </g>
   <g id="text_2">
    <!-- 10 Input with -->
    <defs>
     <path d="M 12.40625 8.296875 
L 28.515625 8.296875 
L 28.515625 63.921875 
L 10.984375 60.40625 
L 10.984375 69.390625 
L 28.421875 72.90625 
L 38.28125 72.90625 
L 38.28125 8.296875 
L 54.390625 8.296875 
L 54.390625 0 
L 12.40625 0 
z
" id="DejaVuSans-49"/>
     <path d="M 31.78125 66.40625 
Q 24.171875 66.40625 20.328125 58.90625 
Q 16.5 51.421875 16.5 36.375 
Q 16.5 21.390625 20.328125 13.890625 
Q 24.171875 6.390625 31.78125 6.390625 
Q 39.453125 6.390625 43.28125 13.890625 
Q 47.125 21.390625 47.125 36.375 
Q 47.125 51.421875 43.28125 58.90625 
Q 39.453125 66.40625 31.78125 66.40625 
z
M 31.78125 74.21875 
Q 44.046875 74.21875 50.515625 64.515625 
Q 56.984375 54.828125 56.984375 36.375 
Q 56.984375 17.96875 50.515625 8.265625 
Q 44.046875 -1.421875 31.78125 -1.421875 
Q 19.53125 -1.421875 13.0625 8.265625 
Q 6.59375 17.96875 6.59375 36.375 
Q 6.59375 54.828125 13.0625 64.515625 
Q 19.53125 74.21875 31.78125 74.21875 
z
" id="DejaVuSans-48"/>
     <path d="M 9.8125 72.90625 
L 19.671875 72.90625 
L 19.671875 0 
L 9.8125 0 
z
" id="DejaVuSans-73"/>
     <path d="M 54.890625 33.015625 
L 54.890625 0 
L 45.90625 0 
L 45.90625 32.71875 
Q 45.90625 40.484375 42.875 44.328125 
Q 39.84375 48.1875 33.796875 48.1875 
Q 26.515625 48.1875 22.3125 43.546875 
Q 18.109375 38.921875 18.109375 30.90625 
L 18.109375 0 
L 9.078125 0 
L 9.078125 54.6875 
L 18.109375 54.6875 
L 18.109375 46.1875 
Q 21.34375 51.125 25.703125 53.5625 
Q 30.078125 56 35.796875 56 
Q 45.21875 56 50.046875 50.171875 
Q 54.890625 44.34375 54.890625 33.015625 
z
" id="DejaVuSans-110"/>
     <path d="M 18.109375 8.203125 
L 18.109375 -20.796875 
L 9.078125 -20.796875 
L 9.078125 54.6875 
L 18.109375 54.6875 
L 18.109375 46.390625 
Q 20.953125 51.265625 25.265625 53.625 
Q 29.59375 56 35.59375 56 
Q 45.5625 56 51.78125 48.09375 
Q 58.015625 40.1875 58.015625 27.296875 
Q 58.015625 14.40625 51.78125 6.484375 
Q 45.5625 -1.421875 35.59375 -1.421875 
Q 29.59375 -1.421875 25.265625 0.953125 
Q 20.953125 3.328125 18.109375 8.203125 
z
M 48.6875 27.296875 
Q 48.6875 37.203125 44.609375 42.84375 
Q 40.53125 48.484375 33.40625 48.484375 
Q 26.265625 48.484375 22.1875 42.84375 
Q 18.109375 37.203125 18.109375 27.296875 
Q 18.109375 17.390625 22.1875 11.75 
Q 26.265625 6.109375 33.40625 6.109375 
Q 40.53125 6.109375 44.609375 11.75 
Q 48.6875 17.390625 48.6875 27.296875 
z
" id="DejaVuSans-112"/>
     <path d="M 8.5 21.578125 
L 8.5 54.6875 
L 17.484375 54.6875 
L 17.484375 21.921875 
Q 17.484375 14.15625 20.5 10.265625 
Q 23.53125 6.390625 29.59375 6.390625 
Q 36.859375 6.390625 41.078125 11.03125 
Q 45.3125 15.671875 45.3125 23.6875 
L 45.3125 54.6875 
L 54.296875 54.6875 
L 54.296875 0 
L 45.3125 0 
L 45.3125 8.40625 
Q 42.046875 3.421875 37.71875 1 
Q 33.40625 -1.421875 27.6875 -1.421875 
Q 18.265625 -1.421875 13.375 4.4375 
Q 8.5 10.296875 8.5 21.578125 
z
M 31.109375 56 
z
" id="DejaVuSans-117"/>
     <path d="M 9.421875 54.6875 
L 18.40625 54.6875 
L 18.40625 0 
L 9.421875 0 
z
M 9.421875 75.984375 
L 18.40625 75.984375 
L 18.40625 64.59375 
L 9.421875 64.59375 
z
" id="DejaVuSans-105"/>
     <path d="M 54.890625 33.015625 
L 54.890625 0 
L 45.90625 0 
L 45.90625 32.71875 
Q 45.90625 40.484375 42.875 44.328125 
Q 39.84375 48.1875 33.796875 48.1875 
Q 26.515625 48.1875 22.3125 43.546875 
Q 18.109375 38.921875 18.109375 30.90625 
L 18.109375 0 
L 9.078125 0 
L 9.078125 75.984375 
L 18.109375 75.984375 
L 18.109375 46.1875 
Q 21.34375 51.125 25.703125 53.5625 
Q 30.078125 56 35.796875 56 
Q 45.21875 56 50.046875 50.171875 
Q 54.890625 44.34375 54.890625 33.015625 
z
" id="DejaVuSans-104"/>
    </defs>
    <g transform="translate(212.88128 683.119165)scale(0.15 -0.15)">
     <use xlink:href="#DejaVuSans-49"/>
     <use x="63.623047" xlink:href="#DejaVuSans-48"/>
     <use x="127.246094" xlink:href="#DejaVuSans-32"/>
     <use x="159.033203" xlink:href="#DejaVuSans-73"/>
     <use x="188.525391" xlink:href="#DejaVuSans-110"/>
     <use x="251.904297" xlink:href="#DejaVuSans-112"/>
     <use x="315.380859" xlink:href="#DejaVuSans-117"/>
     <use x="378.759766" xlink:href="#DejaVuSans-116"/>
     <use x="417.96875" xlink:href="#DejaVuSans-32"/>
     <use x="449.755859" xlink:href="#DejaVuSans-119"/>
     <use x="531.542969" xlink:href="#DejaVuSans-105"/>
     <use x="559.326172" xlink:href="#DejaVuSans-116"/>
     <use x="598.535156" xlink:href="#DejaVuSans-104"/>
    </g>
    <!-- 25 Neurons each -->
    <defs>
     <path d="M 19.1875 8.296875 
L 53.609375 8.296875 
L 53.609375 0 
L 7.328125 0 
L 7.328125 8.296875 
Q 12.9375 14.109375 22.625 23.890625 
Q 32.328125 33.6875 34.8125 36.53125 
Q 39.546875 41.84375 41.421875 45.53125 
Q 43.3125 49.21875 43.3125 52.78125 
Q 43.3125 58.59375 39.234375 62.25 
Q 35.15625 65.921875 28.609375 65.921875 
Q 23.96875 65.921875 18.8125 64.3125 
Q 13.671875 62.703125 7.8125 59.421875 
L 7.8125 69.390625 
Q 13.765625 71.78125 18.9375 73 
Q 24.125 74.21875 28.421875 74.21875 
Q 39.75 74.21875 46.484375 68.546875 
Q 53.21875 62.890625 53.21875 53.421875 
Q 53.21875 48.921875 51.53125 44.890625 
Q 49.859375 40.875 45.40625 35.40625 
Q 44.1875 33.984375 37.640625 27.21875 
Q 31.109375 20.453125 19.1875 8.296875 
z
" id="DejaVuSans-50"/>
     <path d="M 10.796875 72.90625 
L 49.515625 72.90625 
L 49.515625 64.59375 
L 19.828125 64.59375 
L 19.828125 46.734375 
Q 21.96875 47.46875 24.109375 47.828125 
Q 26.265625 48.1875 28.421875 48.1875 
Q 40.625 48.1875 47.75 41.5 
Q 54.890625 34.8125 54.890625 23.390625 
Q 54.890625 11.625 47.5625 5.09375 
Q 40.234375 -1.421875 26.90625 -1.421875 
Q 22.3125 -1.421875 17.546875 -0.640625 
Q 12.796875 0.140625 7.71875 1.703125 
L 7.71875 11.625 
Q 12.109375 9.234375 16.796875 8.0625 
Q 21.484375 6.890625 26.703125 6.890625 
Q 35.15625 6.890625 40.078125 11.328125 
Q 45.015625 15.765625 45.015625 23.390625 
Q 45.015625 31 40.078125 35.4375 
Q 35.15625 39.890625 26.703125 39.890625 
Q 22.75 39.890625 18.8125 39.015625 
Q 14.890625 38.140625 10.796875 36.28125 
z
" id="DejaVuSans-53"/>
     <path d="M 44.28125 53.078125 
L 44.28125 44.578125 
Q 40.484375 46.53125 36.375 47.5 
Q 32.28125 48.484375 27.875 48.484375 
Q 21.1875 48.484375 17.84375 46.4375 
Q 14.5 44.390625 14.5 40.28125 
Q 14.5 37.15625 16.890625 35.375 
Q 19.28125 33.59375 26.515625 31.984375 
L 29.59375 31.296875 
Q 39.15625 29.25 43.1875 25.515625 
Q 47.21875 21.78125 47.21875 15.09375 
Q 47.21875 7.46875 41.1875 3.015625 
Q 35.15625 -1.421875 24.609375 -1.421875 
Q 20.21875 -1.421875 15.453125 -0.5625 
Q 10.6875 0.296875 5.421875 2 
L 5.421875 11.28125 
Q 10.40625 8.6875 15.234375 7.390625 
Q 20.0625 6.109375 24.8125 6.109375 
Q 31.15625 6.109375 34.5625 8.28125 
Q 37.984375 10.453125 37.984375 14.40625 
Q 37.984375 18.0625 35.515625 20.015625 
Q 33.0625 21.96875 24.703125 23.78125 
L 21.578125 24.515625 
Q 13.234375 26.265625 9.515625 29.90625 
Q 5.8125 33.546875 5.8125 39.890625 
Q 5.8125 47.609375 11.28125 51.796875 
Q 16.75 56 26.8125 56 
Q 31.78125 56 36.171875 55.265625 
Q 40.578125 54.546875 44.28125 53.078125 
z
" id="DejaVuSans-115"/>
     <path d="M 34.28125 27.484375 
Q 23.390625 27.484375 19.1875 25 
Q 14.984375 22.515625 14.984375 16.5 
Q 14.984375 11.71875 18.140625 8.90625 
Q 21.296875 6.109375 26.703125 6.109375 
Q 34.1875 6.109375 38.703125 11.40625 
Q 43.21875 16.703125 43.21875 25.484375 
L 43.21875 27.484375 
z
M 52.203125 31.203125 
L 52.203125 0 
L 43.21875 0 
L 43.21875 8.296875 
Q 40.140625 3.328125 35.546875 0.953125 
Q 30.953125 -1.421875 24.3125 -1.421875 
Q 15.921875 -1.421875 10.953125 3.296875 
Q 6 8.015625 6 15.921875 
Q 6 25.140625 12.171875 29.828125 
Q 18.359375 34.515625 30.609375 34.515625 
L 43.21875 34.515625 
L 43.21875 35.40625 
Q 43.21875 41.609375 39.140625 45 
Q 35.0625 48.390625 27.6875 48.390625 
Q 23 48.390625 18.546875 47.265625 
Q 14.109375 46.140625 10.015625 43.890625 
L 10.015625 52.203125 
Q 14.9375 54.109375 19.578125 55.046875 
Q 24.21875 56 28.609375 56 
Q 40.484375 56 46.34375 49.84375 
Q 52.203125 43.703125 52.203125 31.203125 
z
" id="DejaVuSans-97"/>
     <path d="M 48.78125 52.59375 
L 48.78125 44.1875 
Q 44.96875 46.296875 41.140625 47.34375 
Q 37.3125 48.390625 33.40625 48.390625 
Q 24.65625 48.390625 19.8125 42.84375 
Q 14.984375 37.3125 14.984375 27.296875 
Q 14.984375 17.28125 19.8125 11.734375 
Q 24.65625 6.203125 33.40625 6.203125 
Q 37.3125 6.203125 41.140625 7.25 
Q 44.96875 8.296875 48.78125 10.40625 
L 48.78125 2.09375 
Q 45.015625 0.34375 40.984375 -0.53125 
Q 36.96875 -1.421875 32.421875 -1.421875 
Q 20.0625 -1.421875 12.78125 6.34375 
Q 5.515625 14.109375 5.515625 27.296875 
Q 5.515625 40.671875 12.859375 48.328125 
Q 20.21875 56 33.015625 56 
Q 37.15625 56 41.109375 55.140625 
Q 45.0625 54.296875 48.78125 52.59375 
z
" id="DejaVuSans-99"/>
    </defs>
    <g transform="translate(198.815264 699.915883)scale(0.15 -0.15)">
     <use xlink:href="#DejaVuSans-50"/>
     <use x="63.623047" xlink:href="#DejaVuSans-53"/>
     <use x="127.246094" xlink:href="#DejaVuSans-32"/>
     <use x="159.033203" xlink:href="#DejaVuSans-78"/>
     <use x="233.837891" xlink:href="#DejaVuSans-101"/>
     <use x="295.361328" xlink:href="#DejaVuSans-117"/>
     <use x="358.740234" xlink:href="#DejaVuSans-114"/>
     <use x="399.822266" xlink:href="#DejaVuSans-111"/>
     <use x="461.003906" xlink:href="#DejaVuSans-110"/>
     <use x="524.382812" xlink:href="#DejaVuSans-115"/>
     <use x="576.482422" xlink:href="#DejaVuSans-32"/>
     <use x="608.269531" xlink:href="#DejaVuSans-101"/>
     <use x="669.792969" xlink:href="#DejaVuSans-97"/>
     <use x="731.072266" xlink:href="#DejaVuSans-99"/>
     <use x="786.052734" xlink:href="#DejaVuSans-104"/>
    </g>
   </g>
   <g id="text_3">
    <!-- 10 Columns with -->
    <defs>
     <path d="M 52 44.1875 
Q 55.375 50.25 60.0625 53.125 
Q 64.75 56 71.09375 56 
Q 79.640625 56 84.28125 50.015625 
Q 88.921875 44.046875 88.921875 33.015625 
L 88.921875 0 
L 79.890625 0 
L 79.890625 32.71875 
Q 79.890625 40.578125 77.09375 44.375 
Q 74.3125 48.1875 68.609375 48.1875 
Q 61.625 48.1875 57.5625 43.546875 
Q 53.515625 38.921875 53.515625 30.90625 
L 53.515625 0 
L 44.484375 0 
L 44.484375 32.71875 
Q 44.484375 40.625 41.703125 44.40625 
Q 38.921875 48.1875 33.109375 48.1875 
Q 26.21875 48.1875 22.15625 43.53125 
Q 18.109375 38.875 18.109375 30.90625 
L 18.109375 0 
L 9.078125 0 
L 9.078125 54.6875 
L 18.109375 54.6875 
L 18.109375 46.1875 
Q 21.1875 51.21875 25.484375 53.609375 
Q 29.78125 56 35.6875 56 
Q 41.65625 56 45.828125 52.96875 
Q 50 49.953125 52 44.1875 
z
" id="DejaVuSans-109"/>
    </defs>
    <g transform="translate(395.402308 683.119165)scale(0.15 -0.15)">
     <use xlink:href="#DejaVuSans-49"/>
     <use x="63.623047" xlink:href="#DejaVuSans-48"/>
     <use x="127.246094" xlink:href="#DejaVuSans-32"/>
     <use x="159.033203" xlink:href="#DejaVuSans-67"/>
     <use x="228.857422" xlink:href="#DejaVuSans-111"/>
     <use x="290.039062" xlink:href="#DejaVuSans-108"/>
     <use x="317.822266" xlink:href="#DejaVuSans-117"/>
     <use x="381.201172" xlink:href="#DejaVuSans-109"/>
     <use x="478.613281" xlink:href="#DejaVuSans-110"/>
     <use x="541.992188" xlink:href="#DejaVuSans-115"/>
     <use x="594.091797" xlink:href="#DejaVuSans-32"/>
     <use x="625.878906" xlink:href="#DejaVuSans-119"/>
     <use x="707.666016" xlink:href="#DejaVuSans-105"/>
     <use x="735.449219" xlink:href="#DejaVuSans-116"/>
     <use x="774.658203" xlink:href="#DejaVuSans-104"/>
    </g>
    <!-- 100 Neurons each -->
    <g transform="translate(389.77262 699.915883)scale(0.15 -0.15)">
     <use xlink:href="#DejaVuSans-49"/>
     <use x="63.623047" xlink:href="#DejaVuSans-48"/>
     <use x="127.246094" xlink:href="#DejaVuSans-48"/>
     <use x="190.869141" xlink:href="#DejaVuSans-32"/>
     <use x="222.65625" xlink:href="#DejaVuSans-78"/>
     <use x="297.460938" xlink:href="#DejaVuSans-101"/>
     <use x="358.984375" xlink:href="#DejaVuSans-117"/>
     <use x="422.363281" xlink:href="#DejaVuSans-114"/>
     <use x="463.445312" xlink:href="#DejaVuSans-111"/>
     <use x="524.626953" xlink:href="#DejaVuSans-110"/>
     <use x="588.005859" xlink:href="#DejaVuSans-115"/>
     <use x="640.105469" xlink:href="#DejaVuSans-32"/>
     <use x="671.892578" xlink:href="#DejaVuSans-101"/>
     <use x="733.416016" xlink:href="#DejaVuSans-97"/>
     <use x="794.695312" xlink:href="#DejaVuSans-99"/>
     <use x="849.675781" xlink:href="#DejaVuSans-104"/>
    </g>
   </g>
   <g id="text_4">
    <!-- Character$_t$ -->
    <defs>
     <path d="M 42.28125 54.6875 
L 40.921875 47.703125 
L 23 47.703125 
L 17.1875 18.015625 
Q 16.890625 16.359375 16.75 15.234375 
Q 16.609375 14.109375 16.609375 13.484375 
Q 16.609375 10.359375 18.484375 8.9375 
Q 20.359375 7.515625 24.515625 7.515625 
L 33.59375 7.515625 
L 32.078125 0 
L 23.484375 0 
Q 15.484375 0 11.546875 3.125 
Q 7.625 6.25 7.625 12.59375 
Q 7.625 13.71875 7.765625 15.0625 
Q 7.90625 16.40625 8.203125 18.015625 
L 14.015625 47.703125 
L 6.390625 47.703125 
L 7.8125 54.6875 
L 15.28125 54.6875 
L 18.3125 70.21875 
L 27.296875 70.21875 
L 24.3125 54.6875 
z
" id="DejaVuSans-Oblique-116"/>
    </defs>
    <g transform="translate(143.559231 355.337837)scale(0.1 -0.1)">
     <use transform="translate(0 0.015625)" xlink:href="#DejaVuSans-67"/>
     <use transform="translate(69.824219 0.015625)" xlink:href="#DejaVuSans-104"/>
     <use transform="translate(133.203125 0.015625)" xlink:href="#DejaVuSans-97"/>
     <use transform="translate(194.482422 0.015625)" xlink:href="#DejaVuSans-114"/>
     <use transform="translate(235.595703 0.015625)" xlink:href="#DejaVuSans-97"/>
     <use transform="translate(296.875 0.015625)" xlink:href="#DejaVuSans-99"/>
     <use transform="translate(351.855469 0.015625)" xlink:href="#DejaVuSans-116"/>
     <use transform="translate(391.064453 0.015625)" xlink:href="#DejaVuSans-101"/>
     <use transform="translate(452.587891 0.015625)" xlink:href="#DejaVuSans-114"/>
     <use transform="translate(494.658203 -16.390625)scale(0.7)" xlink:href="#DejaVuSans-Oblique-116"/>
    </g>
   </g>
   <g id="text_5">
    <!-- Character$_{t-1}$ -->
    <defs>
     <path d="M 10.59375 35.5 
L 73.1875 35.5 
L 73.1875 27.203125 
L 10.59375 27.203125 
z
" id="DejaVuSans-8722"/>
    </defs>
    <g transform="translate(137.009231 339.885529)scale(0.1 -0.1)">
     <use transform="translate(0 0.015625)" xlink:href="#DejaVuSans-67"/>
     <use transform="translate(69.824219 0.015625)" xlink:href="#DejaVuSans-104"/>
     <use transform="translate(133.203125 0.015625)" xlink:href="#DejaVuSans-97"/>
     <use transform="translate(194.482422 0.015625)" xlink:href="#DejaVuSans-114"/>
     <use transform="translate(235.595703 0.015625)" xlink:href="#DejaVuSans-97"/>
     <use transform="translate(296.875 0.015625)" xlink:href="#DejaVuSans-99"/>
     <use transform="translate(351.855469 0.015625)" xlink:href="#DejaVuSans-116"/>
     <use transform="translate(391.064453 0.015625)" xlink:href="#DejaVuSans-101"/>
     <use transform="translate(452.587891 0.015625)" xlink:href="#DejaVuSans-114"/>
     <use transform="translate(494.658203 -16.390625)scale(0.7)" xlink:href="#DejaVuSans-Oblique-116"/>
     <use transform="translate(535.742188 -16.390625)scale(0.7)" xlink:href="#DejaVuSans-8722"/>
     <use transform="translate(608.032227 -16.390625)scale(0.7)" xlink:href="#DejaVuSans-49"/>
    </g>
   </g>
   <g id="text_6">
    <!-- Character$_{t-2}$ -->
    <g transform="translate(137.009231 324.433221)scale(0.1 -0.1)">
     <use transform="translate(0 0.015625)" xlink:href="#DejaVuSans-67"/>
     <use transform="translate(69.824219 0.015625)" xlink:href="#DejaVuSans-104"/>
     <use transform="translate(133.203125 0.015625)" xlink:href="#DejaVuSans-97"/>
     <use transform="translate(194.482422 0.015625)" xlink:href="#DejaVuSans-114"/>
     <use transform="translate(235.595703 0.015625)" xlink:href="#DejaVuSans-97"/>
     <use transform="translate(296.875 0.015625)" xlink:href="#DejaVuSans-99"/>
     <use transform="translate(351.855469 0.015625)" xlink:href="#DejaVuSans-116"/>
     <use transform="translate(391.064453 0.015625)" xlink:href="#DejaVuSans-101"/>
     <use transform="translate(452.587891 0.015625)" xlink:href="#DejaVuSans-114"/>
     <use transform="translate(494.658203 -16.390625)scale(0.7)" xlink:href="#DejaVuSans-Oblique-116"/>
     <use transform="translate(535.742188 -16.390625)scale(0.7)" xlink:href="#DejaVuSans-8722"/>
     <use transform="translate(608.032227 -16.390625)scale(0.7)" xlink:href="#DejaVuSans-50"/>
    </g>
   </g>
   <g id="text_7">
    <!-- Character$_{t-3}$ -->
    <defs>
     <path d="M 40.578125 39.3125 
Q 47.65625 37.796875 51.625 33 
Q 55.609375 28.21875 55.609375 21.1875 
Q 55.609375 10.40625 48.1875 4.484375 
Q 40.765625 -1.421875 27.09375 -1.421875 
Q 22.515625 -1.421875 17.65625 -0.515625 
Q 12.796875 0.390625 7.625 2.203125 
L 7.625 11.71875 
Q 11.71875 9.328125 16.59375 8.109375 
Q 21.484375 6.890625 26.8125 6.890625 
Q 36.078125 6.890625 40.9375 10.546875 
Q 45.796875 14.203125 45.796875 21.1875 
Q 45.796875 27.640625 41.28125 31.265625 
Q 36.765625 34.90625 28.71875 34.90625 
L 20.21875 34.90625 
L 20.21875 43.015625 
L 29.109375 43.015625 
Q 36.375 43.015625 40.234375 45.921875 
Q 44.09375 48.828125 44.09375 54.296875 
Q 44.09375 59.90625 40.109375 62.90625 
Q 36.140625 65.921875 28.71875 65.921875 
Q 24.65625 65.921875 20.015625 65.03125 
Q 15.375 64.15625 9.8125 62.3125 
L 9.8125 71.09375 
Q 15.4375 72.65625 20.34375 73.4375 
Q 25.25 74.21875 29.59375 74.21875 
Q 40.828125 74.21875 47.359375 69.109375 
Q 53.90625 64.015625 53.90625 55.328125 
Q 53.90625 49.265625 50.4375 45.09375 
Q 46.96875 40.921875 40.578125 39.3125 
z
" id="DejaVuSans-51"/>
    </defs>
    <g transform="translate(137.009231 308.980913)scale(0.1 -0.1)">
     <use transform="translate(0 0.015625)" xlink:href="#DejaVuSans-67"/>
     <use transform="translate(69.824219 0.015625)" xlink:href="#DejaVuSans-104"/>
     <use transform="translate(133.203125 0.015625)" xlink:href="#DejaVuSans-97"/>
     <use transform="translate(194.482422 0.015625)" xlink:href="#DejaVuSans-114"/>
     <use transform="translate(235.595703 0.015625)" xlink:href="#DejaVuSans-97"/>
     <use transform="translate(296.875 0.015625)" xlink:href="#DejaVuSans-99"/>
     <use transform="translate(351.855469 0.015625)" xlink:href="#DejaVuSans-116"/>
     <use transform="translate(391.064453 0.015625)" xlink:href="#DejaVuSans-101"/>
     <use transform="translate(452.587891 0.015625)" xlink:href="#DejaVuSans-114"/>
     <use transform="translate(494.658203 -16.390625)scale(0.7)" xlink:href="#DejaVuSans-Oblique-116"/>
     <use transform="translate(535.742188 -16.390625)scale(0.7)" xlink:href="#DejaVuSans-8722"/>
     <use transform="translate(608.032227 -16.390625)scale(0.7)" xlink:href="#DejaVuSans-51"/>
    </g>
   </g>
   <g id="text_8">
    <!-- Character$_{t-4}$ -->
    <defs>
     <path d="M 37.796875 64.3125 
L 12.890625 25.390625 
L 37.796875 25.390625 
z
M 35.203125 72.90625 
L 47.609375 72.90625 
L 47.609375 25.390625 
L 58.015625 25.390625 
L 58.015625 17.1875 
L 47.609375 17.1875 
L 47.609375 0 
L 37.796875 0 
L 37.796875 17.1875 
L 4.890625 17.1875 
L 4.890625 26.703125 
z
" id="DejaVuSans-52"/>
    </defs>
    <g transform="translate(137.009231 293.528606)scale(0.1 -0.1)">
     <use transform="translate(0 0.015625)" xlink:href="#DejaVuSans-67"/>
     <use transform="translate(69.824219 0.015625)" xlink:href="#DejaVuSans-104"/>
     <use transform="translate(133.203125 0.015625)" xlink:href="#DejaVuSans-97"/>
     <use transform="translate(194.482422 0.015625)" xlink:href="#DejaVuSans-114"/>
     <use transform="translate(235.595703 0.015625)" xlink:href="#DejaVuSans-97"/>
     <use transform="translate(296.875 0.015625)" xlink:href="#DejaVuSans-99"/>
     <use transform="translate(351.855469 0.015625)" xlink:href="#DejaVuSans-116"/>
     <use transform="translate(391.064453 0.015625)" xlink:href="#DejaVuSans-101"/>
     <use transform="translate(452.587891 0.015625)" xlink:href="#DejaVuSans-114"/>
     <use transform="translate(494.658203 -16.390625)scale(0.7)" xlink:href="#DejaVuSans-Oblique-116"/>
     <use transform="translate(535.742188 -16.390625)scale(0.7)" xlink:href="#DejaVuSans-8722"/>
     <use transform="translate(608.032227 -16.390625)scale(0.7)" xlink:href="#DejaVuSans-52"/>
    </g>
   </g>
   <g id="text_9">
    <!-- Character$_{t-5}$ -->
    <g transform="translate(137.009231 278.076298)scale(0.1 -0.1)">
     <use transform="translate(0 0.015625)" xlink:href="#DejaVuSans-67"/>
     <use transform="translate(69.824219 0.015625)" xlink:href="#DejaVuSans-104"/>
     <use transform="translate(133.203125 0.015625)" xlink:href="#DejaVuSans-97"/>
     <use transform="translate(194.482422 0.015625)" xlink:href="#DejaVuSans-114"/>
     <use transform="translate(235.595703 0.015625)" xlink:href="#DejaVuSans-97"/>
     <use transform="translate(296.875 0.015625)" xlink:href="#DejaVuSans-99"/>
     <use transform="translate(351.855469 0.015625)" xlink:href="#DejaVuSans-116"/>
     <use transform="translate(391.064453 0.015625)" xlink:href="#DejaVuSans-101"/>
     <use transform="translate(452.587891 0.015625)" xlink:href="#DejaVuSans-114"/>
     <use transform="translate(494.658203 -16.390625)scale(0.7)" xlink:href="#DejaVuSans-Oblique-116"/>
     <use transform="translate(535.742188 -16.390625)scale(0.7)" xlink:href="#DejaVuSans-8722"/>
     <use transform="translate(608.032227 -16.390625)scale(0.7)" xlink:href="#DejaVuSans-53"/>
    </g>
   </g>
   <g id="text_10">
    <!-- Character$_{t-6}$ -->
    <defs>
     <path d="M 33.015625 40.375 
Q 26.375 40.375 22.484375 35.828125 
Q 18.609375 31.296875 18.609375 23.390625 
Q 18.609375 15.53125 22.484375 10.953125 
Q 26.375 6.390625 33.015625 6.390625 
Q 39.65625 6.390625 43.53125 10.953125 
Q 47.40625 15.53125 47.40625 23.390625 
Q 47.40625 31.296875 43.53125 35.828125 
Q 39.65625 40.375 33.015625 40.375 
z
M 52.59375 71.296875 
L 52.59375 62.3125 
Q 48.875 64.0625 45.09375 64.984375 
Q 41.3125 65.921875 37.59375 65.921875 
Q 27.828125 65.921875 22.671875 59.328125 
Q 17.53125 52.734375 16.796875 39.40625 
Q 19.671875 43.65625 24.015625 45.921875 
Q 28.375 48.1875 33.59375 48.1875 
Q 44.578125 48.1875 50.953125 41.515625 
Q 57.328125 34.859375 57.328125 23.390625 
Q 57.328125 12.15625 50.6875 5.359375 
Q 44.046875 -1.421875 33.015625 -1.421875 
Q 20.359375 -1.421875 13.671875 8.265625 
Q 6.984375 17.96875 6.984375 36.375 
Q 6.984375 53.65625 15.1875 63.9375 
Q 23.390625 74.21875 37.203125 74.21875 
Q 40.921875 74.21875 44.703125 73.484375 
Q 48.484375 72.75 52.59375 71.296875 
z
" id="DejaVuSans-54"/>
    </defs>
    <g transform="translate(137.009231 262.62399)scale(0.1 -0.1)">
     <use transform="translate(0 0.015625)" xlink:href="#DejaVuSans-67"/>
     <use transform="translate(69.824219 0.015625)" xlink:href="#DejaVuSans-104"/>
     <use transform="translate(133.203125 0.015625)" xlink:href="#DejaVuSans-97"/>
     <use transform="translate(194.482422 0.015625)" xlink:href="#DejaVuSans-114"/>
     <use transform="translate(235.595703 0.015625)" xlink:href="#DejaVuSans-97"/>
     <use transform="translate(296.875 0.015625)" xlink:href="#DejaVuSans-99"/>
     <use transform="translate(351.855469 0.015625)" xlink:href="#DejaVuSans-116"/>
     <use transform="translate(391.064453 0.015625)" xlink:href="#DejaVuSans-101"/>
     <use transform="translate(452.587891 0.015625)" xlink:href="#DejaVuSans-114"/>
     <use transform="translate(494.658203 -16.390625)scale(0.7)" xlink:href="#DejaVuSans-Oblique-116"/>
     <use transform="translate(535.742188 -16.390625)scale(0.7)" xlink:href="#DejaVuSans-8722"/>
     <use transform="translate(608.032227 -16.390625)scale(0.7)" xlink:href="#DejaVuSans-54"/>
    </g>
   </g>
   <g id="text_11">
    <!-- Character$_{t-7}$ -->
    <defs>
     <path d="M 8.203125 72.90625 
L 55.078125 72.90625 
L 55.078125 68.703125 
L 28.609375 0 
L 18.3125 0 
L 43.21875 64.59375 
L 8.203125 64.59375 
z
" id="DejaVuSans-55"/>
    </defs>
    <g transform="translate(137.009231 247.171683)scale(0.1 -0.1)">
     <use transform="translate(0 0.015625)" xlink:href="#DejaVuSans-67"/>
     <use transform="translate(69.824219 0.015625)" xlink:href="#DejaVuSans-104"/>
     <use transform="translate(133.203125 0.015625)" xlink:href="#DejaVuSans-97"/>
     <use transform="translate(194.482422 0.015625)" xlink:href="#DejaVuSans-114"/>
     <use transform="translate(235.595703 0.015625)" xlink:href="#DejaVuSans-97"/>
     <use transform="translate(296.875 0.015625)" xlink:href="#DejaVuSans-99"/>
     <use transform="translate(351.855469 0.015625)" xlink:href="#DejaVuSans-116"/>
     <use transform="translate(391.064453 0.015625)" xlink:href="#DejaVuSans-101"/>
     <use transform="translate(452.587891 0.015625)" xlink:href="#DejaVuSans-114"/>
     <use transform="translate(494.658203 -16.390625)scale(0.7)" xlink:href="#DejaVuSans-Oblique-116"/>
     <use transform="translate(535.742188 -16.390625)scale(0.7)" xlink:href="#DejaVuSans-8722"/>
     <use transform="translate(608.032227 -16.390625)scale(0.7)" xlink:href="#DejaVuSans-55"/>
    </g>
   </g>
   <g id="text_12">
    <!-- Character$_{t-8}$ -->
    <defs>
     <path d="M 31.78125 34.625 
Q 24.75 34.625 20.71875 30.859375 
Q 16.703125 27.09375 16.703125 20.515625 
Q 16.703125 13.921875 20.71875 10.15625 
Q 24.75 6.390625 31.78125 6.390625 
Q 38.8125 6.390625 42.859375 10.171875 
Q 46.921875 13.96875 46.921875 20.515625 
Q 46.921875 27.09375 42.890625 30.859375 
Q 38.875 34.625 31.78125 34.625 
z
M 21.921875 38.8125 
Q 15.578125 40.375 12.03125 44.71875 
Q 8.5 49.078125 8.5 55.328125 
Q 8.5 64.0625 14.71875 69.140625 
Q 20.953125 74.21875 31.78125 74.21875 
Q 42.671875 74.21875 48.875 69.140625 
Q 55.078125 64.0625 55.078125 55.328125 
Q 55.078125 49.078125 51.53125 44.71875 
Q 48 40.375 41.703125 38.8125 
Q 48.828125 37.15625 52.796875 32.3125 
Q 56.78125 27.484375 56.78125 20.515625 
Q 56.78125 9.90625 50.3125 4.234375 
Q 43.84375 -1.421875 31.78125 -1.421875 
Q 19.734375 -1.421875 13.25 4.234375 
Q 6.78125 9.90625 6.78125 20.515625 
Q 6.78125 27.484375 10.78125 32.3125 
Q 14.796875 37.15625 21.921875 38.8125 
z
M 18.3125 54.390625 
Q 18.3125 48.734375 21.84375 45.5625 
Q 25.390625 42.390625 31.78125 42.390625 
Q 38.140625 42.390625 41.71875 45.5625 
Q 45.3125 48.734375 45.3125 54.390625 
Q 45.3125 60.0625 41.71875 63.234375 
Q 38.140625 66.40625 31.78125 66.40625 
Q 25.390625 66.40625 21.84375 63.234375 
Q 18.3125 60.0625 18.3125 54.390625 
z
" id="DejaVuSans-56"/>
    </defs>
    <g transform="translate(137.009231 231.719375)scale(0.1 -0.1)">
     <use transform="translate(0 0.015625)" xlink:href="#DejaVuSans-67"/>
     <use transform="translate(69.824219 0.015625)" xlink:href="#DejaVuSans-104"/>
     <use transform="translate(133.203125 0.015625)" xlink:href="#DejaVuSans-97"/>
     <use transform="translate(194.482422 0.015625)" xlink:href="#DejaVuSans-114"/>
     <use transform="translate(235.595703 0.015625)" xlink:href="#DejaVuSans-97"/>
     <use transform="translate(296.875 0.015625)" xlink:href="#DejaVuSans-99"/>
     <use transform="translate(351.855469 0.015625)" xlink:href="#DejaVuSans-116"/>
     <use transform="translate(391.064453 0.015625)" xlink:href="#DejaVuSans-101"/>
     <use transform="translate(452.587891 0.015625)" xlink:href="#DejaVuSans-114"/>
     <use transform="translate(494.658203 -16.390625)scale(0.7)" xlink:href="#DejaVuSans-Oblique-116"/>
     <use transform="translate(535.742188 -16.390625)scale(0.7)" xlink:href="#DejaVuSans-8722"/>
     <use transform="translate(608.032227 -16.390625)scale(0.7)" xlink:href="#DejaVuSans-56"/>
    </g>
   </g>
   <g id="text_13">
    <!-- Character$_{t-9}$ -->
    <defs>
     <path d="M 10.984375 1.515625 
L 10.984375 10.5 
Q 14.703125 8.734375 18.5 7.8125 
Q 22.3125 6.890625 25.984375 6.890625 
Q 35.75 6.890625 40.890625 13.453125 
Q 46.046875 20.015625 46.78125 33.40625 
Q 43.953125 29.203125 39.59375 26.953125 
Q 35.25 24.703125 29.984375 24.703125 
Q 19.046875 24.703125 12.671875 31.3125 
Q 6.296875 37.9375 6.296875 49.421875 
Q 6.296875 60.640625 12.9375 67.421875 
Q 19.578125 74.21875 30.609375 74.21875 
Q 43.265625 74.21875 49.921875 64.515625 
Q 56.59375 54.828125 56.59375 36.375 
Q 56.59375 19.140625 48.40625 8.859375 
Q 40.234375 -1.421875 26.421875 -1.421875 
Q 22.703125 -1.421875 18.890625 -0.6875 
Q 15.09375 0.046875 10.984375 1.515625 
z
M 30.609375 32.421875 
Q 37.25 32.421875 41.125 36.953125 
Q 45.015625 41.5 45.015625 49.421875 
Q 45.015625 57.28125 41.125 61.84375 
Q 37.25 66.40625 30.609375 66.40625 
Q 23.96875 66.40625 20.09375 61.84375 
Q 16.21875 57.28125 16.21875 49.421875 
Q 16.21875 41.5 20.09375 36.953125 
Q 23.96875 32.421875 30.609375 32.421875 
z
" id="DejaVuSans-57"/>
    </defs>
    <g transform="translate(137.009231 216.267067)scale(0.1 -0.1)">
     <use transform="translate(0 0.015625)" xlink:href="#DejaVuSans-67"/>
     <use transform="translate(69.824219 0.015625)" xlink:href="#DejaVuSans-104"/>
     <use transform="translate(133.203125 0.015625)" xlink:href="#DejaVuSans-97"/>
     <use transform="translate(194.482422 0.015625)" xlink:href="#DejaVuSans-114"/>
     <use transform="translate(235.595703 0.015625)" xlink:href="#DejaVuSans-97"/>
     <use transform="translate(296.875 0.015625)" xlink:href="#DejaVuSans-99"/>
     <use transform="translate(351.855469 0.015625)" xlink:href="#DejaVuSans-116"/>
     <use transform="translate(391.064453 0.015625)" xlink:href="#DejaVuSans-101"/>
     <use transform="translate(452.587891 0.015625)" xlink:href="#DejaVuSans-114"/>
     <use transform="translate(494.658203 -16.390625)scale(0.7)" xlink:href="#DejaVuSans-Oblique-116"/>
     <use transform="translate(535.742188 -16.390625)scale(0.7)" xlink:href="#DejaVuSans-8722"/>
     <use transform="translate(608.032227 -16.390625)scale(0.7)" xlink:href="#DejaVuSans-57"/>
    </g>
   </g>
   <g id="text_14">
    <!-- Encoder -->
    <defs>
     <path d="M 9.8125 72.90625 
L 55.90625 72.90625 
L 55.90625 64.59375 
L 19.671875 64.59375 
L 19.671875 43.015625 
L 54.390625 43.015625 
L 54.390625 34.71875 
L 19.671875 34.71875 
L 19.671875 8.296875 
L 56.78125 8.296875 
L 56.78125 0 
L 9.8125 0 
z
" id="DejaVuSans-69"/>
    </defs>
    <g transform="translate(145.277668 433.15125)scale(0.12 -0.12)">
     <use xlink:href="#DejaVuSans-69"/>
     <use x="63.183594" xlink:href="#DejaVuSans-110"/>
     <use x="126.5625" xlink:href="#DejaVuSans-99"/>
     <use x="181.542969" xlink:href="#DejaVuSans-111"/>
     <use x="242.724609" xlink:href="#DejaVuSans-100"/>
     <use x="306.201172" xlink:href="#DejaVuSans-101"/>
     <use x="367.724609" xlink:href="#DejaVuSans-114"/>
    </g>
   </g>
   <g id="text_15">
    <!-- KNN -->
    <defs>
     <path d="M 9.8125 72.90625 
L 19.671875 72.90625 
L 19.671875 42.09375 
L 52.390625 72.90625 
L 65.09375 72.90625 
L 28.90625 38.921875 
L 67.671875 0 
L 54.6875 0 
L 19.671875 35.109375 
L 19.671875 0 
L 9.8125 0 
z
" id="DejaVuSans-75"/>
    </defs>
    <g transform="translate(653.946274 433.15125)scale(0.12 -0.12)">
     <use xlink:href="#DejaVuSans-75"/>
     <use x="65.576172" xlink:href="#DejaVuSans-78"/>
     <use x="140.380859" xlink:href="#DejaVuSans-78"/>
    </g>
   </g>
   <g id="text_16">
    <!-- Character$_{t+1}$ -->
    <defs>
     <path d="M 46 62.703125 
L 46 35.5 
L 73.1875 35.5 
L 73.1875 27.203125 
L 46 27.203125 
L 46 0 
L 37.796875 0 
L 37.796875 27.203125 
L 10.59375 27.203125 
L 10.59375 35.5 
L 37.796875 35.5 
L 37.796875 62.703125 
z
" id="DejaVuSans-43"/>
    </defs>
    <g transform="translate(634.058462 509.860913)scale(0.1 -0.1)">
     <use transform="translate(0 0.015625)" xlink:href="#DejaVuSans-67"/>
     <use transform="translate(69.824219 0.015625)" xlink:href="#DejaVuSans-104"/>
     <use transform="translate(133.203125 0.015625)" xlink:href="#DejaVuSans-97"/>
     <use transform="translate(194.482422 0.015625)" xlink:href="#DejaVuSans-114"/>
     <use transform="translate(235.595703 0.015625)" xlink:href="#DejaVuSans-97"/>
     <use transform="translate(296.875 0.015625)" xlink:href="#DejaVuSans-99"/>
     <use transform="translate(351.855469 0.015625)" xlink:href="#DejaVuSans-116"/>
     <use transform="translate(391.064453 0.015625)" xlink:href="#DejaVuSans-101"/>
     <use transform="translate(452.587891 0.015625)" xlink:href="#DejaVuSans-114"/>
     <use transform="translate(494.658203 -16.390625)scale(0.7)" xlink:href="#DejaVuSans-Oblique-116"/>
     <use transform="translate(535.742188 -16.390625)scale(0.7)" xlink:href="#DejaVuSans-43"/>
     <use transform="translate(608.032227 -16.390625)scale(0.7)" xlink:href="#DejaVuSans-49"/>
    </g>
   </g>
   <g id="text_17">
    <!-- Spiking Activity -->
    <defs>
     <path d="M 45.40625 27.984375 
Q 45.40625 37.75 41.375 43.109375 
Q 37.359375 48.484375 30.078125 48.484375 
Q 22.859375 48.484375 18.828125 43.109375 
Q 14.796875 37.75 14.796875 27.984375 
Q 14.796875 18.265625 18.828125 12.890625 
Q 22.859375 7.515625 30.078125 7.515625 
Q 37.359375 7.515625 41.375 12.890625 
Q 45.40625 18.265625 45.40625 27.984375 
z
M 54.390625 6.78125 
Q 54.390625 -7.171875 48.1875 -13.984375 
Q 42 -20.796875 29.203125 -20.796875 
Q 24.46875 -20.796875 20.265625 -20.09375 
Q 16.0625 -19.390625 12.109375 -17.921875 
L 12.109375 -9.1875 
Q 16.0625 -11.328125 19.921875 -12.34375 
Q 23.78125 -13.375 27.78125 -13.375 
Q 36.625 -13.375 41.015625 -8.765625 
Q 45.40625 -4.15625 45.40625 5.171875 
L 45.40625 9.625 
Q 42.625 4.78125 38.28125 2.390625 
Q 33.9375 0 27.875 0 
Q 17.828125 0 11.671875 7.65625 
Q 5.515625 15.328125 5.515625 27.984375 
Q 5.515625 40.671875 11.671875 48.328125 
Q 17.828125 56 27.875 56 
Q 33.9375 56 38.28125 53.609375 
Q 42.625 51.21875 45.40625 46.390625 
L 45.40625 54.6875 
L 54.390625 54.6875 
z
" id="DejaVuSans-103"/>
     <path d="M 34.1875 63.1875 
L 20.796875 26.90625 
L 47.609375 26.90625 
z
M 28.609375 72.90625 
L 39.796875 72.90625 
L 67.578125 0 
L 57.328125 0 
L 50.6875 18.703125 
L 17.828125 18.703125 
L 11.1875 0 
L 0.78125 0 
z
" id="DejaVuSans-65"/>
     <path d="M 2.984375 54.6875 
L 12.5 54.6875 
L 29.59375 8.796875 
L 46.6875 54.6875 
L 56.203125 54.6875 
L 35.6875 0 
L 23.484375 0 
z
" id="DejaVuSans-118"/>
     <path d="M 32.171875 -5.078125 
Q 28.375 -14.84375 24.75 -17.8125 
Q 21.140625 -20.796875 15.09375 -20.796875 
L 7.90625 -20.796875 
L 7.90625 -13.28125 
L 13.1875 -13.28125 
Q 16.890625 -13.28125 18.9375 -11.515625 
Q 21 -9.765625 23.484375 -3.21875 
L 25.09375 0.875 
L 2.984375 54.6875 
L 12.5 54.6875 
L 29.59375 11.921875 
L 46.6875 54.6875 
L 56.203125 54.6875 
z
" id="DejaVuSans-121"/>
    </defs>
    <g transform="translate(608.748696 683.119165)scale(0.15 -0.15)">
     <use xlink:href="#DejaVuSans-83"/>
     <use x="63.476562" xlink:href="#DejaVuSans-112"/>
     <use x="126.953125" xlink:href="#DejaVuSans-105"/>
     <use x="154.736328" xlink:href="#DejaVuSans-107"/>
     <use x="212.646484" xlink:href="#DejaVuSans-105"/>
     <use x="240.429688" xlink:href="#DejaVuSans-110"/>
     <use x="303.808594" xlink:href="#DejaVuSans-103"/>
     <use x="367.285156" xlink:href="#DejaVuSans-32"/>
     <use x="399.072266" xlink:href="#DejaVuSans-65"/>
     <use x="467.464844" xlink:href="#DejaVuSans-99"/>
     <use x="522.445312" xlink:href="#DejaVuSans-116"/>
     <use x="561.654297" xlink:href="#DejaVuSans-105"/>
     <use x="589.4375" xlink:href="#DejaVuSans-118"/>
     <use x="648.617188" xlink:href="#DejaVuSans-105"/>
     <use x="676.400391" xlink:href="#DejaVuSans-116"/>
     <use x="715.609375" xlink:href="#DejaVuSans-121"/>
    </g>
    <!-- Classifier -->
    <defs>
     <path d="M 37.109375 75.984375 
L 37.109375 68.5 
L 28.515625 68.5 
Q 23.6875 68.5 21.796875 66.546875 
Q 19.921875 64.59375 19.921875 59.515625 
L 19.921875 54.6875 
L 34.71875 54.6875 
L 34.71875 47.703125 
L 19.921875 47.703125 
L 19.921875 0 
L 10.890625 0 
L 10.890625 47.703125 
L 2.296875 47.703125 
L 2.296875 54.6875 
L 10.890625 54.6875 
L 10.890625 58.5 
Q 10.890625 67.625 15.140625 71.796875 
Q 19.390625 75.984375 28.609375 75.984375 
z
" id="DejaVuSans-102"/>
    </defs>
    <g transform="translate(632.622133 699.915883)scale(0.15 -0.15)">
     <use xlink:href="#DejaVuSans-67"/>
     <use x="69.824219" xlink:href="#DejaVuSans-108"/>
     <use x="97.607422" xlink:href="#DejaVuSans-97"/>
     <use x="158.886719" xlink:href="#DejaVuSans-115"/>
     <use x="210.986328" xlink:href="#DejaVuSans-115"/>
     <use x="263.085938" xlink:href="#DejaVuSans-105"/>
     <use x="290.869141" xlink:href="#DejaVuSans-102"/>
     <use x="326.074219" xlink:href="#DejaVuSans-105"/>
     <use x="353.857422" xlink:href="#DejaVuSans-101"/>
     <use x="415.380859" xlink:href="#DejaVuSans-114"/>
    </g>
   </g>
   <g id="patch_72">
    <path clip-path="url(#p53bc899bdd)" d="M 262.523077 651.323077 
C 266.621077 651.323077 270.551785 649.694924 273.449508 646.797201 
C 276.347232 643.899477 277.975385 639.968769 277.975385 635.870769 
C 277.975385 631.772769 276.347232 627.842061 273.449508 624.944338 
C 270.551785 622.046614 266.621077 620.418462 262.523077 620.418462 
C 258.425077 620.418462 254.494369 622.046614 251.596645 624.944338 
C 248.698922 627.842061 247.070769 631.772769 247.070769 635.870769 
C 247.070769 639.968769 248.698922 643.899477 251.596645 646.797201 
C 254.494369 649.694924 258.425077 651.323077 262.523077 651.323077 
z
" style="fill:#ffffff;stroke:#000000;stroke-linejoin:miter;"/>
   </g>
   <g id="patch_73">
    <path clip-path="url(#p53bc899bdd)" d="M 262.523077 604.966154 
C 266.621077 604.966154 270.551785 603.338001 273.449508 600.440278 
C 276.347232 597.542554 277.975385 593.611846 277.975385 589.513846 
C 277.975385 585.415846 276.347232 581.485138 273.449508 578.587415 
C 270.551785 575.689691 266.621077 574.061538 262.523077 574.061538 
C 258.425077 574.061538 254.494369 575.689691 251.596645 578.587415 
C 248.698922 581.485138 247.070769 585.415846 247.070769 589.513846 
C 247.070769 593.611846 248.698922 597.542554 251.596645 600.440278 
C 254.494369 603.338001 258.425077 604.966154 262.523077 604.966154 
z
" style="fill:#ffffff;stroke:#000000;stroke-linejoin:miter;"/>
   </g>
   <g id="patch_74">
    <path clip-path="url(#p53bc899bdd)" d="M 262.523077 558.609231 
C 266.621077 558.609231 270.551785 556.981078 273.449508 554.083355 
C 276.347232 551.185631 277.975385 547.254923 277.975385 543.156923 
C 277.975385 539.058923 276.347232 535.128215 273.449508 532.230492 
C 270.551785 529.332768 266.621077 527.704615 262.523077 527.704615 
C 258.425077 527.704615 254.494369 529.332768 251.596645 532.230492 
C 248.698922 535.128215 247.070769 539.058923 247.070769 543.156923 
C 247.070769 547.254923 248.698922 551.185631 251.596645 554.083355 
C 254.494369 556.981078 258.425077 558.609231 262.523077 558.609231 
z
" style="fill:#ffffff;stroke:#000000;stroke-linejoin:miter;"/>
   </g>
   <g id="patch_75">
    <path clip-path="url(#p53bc899bdd)" d="M 262.523077 512.252308 
C 266.621077 512.252308 270.551785 510.624155 273.449508 507.726432 
C 276.347232 504.828708 277.975385 500.898 277.975385 496.8 
C 277.975385 492.702 276.347232 488.771292 273.449508 485.873568 
C 270.551785 482.975845 266.621077 481.347692 262.523077 481.347692 
C 258.425077 481.347692 254.494369 482.975845 251.596645 485.873568 
C 248.698922 488.771292 247.070769 492.702 247.070769 496.8 
C 247.070769 500.898 248.698922 504.828708 251.596645 507.726432 
C 254.494369 510.624155 258.425077 512.252308 262.523077 512.252308 
z
" style="fill:#ffffff;stroke:#000000;stroke-linejoin:miter;"/>
   </g>
   <g id="patch_76">
    <path clip-path="url(#p53bc899bdd)" d="M 262.523077 465.895385 
C 266.621077 465.895385 270.551785 464.267232 273.449508 461.369508 
C 276.347232 458.471785 277.975385 454.541077 277.975385 450.443077 
C 277.975385 446.345077 276.347232 442.414369 273.449508 439.516645 
C 270.551785 436.618922 266.621077 434.990769 262.523077 434.990769 
C 258.425077 434.990769 254.494369 436.618922 251.596645 439.516645 
C 248.698922 442.414369 247.070769 446.345077 247.070769 450.443077 
C 247.070769 454.541077 248.698922 458.471785 251.596645 461.369508 
C 254.494369 464.267232 258.425077 465.895385 262.523077 465.895385 
z
" style="fill:#ffffff;stroke:#000000;stroke-linejoin:miter;"/>
   </g>
   <g id="patch_77">
    <path clip-path="url(#p53bc899bdd)" d="M 262.523077 419.538462 
C 266.621077 419.538462 270.551785 417.910309 273.449508 415.012585 
C 276.347232 412.114862 277.975385 408.184154 277.975385 404.086154 
C 277.975385 399.988154 276.347232 396.057446 273.449508 393.159722 
C 270.551785 390.261999 266.621077 388.633846 262.523077 388.633846 
C 258.425077 388.633846 254.494369 390.261999 251.596645 393.159722 
C 248.698922 396.057446 247.070769 399.988154 247.070769 404.086154 
C 247.070769 408.184154 248.698922 412.114862 251.596645 415.012585 
C 254.494369 417.910309 258.425077 419.538462 262.523077 419.538462 
z
" style="fill:#ffffff;stroke:#000000;stroke-linejoin:miter;"/>
   </g>
   <g id="patch_78">
    <path clip-path="url(#p53bc899bdd)" d="M 262.523077 373.181538 
C 266.621077 373.181538 270.551785 371.553386 273.449508 368.655662 
C 276.347232 365.757939 277.975385 361.827231 277.975385 357.729231 
C 277.975385 353.631231 276.347232 349.700523 273.449508 346.802799 
C 270.551785 343.905076 266.621077 342.276923 262.523077 342.276923 
C 258.425077 342.276923 254.494369 343.905076 251.596645 346.802799 
C 248.698922 349.700523 247.070769 353.631231 247.070769 357.729231 
C 247.070769 361.827231 248.698922 365.757939 251.596645 368.655662 
C 254.494369 371.553386 258.425077 373.181538 262.523077 373.181538 
z
" style="fill:#ffffff;stroke:#000000;stroke-linejoin:miter;"/>
   </g>
   <g id="patch_79">
    <path clip-path="url(#p53bc899bdd)" d="M 262.523077 326.824615 
C 266.621077 326.824615 270.551785 325.196463 273.449508 322.298739 
C 276.347232 319.401016 277.975385 315.470308 277.975385 311.372308 
C 277.975385 307.274308 276.347232 303.3436 273.449508 300.445876 
C 270.551785 297.548153 266.621077 295.92 262.523077 295.92 
C 258.425077 295.92 254.494369 297.548153 251.596645 300.445876 
C 248.698922 303.3436 247.070769 307.274308 247.070769 311.372308 
C 247.070769 315.470308 248.698922 319.401016 251.596645 322.298739 
C 254.494369 325.196463 258.425077 326.824615 262.523077 326.824615 
z
" style="fill:#ffffff;stroke:#000000;stroke-linejoin:miter;"/>
   </g>
   <g id="patch_80">
    <path clip-path="url(#p53bc899bdd)" d="M 262.523077 280.467692 
C 266.621077 280.467692 270.551785 278.83954 273.449508 275.941816 
C 276.347232 273.044093 277.975385 269.113385 277.975385 265.015385 
C 277.975385 260.917385 276.347232 256.986677 273.449508 254.088953 
C 270.551785 251.19123 266.621077 249.563077 262.523077 249.563077 
C 258.425077 249.563077 254.494369 251.19123 251.596645 254.088953 
C 248.698922 256.986677 247.070769 260.917385 247.070769 265.015385 
C 247.070769 269.113385 248.698922 273.044093 251.596645 275.941816 
C 254.494369 278.83954 258.425077 280.467692 262.523077 280.467692 
z
" style="fill:#ffffff;stroke:#000000;stroke-linejoin:miter;"/>
   </g>
   <g id="patch_81">
    <path clip-path="url(#p53bc899bdd)" d="M 262.523077 234.110769 
C 266.621077 234.110769 270.551785 232.482617 273.449508 229.584893 
C 276.347232 226.68717 277.975385 222.756461 277.975385 218.658462 
C 277.975385 214.560462 276.347232 210.629754 273.449508 207.73203 
C 270.551785 204.834306 266.621077 203.206154 262.523077 203.206154 
C 258.425077 203.206154 254.494369 204.834306 251.596645 207.73203 
C 248.698922 210.629754 247.070769 214.560462 247.070769 218.658462 
C 247.070769 222.756461 248.698922 226.68717 251.596645 229.584893 
C 254.494369 232.482617 258.425077 234.110769 262.523077 234.110769 
z
" style="fill:#ffffff;stroke:#000000;stroke-linejoin:miter;"/>
   </g>
  </g>
 </g>
 <defs>
  <clipPath id="p53bc899bdd">
   <rect height="515.076923" width="669.6" x="108" y="172.301538"/>
  </clipPath>
 </defs>
</svg>
