<?xml version="1.0" encoding="utf-8"?>
<!-- Generator: Adobe Illustrator 22.1.0, SVG Export Plug-In . SVG Version: 6.00 Build 0)  -->
<svg version="1.1" id="Layer_1" xmlns="http://www.w3.org/2000/svg" xmlns:xlink="http://www.w3.org/1999/xlink" x="0px" y="0px"
	 viewBox="0 0 660 360" style="enable-background:new 0 0 660 360;" xml:space="preserve">
<style type="text/css">
	.st0{fill:#F2F2F2;stroke:#000000;stroke-width:0.25;stroke-miterlimit:10;}
	.st1{fill:none;stroke:#000000;stroke-width:0.25;stroke-miterlimit:10;}
	.st2{opacity:0.25;fill:#E6E6E6;stroke:#000000;stroke-width:0.25;stroke-miterlimit:10;}
	.st3{font-family:'MyriadPro-Regular';}
	.st4{font-size:12px;}
	.st5{opacity:5.000000e-02;fill:#F2F2F2;stroke:#000000;stroke-width:0.25;stroke-miterlimit:10;}
	.st6{opacity:0.1;fill:#F2F2F2;stroke:#000000;stroke-width:0.25;stroke-miterlimit:10;}
	.st7{opacity:0.2;fill:#F2F2F2;stroke:#000000;stroke-width:0.25;stroke-miterlimit:10;}
	.st8{opacity:0.4;fill:#F2F2F2;stroke:#000000;stroke-width:0.25;stroke-miterlimit:10;}
	.st9{opacity:0.55;fill:#F2F2F2;stroke:#000000;stroke-width:0.25;stroke-miterlimit:10;}
	.st10{opacity:1.000000e-02;fill:#F2F2F2;stroke:#000000;stroke-width:0.25;stroke-miterlimit:10;}
	.st11{fill:none;stroke:#FF0000;stroke-width:0.2;stroke-miterlimit:10;}
	.st12{opacity:0.25;fill:#00FF00;stroke:#FF0000;stroke-width:0.2;stroke-miterlimit:10;}
	.st13{fill:#00FF00;stroke:#FF0000;stroke-width:0.2;stroke-miterlimit:10;}
	.st14{fill:none;stroke:#000000;stroke-width:0.5;stroke-miterlimit:10;}
	.st15{font-size:10px;}
	.st16{font-size:6px;}
	.st17{opacity:0.55;}
	.st18{opacity:0.4;}
	.st19{opacity:0.2;}
	.st20{opacity:0.1;}
	.st21{opacity:5.000000e-02;}
</style>
<rect x="442.9" y="75.2" class="st0" width="5.1" height="104.7"/>
<g>
	<path class="st1" d="M95.9,217.6c85,0,85,0,85,0"/>
	<path class="st1" d="M110.9,207.6c85,0,85,0,85,0"/>
	<path class="st1" d="M125.9,197.6c85,0,85,0,85,0"/>
	<path class="st1" d="M140.9,187.6c85,0,85,0,85,0"/>
	<path class="st1" d="M155.9,177.6c85,0,85,0,85,0"/>
	<path class="st1" d="M170.9,167.6c85,0,85,0,85,0"/>
	<path class="st1" d="M185.9,157.6c85,0,85,0,85,0"/>
	<path class="st1" d="M200.9,147.6c85,0,85,0,85,0"/>
	<path class="st1" d="M215.9,137.6c85,0,85,0,85,0"/>
	<path class="st1" d="M230.9,127.6c85,0,85,0,85,0"/>
</g>
<polygon class="st2" points="318.4,90.2 442.9,75.2 442.9,179.9 318.4,164.9 "/>
<rect x="313.3" y="90.2" class="st0" width="5.1" height="74.7"/>
<polygon class="st2" points="303.4,100.2 427.9,85.2 427.9,189.9 303.4,174.9 "/>
<rect x="298.3" y="100.2" class="st0" width="5.1" height="74.7"/>
<polygon class="st2" points="288.4,110.2 412.9,95.2 412.9,199.9 288.4,184.9 "/>
<rect x="283.3" y="110.2" class="st0" width="5.1" height="74.7"/>
<rect x="268.3" y="120.2" class="st0" width="5.1" height="74.7"/>
<polygon class="st2" points="258.4,130.2 382.9,115.2 382.9,219.9 258.4,204.9 "/>
<rect x="253.3" y="130.2" class="st0" width="5.1" height="74.7"/>
<polygon class="st2" points="243.6,140.2 368.1,125.2 368.1,229.9 243.6,214.9 "/>
<rect x="238.3" y="140.2" class="st0" width="5.1" height="74.7"/>
<polygon class="st2" points="228.6,151 353.1,136 353.1,240.8 228.6,225.8 "/>
<rect x="223.3" y="151" class="st0" width="5.1" height="74.7"/>
<polygon class="st2" points="213.6,160.2 338.1,145.2 338.1,249.9 213.6,234.9 "/>
<rect x="208.3" y="160.2" class="st0" width="5.1" height="74.7"/>
<polygon class="st2" points="198.4,170.2 322.9,155.2 322.9,259.9 198.4,244.9 "/>
<rect x="193.3" y="170.2" class="st0" width="5.1" height="74.7"/>
<rect x="178.3" y="180.2" class="st0" width="5.1" height="74.7"/>
<polygon class="st2" points="273.6,120.2 398.1,105.2 398.1,209.9 273.6,194.9 "/>
<polygon class="st2" points="183.4,180.2 307.9,165.2 307.9,269.9 183.4,254.9 "/>
<text transform="matrix(1 0 0 1 294.6392 59.4893)" class="st3 st4">CSNN Network Model</text>
<g>
	<circle class="st0" cx="215.9" cy="137.6" r="5"/>
	<circle class="st0" cx="200.9" cy="147.6" r="5"/>
	<circle class="st0" cx="185.9" cy="157.6" r="5"/>
	<circle class="st0" cx="170.9" cy="167.6" r="5"/>
	<circle class="st0" cx="155.9" cy="177.6" r="5"/>
	<circle class="st0" cx="140.9" cy="187.6" r="5"/>
	<circle class="st0" cx="125.9" cy="197.6" r="5"/>
	<circle class="st0" cx="110.9" cy="207.6" r="5"/>
	<circle class="st0" cx="95.9" cy="217.6" r="5"/>
	<circle class="st0" cx="230.9" cy="127.6" r="5"/>
</g>
<circle class="st5" cx="305.9" cy="77.6" r="5"/>
<circle class="st6" cx="290.9" cy="87.6" r="5"/>
<circle class="st7" cx="275.9" cy="97.6" r="5"/>
<circle class="st8" cx="260.9" cy="107.6" r="5"/>
<circle class="st9" cx="245.9" cy="117.6" r="5"/>
<circle class="st10" cx="320.9" cy="67.6" r="5"/>
<path class="st0" d="M180.9,217.6"/>
<rect x="427.9" y="85.2" class="st0" width="5.1" height="104.7"/>
<rect x="413.4" y="95.2" class="st0" width="5.1" height="104.7"/>
<rect x="397.9" y="105.2" class="st0" width="5.1" height="104.7"/>
<rect x="382.9" y="115.2" class="st0" width="5.1" height="104.7"/>
<rect x="367.9" y="125.2" class="st0" width="5.1" height="104.7"/>
<rect x="352.9" y="135.2" class="st0" width="5.1" height="104.7"/>
<rect x="338.4" y="145.2" class="st0" width="5.1" height="104.7"/>
<rect x="322.9" y="155.2" class="st0" width="5.1" height="104.7"/>
<rect x="307.9" y="165.2" class="st0" width="5.1" height="104.7"/>
<path class="st0" d="M310.5,217.6"/>
<path class="st11" d="M433,189.9"/>
<path class="st12" d="M310.5,217.6c0,0,18.7-26.5,17.5-62.4v104.7C328,259.9,324.9,241,310.5,217.6z"/>
<path class="st13" d="M491.7,67.6"/>
<path class="st12" d="M310.5,217.6c0,0,33.1-31.4,33-72.4v104.7C343.4,249.9,343,236.9,310.5,217.6z"/>
<path class="st12" d="M310.5,217.6c0,0,47.2-39.1,47.5-82.4v104.7C358,239.9,359.3,227.7,310.5,217.6z"/>
<path class="st12" d="M310.5,217.6c0,0,63-27.1,62.5-92.4v104.7C373,229.9,368.9,220.5,310.5,217.6z"/>
<path class="st12" d="M310.5,217.6c0,0,77.5-30.4,77.5-102.4v104.7C388,219.9,395.7,210.4,310.5,217.6z"/>
<path class="st12" d="M310.5,217.6c0,0,92.7-34.2,92.5-112.4v104.7C403,209.9,404.8,198.7,310.5,217.6z"/>
<path class="st12" d="M310.5,217.6c0,0,107.5-39.2,108-122.4v104.7C418.4,199.9,416.6,194.1,310.5,217.6z"/>
<path class="st12" d="M310.5,217.6c0,0,122.4-42,122.5-132.4v104.7C433,189.9,437.6,182.7,310.5,217.6z"/>
<path class="st12" d="M310.5,217.6c0,0,142-49.4,137.5-142.4v104.7C448,179.9,455.1,173.7,310.5,217.6z"/>
<polygon class="st14" points="447.1,188 462.6,188 462.6,185.1 471.1,189.8 462.6,194.8 462.6,191.5 447.1,191.5 "/>
<rect x="485.1" y="181.7" class="st14" width="34.8" height="16.5"/>
<text transform="matrix(1 0 0 1 493.4987 193.8566)" class="st3 st15">KNN</text>
<text id="Input_Encoding_10_x__x_25" transform="matrix(1 0 0 1 113.1607 285.5234)"><tspan x="0" y="0" class="st3 st15">10 Input with</tspan><tspan x="-4.6" y="12" class="st3 st15">25 Dimensional</tspan><tspan x="8" y="24" class="st3 st15">Encoding</tspan></text>
<text id="Input_Encoding_10_x__x_25_1_" transform="matrix(1 0 0 1 271.179 285.5236)"><tspan x="0" y="0" class="st3 st15">10 Columns</tspan><tspan x="-14.1" y="12" class="st3 st15">of 100 LIF Neurons</tspan></text>
<text id="Input_Encoding_10_x__x_25_2_" transform="matrix(1 0 0 1 431.0594 285.5231)"><tspan x="0" y="0" class="st3 st15">Spiking Activity</tspan><tspan x="14" y="12" class="st3 st15">Classifier</tspan></text>
<text transform="matrix(1 0 0 1 54.6558 217.9455)" class="st3 st16">Character</text>
<text transform="matrix(0.583 0 0 0.583 78.8535 219.9436)" class="st3 st16">t</text>
<text transform="matrix(1 0 0 1 68.2217 207.9455)" class="st3 st16">Character</text>
<text transform="matrix(0.583 0 0 0.583 92.4194 209.9436)" class="st3 st16">t-1</text>
<text transform="matrix(1 0 0 1 83.2217 197.9463)" class="st3 st16">Character</text>
<text transform="matrix(0.583 0 0 0.583 107.4194 199.9443)" class="st3 st16">t-2</text>
<text transform="matrix(1 0 0 1 98.2217 187.946)" class="st3 st16">Character</text>
<text transform="matrix(0.583 0 0 0.583 122.4194 189.9441)" class="st3 st16">t-3</text>
<text transform="matrix(1 0 0 1 113.2217 177.9458)" class="st3 st16">Character</text>
<text transform="matrix(0.583 0 0 0.583 137.4194 179.9438)" class="st3 st16">t-4</text>
<text transform="matrix(1 0 0 1 128.2217 167.9465)" class="st3 st16">Character</text>
<text transform="matrix(0.583 0 0 0.583 152.4194 169.9445)" class="st3 st16">t-5</text>
<text transform="matrix(1 0 0 1 143.2217 158.2082)" class="st3 st16">Character</text>
<text transform="matrix(0.583 0 0 0.583 167.4194 160.2063)" class="st3 st16">t-6</text>
<text transform="matrix(1 0 0 1 158.2217 148.209)" class="st3 st16">Character</text>
<text transform="matrix(0.583 0 0 0.583 182.4194 150.207)" class="st3 st16">t-7</text>
<text transform="matrix(1 0 0 1 173.2217 138.2087)" class="st3 st16">Character</text>
<text transform="matrix(0.583 0 0 0.583 197.4194 140.2068)" class="st3 st16">t-8</text>
<text transform="matrix(1 0 0 1 188.2217 128.2085)" class="st3 st16">Character</text>
<text transform="matrix(0.583 0 0 0.583 212.4194 130.2065)" class="st3 st16">t-9</text>
<g class="st17">
	<text transform="matrix(1 0 0 1 203.3242 117.5773)" class="st3 st16">Character</text>
	<text transform="matrix(0.583 0 0 0.583 227.522 119.5753)" class="st3 st16">t-10</text>
</g>
<g class="st18">
	<text transform="matrix(1 0 0 1 218.3242 107.3937)" class="st3 st16">Character</text>
	<text transform="matrix(0.583 0 0 0.583 242.522 109.3917)" class="st3 st16">t-11</text>
</g>
<g class="st19">
	<text transform="matrix(1 0 0 1 233.3242 97.3934)" class="st3 st16">Character</text>
	<text transform="matrix(0.583 0 0 0.583 257.522 99.3915)" class="st3 st16">t-12</text>
</g>
<g class="st20">
	<text transform="matrix(1 0 0 1 248.3242 87.7622)" class="st3 st16">Character</text>
	<text transform="matrix(0.583 0 0 0.583 272.522 89.7602)" class="st3 st16">t-13</text>
</g>
<g class="st21">
	<text transform="matrix(1 0 0 1 263.3242 77.7619)" class="st3 st16">Character</text>
	<text transform="matrix(0.583 0 0 0.583 287.522 79.76)" class="st3 st16">t-14</text>
</g>
<text transform="matrix(1 0 0 1 563.383 191.6122)" class="st3 st16">Character</text>
<text transform="matrix(0.583 0 0 0.583 587.5807 193.6103)" class="st3 st16">t+1</text>
<polygon class="st14" points="531.2,188 546.7,188 546.7,185.1 555.2,189.8 546.7,194.8 546.7,191.5 531.2,191.5 "/>
</svg>
