<?xml version="1.0" encoding="utf-8" standalone="no"?>
<!DOCTYPE svg PUBLIC "-//W3C//DTD SVG 1.1//EN"
  "http://www.w3.org/Graphics/SVG/1.1/DTD/svg11.dtd">
<!-- Created with matplotlib (https://matplotlib.org/) -->
<svg height="864pt" version="1.1" viewBox="0 0 864 864" width="864pt" xmlns="http://www.w3.org/2000/svg" xmlns:xlink="http://www.w3.org/1999/xlink">
 <defs>
  <style type="text/css">
*{stroke-linecap:butt;stroke-linejoin:round;}
  </style>
 </defs>
 <g id="figure_1">
  <g id="patch_1">
   <path d="M 0 864 
L 864 864 
L 864 0 
L 0 0 
z
" style="fill:#ffffff;"/>
  </g>
  <g id="axes_1">
   <g id="patch_2">
    <path clip-path="url(#p93eba4d3d0)" d="M 494.307692 635.870769 
Q 494.307692 635.870769 494.307692 635.870769 
L 494.307692 635.870769 
Q 494.307692 635.870769 494.307692 635.870769 
Q 494.307692 635.870769 494.307692 635.870769 
L 494.307692 635.870769 
Q 494.307692 635.870769 494.307692 635.870769 
L 494.307692 635.870769 
z
" style="fill-opacity:0.4;stroke:#000000;stroke-linecap:round;stroke-opacity:0.4;"/>
   </g>
   <g id="patch_3">
    <path clip-path="url(#p93eba4d3d0)" d="M 495.449654 634.229369 
Q 511.353426 612.89377 495.747481 591.558566 
L 495.626412 591.647124 
Q 495.580453 591.37256 495.530348 591.096176 
Q 495.780896 591.223144 496.029974 591.351933 
L 495.908906 591.44049 
Q 511.602041 612.894892 495.610007 634.348898 
L 495.449654 634.229369 
z
" style="fill-opacity:0.4;stroke:#000000;stroke-linecap:round;stroke-opacity:0.4;"/>
   </g>
   <g id="patch_4">
    <path clip-path="url(#p93eba4d3d0)" d="M 495.463547 634.239298 
Q 529.878432 589.712363 495.769209 545.185631 
L 495.650132 545.276849 
Q 495.597877 545.003081 495.543611 544.728459 
Q 495.795683 544.850198 496.047056 544.97279 
L 495.927979 545.064008 
Q 530.130787 589.712907 495.621791 634.361604 
L 495.463547 634.239298 
z
" style="fill-opacity:0.4;stroke:#000000;stroke-linecap:round;stroke-opacity:0.4;"/>
   </g>
   <g id="patch_5">
    <path clip-path="url(#p93eba4d3d0)" d="M 495.469327 634.240974 
Q 548.414242 566.532843 495.777343 498.824847 
L 495.658919 498.916911 
Q 495.603829 498.642384 495.5474 498.367298 
Q 495.800766 498.488385 496.053666 498.610031 
L 495.935242 498.702095 
Q 548.667848 566.533202 495.626878 634.364172 
L 495.469327 634.240974 
z
" style="fill-opacity:0.4;stroke:#000000;stroke-linecap:round;stroke-opacity:0.4;"/>
   </g>
   <g id="patch_6">
    <path clip-path="url(#p93eba4d3d0)" d="M 495.470256 634.24429 
Q 566.954824 543.354707 495.780774 452.465226 
L 495.662675 452.557707 
Q 495.607687 452.284743 495.551713 452.011367 
Q 495.804195 452.130196 496.056337 452.249437 
L 495.938238 452.341918 
Q 567.20906 543.354975 495.627459 634.36793 
L 495.470256 634.24429 
z
" style="fill-opacity:0.4;stroke:#000000;stroke-linecap:round;stroke-opacity:0.4;"/>
   </g>
   <g id="patch_7">
    <path clip-path="url(#p93eba4d3d0)" d="M 495.474145 634.242037 
Q 585.495116 520.173701 495.781843 406.105446 
L 495.663939 406.198176 
Q 495.607283 405.923938 495.549831 405.64937 
Q 495.803529 405.769058 496.056951 405.889077 
L 495.939047 405.981806 
Q 585.749728 520.173913 495.631144 634.365938 
L 495.474145 634.242037 
z
" style="fill-opacity:0.4;stroke:#000000;stroke-linecap:round;stroke-opacity:0.4;"/>
   </g>
   <g id="patch_8">
    <path clip-path="url(#p93eba4d3d0)" d="M 495.473389 634.244779 
Q 604.037709 496.995916 495.782941 359.74712 
L 495.665167 359.840014 
Q 495.608682 359.566558 495.551539 359.292829 
Q 495.804757 359.411462 496.057746 359.530368 
L 495.939973 359.623262 
Q 604.292574 496.996093 495.630249 634.368856 
L 495.473389 634.244779 
z
" style="fill-opacity:0.4;stroke:#000000;stroke-linecap:round;stroke-opacity:0.4;"/>
   </g>
   <g id="patch_9">
    <path clip-path="url(#p93eba4d3d0)" d="M 495.476964 634.241535 
Q 622.578517 473.815064 495.783291 313.388651 
L 495.665609 313.481662 
Q 495.60971 313.209348 495.553253 312.936802 
Q 495.805663 313.054098 496.057881 313.171625 
L 495.940199 313.264636 
Q 622.833561 473.815214 495.633727 634.365734 
L 495.476964 634.241535 
z
" style="fill-opacity:0.4;stroke:#000000;stroke-linecap:round;stroke-opacity:0.4;"/>
   </g>
   <g id="patch_10">
    <path clip-path="url(#p93eba4d3d0)" d="M 495.475794 634.243963 
Q 641.121522 450.637513 495.78398 267.031112 
L 495.666368 267.124211 
Q 495.610114 266.851746 495.553372 266.579077 
Q 495.805974 266.696379 496.058409 266.813883 
L 495.940797 266.906981 
Q 641.376701 450.637644 495.632483 634.368256 
L 495.475794 634.243963 
z
" style="fill-opacity:0.4;stroke:#000000;stroke-linecap:round;stroke-opacity:0.4;"/>
   </g>
   <g id="patch_11">
    <path clip-path="url(#p93eba4d3d0)" d="M 495.475006 634.245695 
Q 659.664881 427.459093 495.783585 220.672536 
L 495.666026 220.765703 
Q 495.610083 220.493861 495.553709 220.22184 
Q 495.805872 220.338404 496.057888 220.455147 
L 495.940329 220.548314 
Q 659.920166 427.45921 495.631637 634.370061 
L 495.475006 634.245695 
z
" style="fill-opacity:0.4;stroke:#000000;stroke-linecap:round;stroke-opacity:0.4;"/>
   </g>
   <g id="patch_12">
    <path clip-path="url(#p93eba4d3d0)" d="M 494.307692 589.513846 
Q 494.307692 589.513846 494.307692 589.513846 
L 494.307692 589.513846 
Q 494.307692 589.513846 494.307692 589.513846 
Q 494.307692 589.513846 494.307692 589.513846 
L 494.307692 589.513846 
Q 494.307692 589.513846 494.307692 589.513846 
L 494.307692 589.513846 
z
" style="fill-opacity:0.4;stroke:#000000;stroke-linecap:round;stroke-opacity:0.4;"/>
   </g>
   <g id="patch_13">
    <path clip-path="url(#p93eba4d3d0)" d="M 495.449654 587.872446 
Q 511.353426 566.536847 495.747481 545.201643 
L 495.626412 545.290201 
Q 495.580453 545.015637 495.530348 544.739253 
Q 495.780896 544.866221 496.029974 544.995009 
L 495.908906 545.083567 
Q 511.602041 566.537969 495.610007 587.991975 
L 495.449654 587.872446 
z
" style="fill-opacity:0.4;stroke:#000000;stroke-linecap:round;stroke-opacity:0.4;"/>
   </g>
   <g id="patch_14">
    <path clip-path="url(#p93eba4d3d0)" d="M 495.463547 587.882375 
Q 529.878432 543.35544 495.769209 498.828708 
L 495.650132 498.919926 
Q 495.597877 498.646158 495.543611 498.371536 
Q 495.795683 498.493275 496.047056 498.615867 
L 495.927979 498.707085 
Q 530.130787 543.355984 495.621791 588.004681 
L 495.463547 587.882375 
z
" style="fill-opacity:0.4;stroke:#000000;stroke-linecap:round;stroke-opacity:0.4;"/>
   </g>
   <g id="patch_15">
    <path clip-path="url(#p93eba4d3d0)" d="M 495.469327 587.884051 
Q 548.414242 520.17592 495.777343 452.467924 
L 495.658919 452.559988 
Q 495.603829 452.285461 495.5474 452.010375 
Q 495.800766 452.131462 496.053666 452.253108 
L 495.935242 452.345172 
Q 548.667848 520.176279 495.626878 588.007249 
L 495.469327 587.884051 
z
" style="fill-opacity:0.4;stroke:#000000;stroke-linecap:round;stroke-opacity:0.4;"/>
   </g>
   <g id="patch_16">
    <path clip-path="url(#p93eba4d3d0)" d="M 495.470256 587.887367 
Q 566.954824 496.997783 495.780774 406.108303 
L 495.662675 406.200784 
Q 495.607687 405.92782 495.551713 405.654444 
Q 495.804195 405.773272 496.056337 405.892514 
L 495.938238 405.984995 
Q 567.20906 496.998052 495.627459 588.011007 
L 495.470256 587.887367 
z
" style="fill-opacity:0.4;stroke:#000000;stroke-linecap:round;stroke-opacity:0.4;"/>
   </g>
   <g id="patch_17">
    <path clip-path="url(#p93eba4d3d0)" d="M 495.474145 587.885114 
Q 585.495116 473.816778 495.781843 359.748523 
L 495.663939 359.841252 
Q 495.607283 359.567015 495.549831 359.292447 
Q 495.803529 359.412135 496.056951 359.532154 
L 495.939047 359.624883 
Q 585.749728 473.81699 495.631144 588.009015 
L 495.474145 587.885114 
z
" style="fill-opacity:0.4;stroke:#000000;stroke-linecap:round;stroke-opacity:0.4;"/>
   </g>
   <g id="patch_18">
    <path clip-path="url(#p93eba4d3d0)" d="M 495.473389 587.887856 
Q 604.037709 450.638993 495.782941 313.390197 
L 495.665167 313.483091 
Q 495.608682 313.209635 495.551539 312.935906 
Q 495.804757 313.054539 496.057746 313.173444 
L 495.939973 313.266338 
Q 604.292574 450.639169 495.630249 588.011932 
L 495.473389 587.887856 
z
" style="fill-opacity:0.4;stroke:#000000;stroke-linecap:round;stroke-opacity:0.4;"/>
   </g>
   <g id="patch_19">
    <path clip-path="url(#p93eba4d3d0)" d="M 495.476964 587.884612 
Q 622.578517 427.458141 495.783291 267.031728 
L 495.665609 267.124739 
Q 495.60971 266.852425 495.553253 266.579879 
Q 495.805663 266.697174 496.057881 266.814702 
L 495.940199 266.907713 
Q 622.833561 427.458291 495.633727 588.008811 
L 495.476964 587.884612 
z
" style="fill-opacity:0.4;stroke:#000000;stroke-linecap:round;stroke-opacity:0.4;"/>
   </g>
   <g id="patch_20">
    <path clip-path="url(#p93eba4d3d0)" d="M 495.475794 587.88704 
Q 641.121522 404.28059 495.78398 220.674189 
L 495.666368 220.767288 
Q 495.610114 220.494823 495.553372 220.222154 
Q 495.805974 220.339456 496.058409 220.456959 
L 495.940797 220.550058 
Q 641.376701 404.280721 495.632483 588.011333 
L 495.475794 587.88704 
z
" style="fill-opacity:0.4;stroke:#000000;stroke-linecap:round;stroke-opacity:0.4;"/>
   </g>
   <g id="patch_21">
    <path clip-path="url(#p93eba4d3d0)" d="M 494.307692 543.156923 
Q 494.307692 543.156923 494.307692 543.156923 
L 494.307692 543.156923 
Q 494.307692 543.156923 494.307692 543.156923 
Q 494.307692 543.156923 494.307692 543.156923 
L 494.307692 543.156923 
Q 494.307692 543.156923 494.307692 543.156923 
L 494.307692 543.156923 
z
" style="fill-opacity:0.4;stroke:#000000;stroke-linecap:round;stroke-opacity:0.4;"/>
   </g>
   <g id="patch_22">
    <path clip-path="url(#p93eba4d3d0)" d="M 495.449654 541.515523 
Q 511.353426 520.179924 495.747481 498.84472 
L 495.626412 498.933278 
Q 495.580453 498.658714 495.530348 498.38233 
Q 495.780896 498.509298 496.029974 498.638086 
L 495.908906 498.726644 
Q 511.602041 520.181046 495.610007 541.635052 
L 495.449654 541.515523 
z
" style="fill-opacity:0.4;stroke:#000000;stroke-linecap:round;stroke-opacity:0.4;"/>
   </g>
   <g id="patch_23">
    <path clip-path="url(#p93eba4d3d0)" d="M 495.463547 541.525452 
Q 529.878432 496.998517 495.769209 452.471785 
L 495.650132 452.563003 
Q 495.597877 452.289235 495.543611 452.014613 
Q 495.795683 452.136352 496.047056 452.258944 
L 495.927979 452.350162 
Q 530.130787 496.999061 495.621791 541.647758 
L 495.463547 541.525452 
z
" style="fill-opacity:0.4;stroke:#000000;stroke-linecap:round;stroke-opacity:0.4;"/>
   </g>
   <g id="patch_24">
    <path clip-path="url(#p93eba4d3d0)" d="M 495.469327 541.527128 
Q 548.414242 473.818997 495.777343 406.111001 
L 495.658919 406.203065 
Q 495.603829 405.928538 495.5474 405.653452 
Q 495.800766 405.774538 496.053666 405.896185 
L 495.935242 405.988249 
Q 548.667848 473.819355 495.626878 541.650326 
L 495.469327 541.527128 
z
" style="fill-opacity:0.4;stroke:#000000;stroke-linecap:round;stroke-opacity:0.4;"/>
   </g>
   <g id="patch_25">
    <path clip-path="url(#p93eba4d3d0)" d="M 495.470256 541.530443 
Q 566.954824 450.64086 495.780774 359.75138 
L 495.662675 359.843861 
Q 495.607687 359.570897 495.551713 359.29752 
Q 495.804195 359.416349 496.056337 359.535591 
L 495.938238 359.628072 
Q 567.20906 450.641129 495.627459 541.654084 
L 495.470256 541.530443 
z
" style="fill-opacity:0.4;stroke:#000000;stroke-linecap:round;stroke-opacity:0.4;"/>
   </g>
   <g id="patch_26">
    <path clip-path="url(#p93eba4d3d0)" d="M 495.474145 541.528191 
Q 585.495116 427.459855 495.781843 313.3916 
L 495.663939 313.484329 
Q 495.607283 313.210092 495.549831 312.935524 
Q 495.803529 313.055212 496.056951 313.175231 
L 495.939047 313.26796 
Q 585.749728 427.460067 495.631144 541.652092 
L 495.474145 541.528191 
z
" style="fill-opacity:0.4;stroke:#000000;stroke-linecap:round;stroke-opacity:0.4;"/>
   </g>
   <g id="patch_27">
    <path clip-path="url(#p93eba4d3d0)" d="M 495.473389 541.530933 
Q 604.037709 404.282069 495.782941 267.033274 
L 495.665167 267.126168 
Q 495.608682 266.852712 495.551539 266.578983 
Q 495.804757 266.697616 496.057746 266.816521 
L 495.939973 266.909415 
Q 604.292574 404.282246 495.630249 541.655009 
L 495.473389 541.530933 
z
" style="fill-opacity:0.4;stroke:#000000;stroke-linecap:round;stroke-opacity:0.4;"/>
   </g>
   <g id="patch_28">
    <path clip-path="url(#p93eba4d3d0)" d="M 495.476964 541.527689 
Q 622.578517 381.101218 495.783291 220.674805 
L 495.665609 220.767816 
Q 495.60971 220.495502 495.553253 220.222956 
Q 495.805663 220.340251 496.057881 220.457779 
L 495.940199 220.55079 
Q 622.833561 381.101368 495.633727 541.651888 
L 495.476964 541.527689 
z
" style="fill-opacity:0.4;stroke:#000000;stroke-linecap:round;stroke-opacity:0.4;"/>
   </g>
   <g id="patch_29">
    <path clip-path="url(#p93eba4d3d0)" d="M 494.307692 496.8 
Q 494.307692 496.8 494.307692 496.8 
L 494.307692 496.8 
Q 494.307692 496.8 494.307692 496.8 
Q 494.307692 496.8 494.307692 496.8 
L 494.307692 496.8 
Q 494.307692 496.8 494.307692 496.8 
L 494.307692 496.8 
z
" style="fill-opacity:0.4;stroke:#000000;stroke-linecap:round;stroke-opacity:0.4;"/>
   </g>
   <g id="patch_30">
    <path clip-path="url(#p93eba4d3d0)" d="M 495.449654 495.1586 
Q 511.353426 473.823001 495.747481 452.487797 
L 495.626412 452.576355 
Q 495.580453 452.301791 495.530348 452.025407 
Q 495.780896 452.152375 496.029974 452.281163 
L 495.908906 452.369721 
Q 511.602041 473.824123 495.610007 495.278128 
L 495.449654 495.1586 
z
" style="fill-opacity:0.4;stroke:#000000;stroke-linecap:round;stroke-opacity:0.4;"/>
   </g>
   <g id="patch_31">
    <path clip-path="url(#p93eba4d3d0)" d="M 495.463547 495.168529 
Q 529.878432 450.641594 495.769209 406.114862 
L 495.650132 406.20608 
Q 495.597877 405.932312 495.543611 405.65769 
Q 495.795683 405.779429 496.047056 405.902021 
L 495.927979 405.993239 
Q 530.130787 450.642138 495.621791 495.290835 
L 495.463547 495.168529 
z
" style="fill-opacity:0.4;stroke:#000000;stroke-linecap:round;stroke-opacity:0.4;"/>
   </g>
   <g id="patch_32">
    <path clip-path="url(#p93eba4d3d0)" d="M 495.469327 495.170205 
Q 548.414242 427.462074 495.777343 359.754078 
L 495.658919 359.846142 
Q 495.603829 359.571615 495.5474 359.296528 
Q 495.800766 359.417615 496.053666 359.539262 
L 495.935242 359.631326 
Q 548.667848 427.462432 495.626878 495.293403 
L 495.469327 495.170205 
z
" style="fill-opacity:0.4;stroke:#000000;stroke-linecap:round;stroke-opacity:0.4;"/>
   </g>
   <g id="patch_33">
    <path clip-path="url(#p93eba4d3d0)" d="M 495.470256 495.17352 
Q 566.954824 404.283937 495.780774 313.394457 
L 495.662675 313.486938 
Q 495.607687 313.213974 495.551713 312.940597 
Q 495.804195 313.059426 496.056337 313.178668 
L 495.938238 313.271149 
Q 567.20906 404.284206 495.627459 495.297161 
L 495.470256 495.17352 
z
" style="fill-opacity:0.4;stroke:#000000;stroke-linecap:round;stroke-opacity:0.4;"/>
   </g>
   <g id="patch_34">
    <path clip-path="url(#p93eba4d3d0)" d="M 495.474145 495.171268 
Q 585.495116 381.102932 495.781843 267.034677 
L 495.663939 267.127406 
Q 495.607283 266.853169 495.549831 266.578601 
Q 495.803529 266.698289 496.056951 266.818308 
L 495.939047 266.911037 
Q 585.749728 381.103144 495.631144 495.295169 
L 495.474145 495.171268 
z
" style="fill-opacity:0.4;stroke:#000000;stroke-linecap:round;stroke-opacity:0.4;"/>
   </g>
   <g id="patch_35">
    <path clip-path="url(#p93eba4d3d0)" d="M 495.473389 495.17401 
Q 604.037709 357.925146 495.782941 220.676351 
L 495.665167 220.769245 
Q 495.608682 220.495789 495.551539 220.22206 
Q 495.804757 220.340693 496.057746 220.459598 
L 495.939973 220.552492 
Q 604.292574 357.925323 495.630249 495.298086 
L 495.473389 495.17401 
z
" style="fill-opacity:0.4;stroke:#000000;stroke-linecap:round;stroke-opacity:0.4;"/>
   </g>
   <g id="patch_36">
    <path clip-path="url(#p93eba4d3d0)" d="M 494.307692 450.443077 
Q 494.307692 450.443077 494.307692 450.443077 
L 494.307692 450.443077 
Q 494.307692 450.443077 494.307692 450.443077 
Q 494.307692 450.443077 494.307692 450.443077 
L 494.307692 450.443077 
Q 494.307692 450.443077 494.307692 450.443077 
L 494.307692 450.443077 
z
" style="fill-opacity:0.4;stroke:#000000;stroke-linecap:round;stroke-opacity:0.4;"/>
   </g>
   <g id="patch_37">
    <path clip-path="url(#p93eba4d3d0)" d="M 495.449654 448.801677 
Q 511.353426 427.466078 495.747481 406.130874 
L 495.626412 406.219431 
Q 495.580453 405.944868 495.530348 405.668484 
Q 495.780896 405.795451 496.029974 405.92424 
L 495.908906 406.012798 
Q 511.602041 427.467199 495.610007 448.921205 
L 495.449654 448.801677 
z
" style="fill-opacity:0.4;stroke:#000000;stroke-linecap:round;stroke-opacity:0.4;"/>
   </g>
   <g id="patch_38">
    <path clip-path="url(#p93eba4d3d0)" d="M 495.463547 448.811605 
Q 529.878432 404.284671 495.769209 359.757939 
L 495.650132 359.849157 
Q 495.597877 359.575388 495.543611 359.300767 
Q 495.795683 359.422506 496.047056 359.545098 
L 495.927979 359.636315 
Q 530.130787 404.285215 495.621791 448.933912 
L 495.463547 448.811605 
z
" style="fill-opacity:0.4;stroke:#000000;stroke-linecap:round;stroke-opacity:0.4;"/>
   </g>
   <g id="patch_39">
    <path clip-path="url(#p93eba4d3d0)" d="M 495.469327 448.813282 
Q 548.414242 381.105151 495.777343 313.397155 
L 495.658919 313.489219 
Q 495.603829 313.214692 495.5474 312.939605 
Q 495.800766 313.060692 496.053666 313.182339 
L 495.935242 313.274403 
Q 548.667848 381.105509 495.626878 448.93648 
L 495.469327 448.813282 
z
" style="fill-opacity:0.4;stroke:#000000;stroke-linecap:round;stroke-opacity:0.4;"/>
   </g>
   <g id="patch_40">
    <path clip-path="url(#p93eba4d3d0)" d="M 495.470256 448.816597 
Q 566.954824 357.927014 495.780774 267.037534 
L 495.662675 267.130015 
Q 495.607687 266.857051 495.551713 266.583674 
Q 495.804195 266.702503 496.056337 266.821745 
L 495.938238 266.914226 
Q 567.20906 357.927283 495.627459 448.940238 
L 495.470256 448.816597 
z
" style="fill-opacity:0.4;stroke:#000000;stroke-linecap:round;stroke-opacity:0.4;"/>
   </g>
   <g id="patch_41">
    <path clip-path="url(#p93eba4d3d0)" d="M 495.474145 448.814345 
Q 585.495116 334.746009 495.781843 220.677754 
L 495.663939 220.770483 
Q 495.607283 220.496246 495.549831 220.221678 
Q 495.803529 220.341366 496.056951 220.461385 
L 495.939047 220.554114 
Q 585.749728 334.746221 495.631144 448.938246 
L 495.474145 448.814345 
z
" style="fill-opacity:0.4;stroke:#000000;stroke-linecap:round;stroke-opacity:0.4;"/>
   </g>
   <g id="patch_42">
    <path clip-path="url(#p93eba4d3d0)" d="M 494.307692 404.086154 
Q 494.307692 404.086154 494.307692 404.086154 
L 494.307692 404.086154 
Q 494.307692 404.086154 494.307692 404.086154 
Q 494.307692 404.086154 494.307692 404.086154 
L 494.307692 404.086154 
Q 494.307692 404.086154 494.307692 404.086154 
L 494.307692 404.086154 
z
" style="fill-opacity:0.4;stroke:#000000;stroke-linecap:round;stroke-opacity:0.4;"/>
   </g>
   <g id="patch_43">
    <path clip-path="url(#p93eba4d3d0)" d="M 495.449654 402.444754 
Q 511.353426 381.109155 495.747481 359.773951 
L 495.626412 359.862508 
Q 495.580453 359.587945 495.530348 359.311561 
Q 495.780896 359.438528 496.029974 359.567317 
L 495.908906 359.655875 
Q 511.602041 381.110276 495.610007 402.564282 
L 495.449654 402.444754 
z
" style="fill-opacity:0.4;stroke:#000000;stroke-linecap:round;stroke-opacity:0.4;"/>
   </g>
   <g id="patch_44">
    <path clip-path="url(#p93eba4d3d0)" d="M 495.463547 402.454682 
Q 529.878432 357.927748 495.769209 313.401016 
L 495.650132 313.492234 
Q 495.597877 313.218465 495.543611 312.943844 
Q 495.795683 313.065583 496.047056 313.188175 
L 495.927979 313.279392 
Q 530.130787 357.928292 495.621791 402.576989 
L 495.463547 402.454682 
z
" style="fill-opacity:0.4;stroke:#000000;stroke-linecap:round;stroke-opacity:0.4;"/>
   </g>
   <g id="patch_45">
    <path clip-path="url(#p93eba4d3d0)" d="M 495.469327 402.456359 
Q 548.414242 334.748228 495.777343 267.040232 
L 495.658919 267.132296 
Q 495.603829 266.857769 495.5474 266.582682 
Q 495.800766 266.703769 496.053666 266.825416 
L 495.935242 266.91748 
Q 548.667848 334.748586 495.626878 402.579557 
L 495.469327 402.456359 
z
" style="fill-opacity:0.4;stroke:#000000;stroke-linecap:round;stroke-opacity:0.4;"/>
   </g>
   <g id="patch_46">
    <path clip-path="url(#p93eba4d3d0)" d="M 495.470256 402.459674 
Q 566.954824 311.570091 495.780774 220.68061 
L 495.662675 220.773091 
Q 495.607687 220.500128 495.551713 220.226751 
Q 495.804195 220.34558 496.056337 220.464821 
L 495.938238 220.557302 
Q 567.20906 311.57036 495.627459 402.583315 
L 495.470256 402.459674 
z
" style="fill-opacity:0.4;stroke:#000000;stroke-linecap:round;stroke-opacity:0.4;"/>
   </g>
   <g id="patch_47">
    <path clip-path="url(#p93eba4d3d0)" d="M 494.307692 357.729231 
Q 494.307692 357.729231 494.307692 357.729231 
L 494.307692 357.729231 
Q 494.307692 357.729231 494.307692 357.729231 
Q 494.307692 357.729231 494.307692 357.729231 
L 494.307692 357.729231 
Q 494.307692 357.729231 494.307692 357.729231 
L 494.307692 357.729231 
z
" style="fill-opacity:0.4;stroke:#000000;stroke-linecap:round;stroke-opacity:0.4;"/>
   </g>
   <g id="patch_48">
    <path clip-path="url(#p93eba4d3d0)" d="M 495.449654 356.087831 
Q 511.353426 334.752231 495.747481 313.417028 
L 495.626412 313.505585 
Q 495.580453 313.231022 495.530348 312.954637 
Q 495.780896 313.081605 496.029974 313.210394 
L 495.908906 313.298951 
Q 511.602041 334.753353 495.610007 356.207359 
L 495.449654 356.087831 
z
" style="fill-opacity:0.4;stroke:#000000;stroke-linecap:round;stroke-opacity:0.4;"/>
   </g>
   <g id="patch_49">
    <path clip-path="url(#p93eba4d3d0)" d="M 495.463547 356.097759 
Q 529.878432 311.570825 495.769209 267.044093 
L 495.650132 267.135311 
Q 495.597877 266.861542 495.543611 266.586921 
Q 495.795683 266.708659 496.047056 266.831252 
L 495.927979 266.922469 
Q 530.130787 311.571369 495.621791 356.220066 
L 495.463547 356.097759 
z
" style="fill-opacity:0.4;stroke:#000000;stroke-linecap:round;stroke-opacity:0.4;"/>
   </g>
   <g id="patch_50">
    <path clip-path="url(#p93eba4d3d0)" d="M 495.469327 356.099436 
Q 548.414242 288.391304 495.777343 220.683309 
L 495.658919 220.775373 
Q 495.603829 220.500846 495.5474 220.225759 
Q 495.800766 220.346846 496.053666 220.468493 
L 495.935242 220.560557 
Q 548.667848 288.391663 495.626878 356.222634 
L 495.469327 356.099436 
z
" style="fill-opacity:0.4;stroke:#000000;stroke-linecap:round;stroke-opacity:0.4;"/>
   </g>
   <g id="patch_51">
    <path clip-path="url(#p93eba4d3d0)" d="M 494.307692 311.372308 
Q 494.307692 311.372308 494.307692 311.372308 
L 494.307692 311.372308 
Q 494.307692 311.372308 494.307692 311.372308 
Q 494.307692 311.372308 494.307692 311.372308 
L 494.307692 311.372308 
Q 494.307692 311.372308 494.307692 311.372308 
L 494.307692 311.372308 
z
" style="fill-opacity:0.4;stroke:#000000;stroke-linecap:round;stroke-opacity:0.4;"/>
   </g>
   <g id="patch_52">
    <path clip-path="url(#p93eba4d3d0)" d="M 495.449654 309.730908 
Q 511.353426 288.395308 495.747481 267.060105 
L 495.626412 267.148662 
Q 495.580453 266.874099 495.530348 266.597714 
Q 495.780896 266.724682 496.029974 266.853471 
L 495.908906 266.942028 
Q 511.602041 288.39643 495.610007 309.850436 
L 495.449654 309.730908 
z
" style="fill-opacity:0.4;stroke:#000000;stroke-linecap:round;stroke-opacity:0.4;"/>
   </g>
   <g id="patch_53">
    <path clip-path="url(#p93eba4d3d0)" d="M 495.463547 309.740836 
Q 529.878432 265.213902 495.769209 220.68717 
L 495.650132 220.778387 
Q 495.597877 220.504619 495.543611 220.229998 
Q 495.795683 220.351736 496.047056 220.474329 
L 495.927979 220.565546 
Q 530.130787 265.214446 495.621791 309.863143 
L 495.463547 309.740836 
z
" style="fill-opacity:0.4;stroke:#000000;stroke-linecap:round;stroke-opacity:0.4;"/>
   </g>
   <g id="patch_54">
    <path clip-path="url(#p93eba4d3d0)" d="M 494.307692 265.015385 
Q 494.307692 265.015385 494.307692 265.015385 
L 494.307692 265.015385 
Q 494.307692 265.015385 494.307692 265.015385 
Q 494.307692 265.015385 494.307692 265.015385 
L 494.307692 265.015385 
Q 494.307692 265.015385 494.307692 265.015385 
L 494.307692 265.015385 
z
" style="fill-opacity:0.4;stroke:#000000;stroke-linecap:round;stroke-opacity:0.4;"/>
   </g>
   <g id="patch_55">
    <path clip-path="url(#p93eba4d3d0)" d="M 495.449654 263.373985 
Q 511.353426 242.038385 495.747481 220.703182 
L 495.626412 220.791739 
Q 495.580453 220.517176 495.530348 220.240791 
Q 495.780896 220.367759 496.029974 220.496548 
L 495.908906 220.585105 
Q 511.602041 242.039507 495.610007 263.493513 
L 495.449654 263.373985 
z
" style="fill-opacity:0.4;stroke:#000000;stroke-linecap:round;stroke-opacity:0.4;"/>
   </g>
   <g id="patch_56">
    <path clip-path="url(#p93eba4d3d0)" d="M 494.307692 218.658462 
Q 494.307692 218.658462 494.307692 218.658462 
L 494.307692 218.658462 
Q 494.307692 218.658462 494.307692 218.658462 
Q 494.307692 218.658462 494.307692 218.658462 
L 494.307692 218.658462 
Q 494.307692 218.658462 494.307692 218.658462 
L 494.307692 218.658462 
z
" style="fill-opacity:0.4;stroke:#000000;stroke-linecap:round;stroke-opacity:0.4;"/>
   </g>
   <g id="patch_57">
    <path clip-path="url(#p93eba4d3d0)" d="M 417.046154 651.323077 
L 494.307692 651.323077 
L 494.307692 620.418462 
L 417.046154 620.418462 
z
" style="fill:none;stroke:#000000;stroke-linejoin:miter;stroke-opacity:0.4;"/>
   </g>
   <g id="patch_58">
    <path clip-path="url(#p93eba4d3d0)" d="M 417.046154 604.966154 
L 494.307692 604.966154 
L 494.307692 574.061538 
L 417.046154 574.061538 
z
" style="fill:none;stroke:#000000;stroke-linejoin:miter;stroke-opacity:0.4;"/>
   </g>
   <g id="patch_59">
    <path clip-path="url(#p93eba4d3d0)" d="M 417.046154 558.609231 
L 494.307692 558.609231 
L 494.307692 527.704615 
L 417.046154 527.704615 
z
" style="fill:none;stroke:#000000;stroke-linejoin:miter;stroke-opacity:0.4;"/>
   </g>
   <g id="patch_60">
    <path clip-path="url(#p93eba4d3d0)" d="M 417.046154 512.252308 
L 494.307692 512.252308 
L 494.307692 481.347692 
L 417.046154 481.347692 
z
" style="fill:none;stroke:#000000;stroke-linejoin:miter;stroke-opacity:0.4;"/>
   </g>
   <g id="patch_61">
    <path clip-path="url(#p93eba4d3d0)" d="M 417.046154 465.895385 
L 494.307692 465.895385 
L 494.307692 434.990769 
L 417.046154 434.990769 
z
" style="fill:none;stroke:#000000;stroke-linejoin:miter;stroke-opacity:0.4;"/>
   </g>
   <g id="patch_62">
    <path clip-path="url(#p93eba4d3d0)" d="M 417.046154 419.538462 
L 494.307692 419.538462 
L 494.307692 388.633846 
L 417.046154 388.633846 
z
" style="fill:none;stroke:#000000;stroke-linejoin:miter;stroke-opacity:0.4;"/>
   </g>
   <g id="patch_63">
    <path clip-path="url(#p93eba4d3d0)" d="M 417.046154 373.181538 
L 494.307692 373.181538 
L 494.307692 342.276923 
L 417.046154 342.276923 
z
" style="fill:none;stroke:#000000;stroke-linejoin:miter;stroke-opacity:0.4;"/>
   </g>
   <g id="patch_64">
    <path clip-path="url(#p93eba4d3d0)" d="M 417.046154 326.824615 
L 494.307692 326.824615 
L 494.307692 295.92 
L 417.046154 295.92 
z
" style="fill:none;stroke:#000000;stroke-linejoin:miter;stroke-opacity:0.4;"/>
   </g>
   <g id="patch_65">
    <path clip-path="url(#p93eba4d3d0)" d="M 417.046154 280.467692 
L 494.307692 280.467692 
L 494.307692 249.563077 
L 417.046154 249.563077 
z
" style="fill:none;stroke:#000000;stroke-linejoin:miter;stroke-opacity:0.4;"/>
   </g>
   <g id="patch_66">
    <path clip-path="url(#p93eba4d3d0)" d="M 417.046154 234.110769 
L 494.307692 234.110769 
L 494.307692 203.206154 
L 417.046154 203.206154 
z
" style="fill:none;stroke:#000000;stroke-linejoin:miter;stroke-opacity:0.4;"/>
   </g>
   <g id="patch_67">
    <path clip-path="url(#p93eba4d3d0)" d="M 171.869538 365.455385 
L 167.748923 365.455385 
L 167.748923 394.299692 
L 163.628308 394.299692 
L 169.809231 401.510769 
L 175.990154 394.299692 
L 171.869538 394.299692 
z
" style="fill:none;stroke:#000000;stroke-linejoin:miter;"/>
   </g>
   <g id="patch_68">
    <path clip-path="url(#p93eba4d3d0)" d="M 128.603077 447.867692 
L 205.864615 447.867692 
L 205.864615 406.661538 
L 128.603077 406.661538 
z
" style="fill:none;stroke:#000000;stroke-linejoin:miter;"/>
   </g>
   <g id="patch_69">
    <path clip-path="url(#p93eba4d3d0)" d="M 612.775385 427.779692 
L 612.775385 431.900308 
L 641.619692 431.900308 
L 641.619692 436.020923 
L 648.830769 429.84 
L 641.619692 423.659077 
L 641.619692 427.779692 
z
" style="fill:none;stroke:#000000;stroke-linejoin:miter;"/>
   </g>
   <g id="patch_70">
    <path clip-path="url(#p93eba4d3d0)" d="M 659.132308 450.443077 
L 741.544615 450.443077 
L 741.544615 409.236923 
L 659.132308 409.236923 
z
" style="fill:none;stroke:#000000;stroke-linejoin:miter;"/>
   </g>
   <g id="patch_71">
    <path clip-path="url(#p93eba4d3d0)" d="M 702.398769 458.169231 
L 698.278154 458.169231 
L 698.278154 487.013538 
L 694.157538 487.013538 
L 700.338462 494.224615 
L 706.519385 487.013538 
L 702.398769 487.013538 
z
" style="fill:none;stroke:#000000;stroke-linejoin:miter;"/>
   </g>
   <g id="line2d_1">
    <path clip-path="url(#p93eba4d3d0)" d="M 205.864615 429.84 
L 262.523077 635.870769 
" style="fill:none;stroke:#000000;stroke-linecap:square;stroke-opacity:0.9;stroke-width:0.7;"/>
   </g>
   <g id="line2d_2">
    <path clip-path="url(#p93eba4d3d0)" d="M 205.864615 429.84 
L 262.523077 589.513846 
" style="fill:none;stroke:#000000;stroke-linecap:square;stroke-opacity:0.9;stroke-width:0.7;"/>
   </g>
   <g id="line2d_3">
    <path clip-path="url(#p93eba4d3d0)" d="M 205.864615 429.84 
L 262.523077 543.156923 
" style="fill:none;stroke:#000000;stroke-linecap:square;stroke-opacity:0.9;stroke-width:0.7;"/>
   </g>
   <g id="line2d_4">
    <path clip-path="url(#p93eba4d3d0)" d="M 205.864615 429.84 
L 262.523077 496.8 
" style="fill:none;stroke:#000000;stroke-linecap:square;stroke-opacity:0.9;stroke-width:0.7;"/>
   </g>
   <g id="line2d_5">
    <path clip-path="url(#p93eba4d3d0)" d="M 205.864615 429.84 
L 262.523077 450.443077 
" style="fill:none;stroke:#000000;stroke-linecap:square;stroke-opacity:0.9;stroke-width:0.7;"/>
   </g>
   <g id="line2d_6">
    <path clip-path="url(#p93eba4d3d0)" d="M 205.864615 429.84 
L 262.523077 404.086154 
" style="fill:none;stroke:#000000;stroke-linecap:square;stroke-opacity:0.9;stroke-width:0.7;"/>
   </g>
   <g id="line2d_7">
    <path clip-path="url(#p93eba4d3d0)" d="M 205.864615 429.84 
L 262.523077 357.729231 
" style="fill:none;stroke:#000000;stroke-linecap:square;stroke-opacity:0.9;stroke-width:0.7;"/>
   </g>
   <g id="line2d_8">
    <path clip-path="url(#p93eba4d3d0)" d="M 205.864615 429.84 
L 262.523077 311.372308 
" style="fill:none;stroke:#000000;stroke-linecap:square;stroke-opacity:0.9;stroke-width:0.7;"/>
   </g>
   <g id="line2d_9">
    <path clip-path="url(#p93eba4d3d0)" d="M 205.864615 429.84 
L 262.523077 265.015385 
" style="fill:none;stroke:#000000;stroke-linecap:square;stroke-opacity:0.9;stroke-width:0.7;"/>
   </g>
   <g id="line2d_10">
    <path clip-path="url(#p93eba4d3d0)" d="M 205.864615 429.84 
L 262.523077 218.658462 
" style="fill:none;stroke:#000000;stroke-linecap:square;stroke-opacity:0.9;stroke-width:0.7;"/>
   </g>
   <g id="line2d_11">
    <path clip-path="url(#p93eba4d3d0)" d="M 262.523077 635.870769 
L 417.046154 635.870769 
" style="fill:none;stroke:#000000;stroke-linecap:square;stroke-opacity:0.9;stroke-width:0.7;"/>
   </g>
   <g id="line2d_12">
    <path clip-path="url(#p93eba4d3d0)" d="M 262.523077 589.513846 
L 417.046154 589.513846 
" style="fill:none;stroke:#000000;stroke-linecap:square;stroke-opacity:0.9;stroke-width:0.7;"/>
   </g>
   <g id="line2d_13">
    <path clip-path="url(#p93eba4d3d0)" d="M 262.523077 543.156923 
L 417.046154 543.156923 
" style="fill:none;stroke:#000000;stroke-linecap:square;stroke-opacity:0.9;stroke-width:0.7;"/>
   </g>
   <g id="line2d_14">
    <path clip-path="url(#p93eba4d3d0)" d="M 262.523077 496.8 
L 417.046154 496.8 
" style="fill:none;stroke:#000000;stroke-linecap:square;stroke-opacity:0.9;stroke-width:0.7;"/>
   </g>
   <g id="line2d_15">
    <path clip-path="url(#p93eba4d3d0)" d="M 262.523077 450.443077 
L 417.046154 450.443077 
" style="fill:none;stroke:#000000;stroke-linecap:square;stroke-opacity:0.9;stroke-width:0.7;"/>
   </g>
   <g id="line2d_16">
    <path clip-path="url(#p93eba4d3d0)" d="M 262.523077 404.086154 
L 417.046154 404.086154 
" style="fill:none;stroke:#000000;stroke-linecap:square;stroke-opacity:0.9;stroke-width:0.7;"/>
   </g>
   <g id="line2d_17">
    <path clip-path="url(#p93eba4d3d0)" d="M 262.523077 357.729231 
L 417.046154 357.729231 
" style="fill:none;stroke:#000000;stroke-linecap:square;stroke-opacity:0.9;stroke-width:0.7;"/>
   </g>
   <g id="line2d_18">
    <path clip-path="url(#p93eba4d3d0)" d="M 262.523077 311.372308 
L 417.046154 311.372308 
" style="fill:none;stroke:#000000;stroke-linecap:square;stroke-opacity:0.9;stroke-width:0.7;"/>
   </g>
   <g id="line2d_19">
    <path clip-path="url(#p93eba4d3d0)" d="M 262.523077 265.015385 
L 417.046154 265.015385 
" style="fill:none;stroke:#000000;stroke-linecap:square;stroke-opacity:0.9;stroke-width:0.7;"/>
   </g>
   <g id="line2d_20">
    <path clip-path="url(#p93eba4d3d0)" d="M 262.523077 218.658462 
L 417.046154 218.658462 
" style="fill:none;stroke:#000000;stroke-linecap:square;stroke-opacity:0.9;stroke-width:0.7;"/>
   </g>
   <g id="text_1">
    <!-- CSNN Network Model -->
    <defs>
     <path d="M 64.40625 67.28125 
L 64.40625 56.890625 
Q 59.421875 61.53125 53.78125 63.8125 
Q 48.140625 66.109375 41.796875 66.109375 
Q 29.296875 66.109375 22.65625 58.46875 
Q 16.015625 50.828125 16.015625 36.375 
Q 16.015625 21.96875 22.65625 14.328125 
Q 29.296875 6.6875 41.796875 6.6875 
Q 48.140625 6.6875 53.78125 8.984375 
Q 59.421875 11.28125 64.40625 15.921875 
L 64.40625 5.609375 
Q 59.234375 2.09375 53.4375 0.328125 
Q 47.65625 -1.421875 41.21875 -1.421875 
Q 24.65625 -1.421875 15.125 8.703125 
Q 5.609375 18.84375 5.609375 36.375 
Q 5.609375 53.953125 15.125 64.078125 
Q 24.65625 74.21875 41.21875 74.21875 
Q 47.75 74.21875 53.53125 72.484375 
Q 59.328125 70.75 64.40625 67.28125 
z
" id="DejaVuSans-67"/>
     <path d="M 53.515625 70.515625 
L 53.515625 60.890625 
Q 47.90625 63.578125 42.921875 64.890625 
Q 37.9375 66.21875 33.296875 66.21875 
Q 25.25 66.21875 20.875 63.09375 
Q 16.5 59.96875 16.5 54.203125 
Q 16.5 49.359375 19.40625 46.890625 
Q 22.3125 44.4375 30.421875 42.921875 
L 36.375 41.703125 
Q 47.40625 39.59375 52.65625 34.296875 
Q 57.90625 29 57.90625 20.125 
Q 57.90625 9.515625 50.796875 4.046875 
Q 43.703125 -1.421875 29.984375 -1.421875 
Q 24.8125 -1.421875 18.96875 -0.25 
Q 13.140625 0.921875 6.890625 3.21875 
L 6.890625 13.375 
Q 12.890625 10.015625 18.65625 8.296875 
Q 24.421875 6.59375 29.984375 6.59375 
Q 38.421875 6.59375 43.015625 9.90625 
Q 47.609375 13.234375 47.609375 19.390625 
Q 47.609375 24.75 44.3125 27.78125 
Q 41.015625 30.8125 33.5 32.328125 
L 27.484375 33.5 
Q 16.453125 35.6875 11.515625 40.375 
Q 6.59375 45.0625 6.59375 53.421875 
Q 6.59375 63.09375 13.40625 68.65625 
Q 20.21875 74.21875 32.171875 74.21875 
Q 37.3125 74.21875 42.625 73.28125 
Q 47.953125 72.359375 53.515625 70.515625 
z
" id="DejaVuSans-83"/>
     <path d="M 9.8125 72.90625 
L 23.09375 72.90625 
L 55.421875 11.921875 
L 55.421875 72.90625 
L 64.984375 72.90625 
L 64.984375 0 
L 51.703125 0 
L 19.390625 60.984375 
L 19.390625 0 
L 9.8125 0 
z
" id="DejaVuSans-78"/>
     <path id="DejaVuSans-32"/>
     <path d="M 56.203125 29.59375 
L 56.203125 25.203125 
L 14.890625 25.203125 
Q 15.484375 15.921875 20.484375 11.0625 
Q 25.484375 6.203125 34.421875 6.203125 
Q 39.59375 6.203125 44.453125 7.46875 
Q 49.3125 8.734375 54.109375 11.28125 
L 54.109375 2.78125 
Q 49.265625 0.734375 44.1875 -0.34375 
Q 39.109375 -1.421875 33.890625 -1.421875 
Q 20.796875 -1.421875 13.15625 6.1875 
Q 5.515625 13.8125 5.515625 26.8125 
Q 5.515625 40.234375 12.765625 48.109375 
Q 20.015625 56 32.328125 56 
Q 43.359375 56 49.78125 48.890625 
Q 56.203125 41.796875 56.203125 29.59375 
z
M 47.21875 32.234375 
Q 47.125 39.59375 43.09375 43.984375 
Q 39.0625 48.390625 32.421875 48.390625 
Q 24.90625 48.390625 20.390625 44.140625 
Q 15.875 39.890625 15.1875 32.171875 
z
" id="DejaVuSans-101"/>
     <path d="M 18.3125 70.21875 
L 18.3125 54.6875 
L 36.8125 54.6875 
L 36.8125 47.703125 
L 18.3125 47.703125 
L 18.3125 18.015625 
Q 18.3125 11.328125 20.140625 9.421875 
Q 21.96875 7.515625 27.59375 7.515625 
L 36.8125 7.515625 
L 36.8125 0 
L 27.59375 0 
Q 17.1875 0 13.234375 3.875 
Q 9.28125 7.765625 9.28125 18.015625 
L 9.28125 47.703125 
L 2.6875 47.703125 
L 2.6875 54.6875 
L 9.28125 54.6875 
L 9.28125 70.21875 
z
" id="DejaVuSans-116"/>
     <path d="M 4.203125 54.6875 
L 13.1875 54.6875 
L 24.421875 12.015625 
L 35.59375 54.6875 
L 46.1875 54.6875 
L 57.421875 12.015625 
L 68.609375 54.6875 
L 77.59375 54.6875 
L 63.28125 0 
L 52.6875 0 
L 40.921875 44.828125 
L 29.109375 0 
L 18.5 0 
z
" id="DejaVuSans-119"/>
     <path d="M 30.609375 48.390625 
Q 23.390625 48.390625 19.1875 42.75 
Q 14.984375 37.109375 14.984375 27.296875 
Q 14.984375 17.484375 19.15625 11.84375 
Q 23.34375 6.203125 30.609375 6.203125 
Q 37.796875 6.203125 41.984375 11.859375 
Q 46.1875 17.53125 46.1875 27.296875 
Q 46.1875 37.015625 41.984375 42.703125 
Q 37.796875 48.390625 30.609375 48.390625 
z
M 30.609375 56 
Q 42.328125 56 49.015625 48.375 
Q 55.71875 40.765625 55.71875 27.296875 
Q 55.71875 13.875 49.015625 6.21875 
Q 42.328125 -1.421875 30.609375 -1.421875 
Q 18.84375 -1.421875 12.171875 6.21875 
Q 5.515625 13.875 5.515625 27.296875 
Q 5.515625 40.765625 12.171875 48.375 
Q 18.84375 56 30.609375 56 
z
" id="DejaVuSans-111"/>
     <path d="M 41.109375 46.296875 
Q 39.59375 47.171875 37.8125 47.578125 
Q 36.03125 48 33.890625 48 
Q 26.265625 48 22.1875 43.046875 
Q 18.109375 38.09375 18.109375 28.8125 
L 18.109375 0 
L 9.078125 0 
L 9.078125 54.6875 
L 18.109375 54.6875 
L 18.109375 46.1875 
Q 20.953125 51.171875 25.484375 53.578125 
Q 30.03125 56 36.53125 56 
Q 37.453125 56 38.578125 55.875 
Q 39.703125 55.765625 41.0625 55.515625 
z
" id="DejaVuSans-114"/>
     <path d="M 9.078125 75.984375 
L 18.109375 75.984375 
L 18.109375 31.109375 
L 44.921875 54.6875 
L 56.390625 54.6875 
L 27.390625 29.109375 
L 57.625 0 
L 45.90625 0 
L 18.109375 26.703125 
L 18.109375 0 
L 9.078125 0 
z
" id="DejaVuSans-107"/>
     <path d="M 9.8125 72.90625 
L 24.515625 72.90625 
L 43.109375 23.296875 
L 61.8125 72.90625 
L 76.515625 72.90625 
L 76.515625 0 
L 66.890625 0 
L 66.890625 64.015625 
L 48.09375 14.015625 
L 38.1875 14.015625 
L 19.390625 64.015625 
L 19.390625 0 
L 9.8125 0 
z
" id="DejaVuSans-77"/>
     <path d="M 45.40625 46.390625 
L 45.40625 75.984375 
L 54.390625 75.984375 
L 54.390625 0 
L 45.40625 0 
L 45.40625 8.203125 
Q 42.578125 3.328125 38.25 0.953125 
Q 33.9375 -1.421875 27.875 -1.421875 
Q 17.96875 -1.421875 11.734375 6.484375 
Q 5.515625 14.40625 5.515625 27.296875 
Q 5.515625 40.1875 11.734375 48.09375 
Q 17.96875 56 27.875 56 
Q 33.9375 56 38.25 53.625 
Q 42.578125 51.265625 45.40625 46.390625 
z
M 14.796875 27.296875 
Q 14.796875 17.390625 18.875 11.75 
Q 22.953125 6.109375 30.078125 6.109375 
Q 37.203125 6.109375 41.296875 11.75 
Q 45.40625 17.390625 45.40625 27.296875 
Q 45.40625 37.203125 41.296875 42.84375 
Q 37.203125 48.484375 30.078125 48.484375 
Q 22.953125 48.484375 18.875 42.84375 
Q 14.796875 37.203125 14.796875 27.296875 
z
" id="DejaVuSans-100"/>
     <path d="M 9.421875 75.984375 
L 18.40625 75.984375 
L 18.40625 0 
L 9.421875 0 
z
" id="DejaVuSans-108"/>
    </defs>
    <g transform="translate(310.616466 177.820288)scale(0.2 -0.2)">
     <use xlink:href="#DejaVuSans-67"/>
     <use x="69.824219" xlink:href="#DejaVuSans-83"/>
     <use x="133.300781" xlink:href="#DejaVuSans-78"/>
     <use x="208.105469" xlink:href="#DejaVuSans-78"/>
     <use x="282.910156" xlink:href="#DejaVuSans-32"/>
     <use x="314.697266" xlink:href="#DejaVuSans-78"/>
     <use x="389.501953" xlink:href="#DejaVuSans-101"/>
     <use x="451.025391" xlink:href="#DejaVuSans-116"/>
     <use x="490.234375" xlink:href="#DejaVuSans-119"/>
     <use x="572.021484" xlink:href="#DejaVuSans-111"/>
     <use x="633.203125" xlink:href="#DejaVuSans-114"/>
     <use x="674.316406" xlink:href="#DejaVuSans-107"/>
     <use x="732.226562" xlink:href="#DejaVuSans-32"/>
     <use x="764.013672" xlink:href="#DejaVuSans-77"/>
     <use x="850.292969" xlink:href="#DejaVuSans-111"/>
     <use x="911.474609" xlink:href="#DejaVuSans-100"/>
     <use x="974.951172" xlink:href="#DejaVuSans-101"/>
     <use x="1036.474609" xlink:href="#DejaVuSans-108"/>
    </g>
   </g>
   <g id="text_2">
    <!-- 10 Input with -->
    <defs>
     <path d="M 12.40625 8.296875 
L 28.515625 8.296875 
L 28.515625 63.921875 
L 10.984375 60.40625 
L 10.984375 69.390625 
L 28.421875 72.90625 
L 38.28125 72.90625 
L 38.28125 8.296875 
L 54.390625 8.296875 
L 54.390625 0 
L 12.40625 0 
z
" id="DejaVuSans-49"/>
     <path d="M 31.78125 66.40625 
Q 24.171875 66.40625 20.328125 58.90625 
Q 16.5 51.421875 16.5 36.375 
Q 16.5 21.390625 20.328125 13.890625 
Q 24.171875 6.390625 31.78125 6.390625 
Q 39.453125 6.390625 43.28125 13.890625 
Q 47.125 21.390625 47.125 36.375 
Q 47.125 51.421875 43.28125 58.90625 
Q 39.453125 66.40625 31.78125 66.40625 
z
M 31.78125 74.21875 
Q 44.046875 74.21875 50.515625 64.515625 
Q 56.984375 54.828125 56.984375 36.375 
Q 56.984375 17.96875 50.515625 8.265625 
Q 44.046875 -1.421875 31.78125 -1.421875 
Q 19.53125 -1.421875 13.0625 8.265625 
Q 6.59375 17.96875 6.59375 36.375 
Q 6.59375 54.828125 13.0625 64.515625 
Q 19.53125 74.21875 31.78125 74.21875 
z
" id="DejaVuSans-48"/>
     <path d="M 9.8125 72.90625 
L 19.671875 72.90625 
L 19.671875 0 
L 9.8125 0 
z
" id="DejaVuSans-73"/>
     <path d="M 54.890625 33.015625 
L 54.890625 0 
L 45.90625 0 
L 45.90625 32.71875 
Q 45.90625 40.484375 42.875 44.328125 
Q 39.84375 48.1875 33.796875 48.1875 
Q 26.515625 48.1875 22.3125 43.546875 
Q 18.109375 38.921875 18.109375 30.90625 
L 18.109375 0 
L 9.078125 0 
L 9.078125 54.6875 
L 18.109375 54.6875 
L 18.109375 46.1875 
Q 21.34375 51.125 25.703125 53.5625 
Q 30.078125 56 35.796875 56 
Q 45.21875 56 50.046875 50.171875 
Q 54.890625 44.34375 54.890625 33.015625 
z
" id="DejaVuSans-110"/>
     <path d="M 18.109375 8.203125 
L 18.109375 -20.796875 
L 9.078125 -20.796875 
L 9.078125 54.6875 
L 18.109375 54.6875 
L 18.109375 46.390625 
Q 20.953125 51.265625 25.265625 53.625 
Q 29.59375 56 35.59375 56 
Q 45.5625 56 51.78125 48.09375 
Q 58.015625 40.1875 58.015625 27.296875 
Q 58.015625 14.40625 51.78125 6.484375 
Q 45.5625 -1.421875 35.59375 -1.421875 
Q 29.59375 -1.421875 25.265625 0.953125 
Q 20.953125 3.328125 18.109375 8.203125 
z
M 48.6875 27.296875 
Q 48.6875 37.203125 44.609375 42.84375 
Q 40.53125 48.484375 33.40625 48.484375 
Q 26.265625 48.484375 22.1875 42.84375 
Q 18.109375 37.203125 18.109375 27.296875 
Q 18.109375 17.390625 22.1875 11.75 
Q 26.265625 6.109375 33.40625 6.109375 
Q 40.53125 6.109375 44.609375 11.75 
Q 48.6875 17.390625 48.6875 27.296875 
z
" id="DejaVuSans-112"/>
     <path d="M 8.5 21.578125 
L 8.5 54.6875 
L 17.484375 54.6875 
L 17.484375 21.921875 
Q 17.484375 14.15625 20.5 10.265625 
Q 23.53125 6.390625 29.59375 6.390625 
Q 36.859375 6.390625 41.078125 11.03125 
Q 45.3125 15.671875 45.3125 23.6875 
L 45.3125 54.6875 
L 54.296875 54.6875 
L 54.296875 0 
L 45.3125 0 
L 45.3125 8.40625 
Q 42.046875 3.421875 37.71875 1 
Q 33.40625 -1.421875 27.6875 -1.421875 
Q 18.265625 -1.421875 13.375 4.4375 
Q 8.5 10.296875 8.5 21.578125 
z
M 31.109375 56 
z
" id="DejaVuSans-117"/>
     <path d="M 9.421875 54.6875 
L 18.40625 54.6875 
L 18.40625 0 
L 9.421875 0 
z
M 9.421875 75.984375 
L 18.40625 75.984375 
L 18.40625 64.59375 
L 9.421875 64.59375 
z
" id="DejaVuSans-105"/>
     <path d="M 54.890625 33.015625 
L 54.890625 0 
L 45.90625 0 
L 45.90625 32.71875 
Q 45.90625 40.484375 42.875 44.328125 
Q 39.84375 48.1875 33.796875 48.1875 
Q 26.515625 48.1875 22.3125 43.546875 
Q 18.109375 38.921875 18.109375 30.90625 
L 18.109375 0 
L 9.078125 0 
L 9.078125 75.984375 
L 18.109375 75.984375 
L 18.109375 46.1875 
Q 21.34375 51.125 25.703125 53.5625 
Q 30.078125 56 35.796875 56 
Q 45.21875 56 50.046875 50.171875 
Q 54.890625 44.34375 54.890625 33.015625 
z
" id="DejaVuSans-104"/>
    </defs>
    <g transform="translate(212.88128 683.119165)scale(0.15 -0.15)">
     <use xlink:href="#DejaVuSans-49"/>
     <use x="63.623047" xlink:href="#DejaVuSans-48"/>
     <use x="127.246094" xlink:href="#DejaVuSans-32"/>
     <use x="159.033203" xlink:href="#DejaVuSans-73"/>
     <use x="188.525391" xlink:href="#DejaVuSans-110"/>
     <use x="251.904297" xlink:href="#DejaVuSans-112"/>
     <use x="315.380859" xlink:href="#DejaVuSans-117"/>
     <use x="378.759766" xlink:href="#DejaVuSans-116"/>
     <use x="417.96875" xlink:href="#DejaVuSans-32"/>
     <use x="449.755859" xlink:href="#DejaVuSans-119"/>
     <use x="531.542969" xlink:href="#DejaVuSans-105"/>
     <use x="559.326172" xlink:href="#DejaVuSans-116"/>
     <use x="598.535156" xlink:href="#DejaVuSans-104"/>
    </g>
    <!-- 25 Neurons each -->
    <defs>
     <path d="M 19.1875 8.296875 
L 53.609375 8.296875 
L 53.609375 0 
L 7.328125 0 
L 7.328125 8.296875 
Q 12.9375 14.109375 22.625 23.890625 
Q 32.328125 33.6875 34.8125 36.53125 
Q 39.546875 41.84375 41.421875 45.53125 
Q 43.3125 49.21875 43.3125 52.78125 
Q 43.3125 58.59375 39.234375 62.25 
Q 35.15625 65.921875 28.609375 65.921875 
Q 23.96875 65.921875 18.8125 64.3125 
Q 13.671875 62.703125 7.8125 59.421875 
L 7.8125 69.390625 
Q 13.765625 71.78125 18.9375 73 
Q 24.125 74.21875 28.421875 74.21875 
Q 39.75 74.21875 46.484375 68.546875 
Q 53.21875 62.890625 53.21875 53.421875 
Q 53.21875 48.921875 51.53125 44.890625 
Q 49.859375 40.875 45.40625 35.40625 
Q 44.1875 33.984375 37.640625 27.21875 
Q 31.109375 20.453125 19.1875 8.296875 
z
" id="DejaVuSans-50"/>
     <path d="M 10.796875 72.90625 
L 49.515625 72.90625 
L 49.515625 64.59375 
L 19.828125 64.59375 
L 19.828125 46.734375 
Q 21.96875 47.46875 24.109375 47.828125 
Q 26.265625 48.1875 28.421875 48.1875 
Q 40.625 48.1875 47.75 41.5 
Q 54.890625 34.8125 54.890625 23.390625 
Q 54.890625 11.625 47.5625 5.09375 
Q 40.234375 -1.421875 26.90625 -1.421875 
Q 22.3125 -1.421875 17.546875 -0.640625 
Q 12.796875 0.140625 7.71875 1.703125 
L 7.71875 11.625 
Q 12.109375 9.234375 16.796875 8.0625 
Q 21.484375 6.890625 26.703125 6.890625 
Q 35.15625 6.890625 40.078125 11.328125 
Q 45.015625 15.765625 45.015625 23.390625 
Q 45.015625 31 40.078125 35.4375 
Q 35.15625 39.890625 26.703125 39.890625 
Q 22.75 39.890625 18.8125 39.015625 
Q 14.890625 38.140625 10.796875 36.28125 
z
" id="DejaVuSans-53"/>
     <path d="M 44.28125 53.078125 
L 44.28125 44.578125 
Q 40.484375 46.53125 36.375 47.5 
Q 32.28125 48.484375 27.875 48.484375 
Q 21.1875 48.484375 17.84375 46.4375 
Q 14.5 44.390625 14.5 40.28125 
Q 14.5 37.15625 16.890625 35.375 
Q 19.28125 33.59375 26.515625 31.984375 
L 29.59375 31.296875 
Q 39.15625 29.25 43.1875 25.515625 
Q 47.21875 21.78125 47.21875 15.09375 
Q 47.21875 7.46875 41.1875 3.015625 
Q 35.15625 -1.421875 24.609375 -1.421875 
Q 20.21875 -1.421875 15.453125 -0.5625 
Q 10.6875 0.296875 5.421875 2 
L 5.421875 11.28125 
Q 10.40625 8.6875 15.234375 7.390625 
Q 20.0625 6.109375 24.8125 6.109375 
Q 31.15625 6.109375 34.5625 8.28125 
Q 37.984375 10.453125 37.984375 14.40625 
Q 37.984375 18.0625 35.515625 20.015625 
Q 33.0625 21.96875 24.703125 23.78125 
L 21.578125 24.515625 
Q 13.234375 26.265625 9.515625 29.90625 
Q 5.8125 33.546875 5.8125 39.890625 
Q 5.8125 47.609375 11.28125 51.796875 
Q 16.75 56 26.8125 56 
Q 31.78125 56 36.171875 55.265625 
Q 40.578125 54.546875 44.28125 53.078125 
z
" id="DejaVuSans-115"/>
     <path d="M 34.28125 27.484375 
Q 23.390625 27.484375 19.1875 25 
Q 14.984375 22.515625 14.984375 16.5 
Q 14.984375 11.71875 18.140625 8.90625 
Q 21.296875 6.109375 26.703125 6.109375 
Q 34.1875 6.109375 38.703125 11.40625 
Q 43.21875 16.703125 43.21875 25.484375 
L 43.21875 27.484375 
z
M 52.203125 31.203125 
L 52.203125 0 
L 43.21875 0 
L 43.21875 8.296875 
Q 40.140625 3.328125 35.546875 0.953125 
Q 30.953125 -1.421875 24.3125 -1.421875 
Q 15.921875 -1.421875 10.953125 3.296875 
Q 6 8.015625 6 15.921875 
Q 6 25.140625 12.171875 29.828125 
Q 18.359375 34.515625 30.609375 34.515625 
L 43.21875 34.515625 
L 43.21875 35.40625 
Q 43.21875 41.609375 39.140625 45 
Q 35.0625 48.390625 27.6875 48.390625 
Q 23 48.390625 18.546875 47.265625 
Q 14.109375 46.140625 10.015625 43.890625 
L 10.015625 52.203125 
Q 14.9375 54.109375 19.578125 55.046875 
Q 24.21875 56 28.609375 56 
Q 40.484375 56 46.34375 49.84375 
Q 52.203125 43.703125 52.203125 31.203125 
z
" id="DejaVuSans-97"/>
     <path d="M 48.78125 52.59375 
L 48.78125 44.1875 
Q 44.96875 46.296875 41.140625 47.34375 
Q 37.3125 48.390625 33.40625 48.390625 
Q 24.65625 48.390625 19.8125 42.84375 
Q 14.984375 37.3125 14.984375 27.296875 
Q 14.984375 17.28125 19.8125 11.734375 
Q 24.65625 6.203125 33.40625 6.203125 
Q 37.3125 6.203125 41.140625 7.25 
Q 44.96875 8.296875 48.78125 10.40625 
L 48.78125 2.09375 
Q 45.015625 0.34375 40.984375 -0.53125 
Q 36.96875 -1.421875 32.421875 -1.421875 
Q 20.0625 -1.421875 12.78125 6.34375 
Q 5.515625 14.109375 5.515625 27.296875 
Q 5.515625 40.671875 12.859375 48.328125 
Q 20.21875 56 33.015625 56 
Q 37.15625 56 41.109375 55.140625 
Q 45.0625 54.296875 48.78125 52.59375 
z
" id="DejaVuSans-99"/>
    </defs>
    <g transform="translate(198.815264 699.915883)scale(0.15 -0.15)">
     <use xlink:href="#DejaVuSans-50"/>
     <use x="63.623047" xlink:href="#DejaVuSans-53"/>
     <use x="127.246094" xlink:href="#DejaVuSans-32"/>
     <use x="159.033203" xlink:href="#DejaVuSans-78"/>
     <use x="233.837891" xlink:href="#DejaVuSans-101"/>
     <use x="295.361328" xlink:href="#DejaVuSans-117"/>
     <use x="358.740234" xlink:href="#DejaVuSans-114"/>
     <use x="399.822266" xlink:href="#DejaVuSans-111"/>
     <use x="461.003906" xlink:href="#DejaVuSans-110"/>
     <use x="524.382812" xlink:href="#DejaVuSans-115"/>
     <use x="576.482422" xlink:href="#DejaVuSans-32"/>
     <use x="608.269531" xlink:href="#DejaVuSans-101"/>
     <use x="669.792969" xlink:href="#DejaVuSans-97"/>
     <use x="731.072266" xlink:href="#DejaVuSans-99"/>
     <use x="786.052734" xlink:href="#DejaVuSans-104"/>
    </g>
   </g>
   <g id="text_3">
    <!-- 10 Columns with -->
    <defs>
     <path d="M 52 44.1875 
Q 55.375 50.25 60.0625 53.125 
Q 64.75 56 71.09375 56 
Q 79.640625 56 84.28125 50.015625 
Q 88.921875 44.046875 88.921875 33.015625 
L 88.921875 0 
L 79.890625 0 
L 79.890625 32.71875 
Q 79.890625 40.578125 77.09375 44.375 
Q 74.3125 48.1875 68.609375 48.1875 
Q 61.625 48.1875 57.5625 43.546875 
Q 53.515625 38.921875 53.515625 30.90625 
L 53.515625 0 
L 44.484375 0 
L 44.484375 32.71875 
Q 44.484375 40.625 41.703125 44.40625 
Q 38.921875 48.1875 33.109375 48.1875 
Q 26.21875 48.1875 22.15625 43.53125 
Q 18.109375 38.875 18.109375 30.90625 
L 18.109375 0 
L 9.078125 0 
L 9.078125 54.6875 
L 18.109375 54.6875 
L 18.109375 46.1875 
Q 21.1875 51.21875 25.484375 53.609375 
Q 29.78125 56 35.6875 56 
Q 41.65625 56 45.828125 52.96875 
Q 50 49.953125 52 44.1875 
z
" id="DejaVuSans-109"/>
    </defs>
    <g transform="translate(395.402308 683.119165)scale(0.15 -0.15)">
     <use xlink:href="#DejaVuSans-49"/>
     <use x="63.623047" xlink:href="#DejaVuSans-48"/>
     <use x="127.246094" xlink:href="#DejaVuSans-32"/>
     <use x="159.033203" xlink:href="#DejaVuSans-67"/>
     <use x="228.857422" xlink:href="#DejaVuSans-111"/>
     <use x="290.039062" xlink:href="#DejaVuSans-108"/>
     <use x="317.822266" xlink:href="#DejaVuSans-117"/>
     <use x="381.201172" xlink:href="#DejaVuSans-109"/>
     <use x="478.613281" xlink:href="#DejaVuSans-110"/>
     <use x="541.992188" xlink:href="#DejaVuSans-115"/>
     <use x="594.091797" xlink:href="#DejaVuSans-32"/>
     <use x="625.878906" xlink:href="#DejaVuSans-119"/>
     <use x="707.666016" xlink:href="#DejaVuSans-105"/>
     <use x="735.449219" xlink:href="#DejaVuSans-116"/>
     <use x="774.658203" xlink:href="#DejaVuSans-104"/>
    </g>
    <!-- 100 Neurons each -->
    <g transform="translate(389.77262 699.915883)scale(0.15 -0.15)">
     <use xlink:href="#DejaVuSans-49"/>
     <use x="63.623047" xlink:href="#DejaVuSans-48"/>
     <use x="127.246094" xlink:href="#DejaVuSans-48"/>
     <use x="190.869141" xlink:href="#DejaVuSans-32"/>
     <use x="222.65625" xlink:href="#DejaVuSans-78"/>
     <use x="297.460938" xlink:href="#DejaVuSans-101"/>
     <use x="358.984375" xlink:href="#DejaVuSans-117"/>
     <use x="422.363281" xlink:href="#DejaVuSans-114"/>
     <use x="463.445312" xlink:href="#DejaVuSans-111"/>
     <use x="524.626953" xlink:href="#DejaVuSans-110"/>
     <use x="588.005859" xlink:href="#DejaVuSans-115"/>
     <use x="640.105469" xlink:href="#DejaVuSans-32"/>
     <use x="671.892578" xlink:href="#DejaVuSans-101"/>
     <use x="733.416016" xlink:href="#DejaVuSans-97"/>
     <use x="794.695312" xlink:href="#DejaVuSans-99"/>
     <use x="849.675781" xlink:href="#DejaVuSans-104"/>
    </g>
   </g>
   <g id="text_4">
    <!-- Character$_t$ -->
    <defs>
     <path d="M 42.28125 54.6875 
L 40.921875 47.703125 
L 23 47.703125 
L 17.1875 18.015625 
Q 16.890625 16.359375 16.75 15.234375 
Q 16.609375 14.109375 16.609375 13.484375 
Q 16.609375 10.359375 18.484375 8.9375 
Q 20.359375 7.515625 24.515625 7.515625 
L 33.59375 7.515625 
L 32.078125 0 
L 23.484375 0 
Q 15.484375 0 11.546875 3.125 
Q 7.625 6.25 7.625 12.59375 
Q 7.625 13.71875 7.765625 15.0625 
Q 7.90625 16.40625 8.203125 18.015625 
L 14.015625 47.703125 
L 6.390625 47.703125 
L 7.8125 54.6875 
L 15.28125 54.6875 
L 18.3125 70.21875 
L 27.296875 70.21875 
L 24.3125 54.6875 
z
" id="DejaVuSans-Oblique-116"/>
    </defs>
    <g transform="translate(143.559231 355.337837)scale(0.1 -0.1)">
     <use transform="translate(0 0.015625)" xlink:href="#DejaVuSans-67"/>
     <use transform="translate(69.824219 0.015625)" xlink:href="#DejaVuSans-104"/>
     <use transform="translate(133.203125 0.015625)" xlink:href="#DejaVuSans-97"/>
     <use transform="translate(194.482422 0.015625)" xlink:href="#DejaVuSans-114"/>
     <use transform="translate(235.595703 0.015625)" xlink:href="#DejaVuSans-97"/>
     <use transform="translate(296.875 0.015625)" xlink:href="#DejaVuSans-99"/>
     <use transform="translate(351.855469 0.015625)" xlink:href="#DejaVuSans-116"/>
     <use transform="translate(391.064453 0.015625)" xlink:href="#DejaVuSans-101"/>
     <use transform="translate(452.587891 0.015625)" xlink:href="#DejaVuSans-114"/>
     <use transform="translate(494.658203 -16.390625)scale(0.7)" xlink:href="#DejaVuSans-Oblique-116"/>
    </g>
   </g>
   <g id="text_5">
    <!-- Character$_{t-1}$ -->
    <defs>
     <path d="M 10.59375 35.5 
L 73.1875 35.5 
L 73.1875 27.203125 
L 10.59375 27.203125 
z
" id="DejaVuSans-8722"/>
    </defs>
    <g transform="translate(137.009231 339.885529)scale(0.1 -0.1)">
     <use transform="translate(0 0.015625)" xlink:href="#DejaVuSans-67"/>
     <use transform="translate(69.824219 0.015625)" xlink:href="#DejaVuSans-104"/>
     <use transform="translate(133.203125 0.015625)" xlink:href="#DejaVuSans-97"/>
     <use transform="translate(194.482422 0.015625)" xlink:href="#DejaVuSans-114"/>
     <use transform="translate(235.595703 0.015625)" xlink:href="#DejaVuSans-97"/>
     <use transform="translate(296.875 0.015625)" xlink:href="#DejaVuSans-99"/>
     <use transform="translate(351.855469 0.015625)" xlink:href="#DejaVuSans-116"/>
     <use transform="translate(391.064453 0.015625)" xlink:href="#DejaVuSans-101"/>
     <use transform="translate(452.587891 0.015625)" xlink:href="#DejaVuSans-114"/>
     <use transform="translate(494.658203 -16.390625)scale(0.7)" xlink:href="#DejaVuSans-Oblique-116"/>
     <use transform="translate(535.742188 -16.390625)scale(0.7)" xlink:href="#DejaVuSans-8722"/>
     <use transform="translate(608.032227 -16.390625)scale(0.7)" xlink:href="#DejaVuSans-49"/>
    </g>
   </g>
   <g id="text_6">
    <!-- Character$_{t-2}$ -->
    <g transform="translate(137.009231 324.433221)scale(0.1 -0.1)">
     <use transform="translate(0 0.015625)" xlink:href="#DejaVuSans-67"/>
     <use transform="translate(69.824219 0.015625)" xlink:href="#DejaVuSans-104"/>
     <use transform="translate(133.203125 0.015625)" xlink:href="#DejaVuSans-97"/>
     <use transform="translate(194.482422 0.015625)" xlink:href="#DejaVuSans-114"/>
     <use transform="translate(235.595703 0.015625)" xlink:href="#DejaVuSans-97"/>
     <use transform="translate(296.875 0.015625)" xlink:href="#DejaVuSans-99"/>
     <use transform="translate(351.855469 0.015625)" xlink:href="#DejaVuSans-116"/>
     <use transform="translate(391.064453 0.015625)" xlink:href="#DejaVuSans-101"/>
     <use transform="translate(452.587891 0.015625)" xlink:href="#DejaVuSans-114"/>
     <use transform="translate(494.658203 -16.390625)scale(0.7)" xlink:href="#DejaVuSans-Oblique-116"/>
     <use transform="translate(535.742188 -16.390625)scale(0.7)" xlink:href="#DejaVuSans-8722"/>
     <use transform="translate(608.032227 -16.390625)scale(0.7)" xlink:href="#DejaVuSans-50"/>
    </g>
   </g>
   <g id="text_7">
    <!-- Character$_{t-3}$ -->
    <defs>
     <path d="M 40.578125 39.3125 
Q 47.65625 37.796875 51.625 33 
Q 55.609375 28.21875 55.609375 21.1875 
Q 55.609375 10.40625 48.1875 4.484375 
Q 40.765625 -1.421875 27.09375 -1.421875 
Q 22.515625 -1.421875 17.65625 -0.515625 
Q 12.796875 0.390625 7.625 2.203125 
L 7.625 11.71875 
Q 11.71875 9.328125 16.59375 8.109375 
Q 21.484375 6.890625 26.8125 6.890625 
Q 36.078125 6.890625 40.9375 10.546875 
Q 45.796875 14.203125 45.796875 21.1875 
Q 45.796875 27.640625 41.28125 31.265625 
Q 36.765625 34.90625 28.71875 34.90625 
L 20.21875 34.90625 
L 20.21875 43.015625 
L 29.109375 43.015625 
Q 36.375 43.015625 40.234375 45.921875 
Q 44.09375 48.828125 44.09375 54.296875 
Q 44.09375 59.90625 40.109375 62.90625 
Q 36.140625 65.921875 28.71875 65.921875 
Q 24.65625 65.921875 20.015625 65.03125 
Q 15.375 64.15625 9.8125 62.3125 
L 9.8125 71.09375 
Q 15.4375 72.65625 20.34375 73.4375 
Q 25.25 74.21875 29.59375 74.21875 
Q 40.828125 74.21875 47.359375 69.109375 
Q 53.90625 64.015625 53.90625 55.328125 
Q 53.90625 49.265625 50.4375 45.09375 
Q 46.96875 40.921875 40.578125 39.3125 
z
" id="DejaVuSans-51"/>
    </defs>
    <g transform="translate(137.009231 308.980913)scale(0.1 -0.1)">
     <use transform="translate(0 0.015625)" xlink:href="#DejaVuSans-67"/>
     <use transform="translate(69.824219 0.015625)" xlink:href="#DejaVuSans-104"/>
     <use transform="translate(133.203125 0.015625)" xlink:href="#DejaVuSans-97"/>
     <use transform="translate(194.482422 0.015625)" xlink:href="#DejaVuSans-114"/>
     <use transform="translate(235.595703 0.015625)" xlink:href="#DejaVuSans-97"/>
     <use transform="translate(296.875 0.015625)" xlink:href="#DejaVuSans-99"/>
     <use transform="translate(351.855469 0.015625)" xlink:href="#DejaVuSans-116"/>
     <use transform="translate(391.064453 0.015625)" xlink:href="#DejaVuSans-101"/>
     <use transform="translate(452.587891 0.015625)" xlink:href="#DejaVuSans-114"/>
     <use transform="translate(494.658203 -16.390625)scale(0.7)" xlink:href="#DejaVuSans-Oblique-116"/>
     <use transform="translate(535.742188 -16.390625)scale(0.7)" xlink:href="#DejaVuSans-8722"/>
     <use transform="translate(608.032227 -16.390625)scale(0.7)" xlink:href="#DejaVuSans-51"/>
    </g>
   </g>
   <g id="text_8">
    <!-- Character$_{t-4}$ -->
    <defs>
     <path d="M 37.796875 64.3125 
L 12.890625 25.390625 
L 37.796875 25.390625 
z
M 35.203125 72.90625 
L 47.609375 72.90625 
L 47.609375 25.390625 
L 58.015625 25.390625 
L 58.015625 17.1875 
L 47.609375 17.1875 
L 47.609375 0 
L 37.796875 0 
L 37.796875 17.1875 
L 4.890625 17.1875 
L 4.890625 26.703125 
z
" id="DejaVuSans-52"/>
    </defs>
    <g transform="translate(137.009231 293.528606)scale(0.1 -0.1)">
     <use transform="translate(0 0.015625)" xlink:href="#DejaVuSans-67"/>
     <use transform="translate(69.824219 0.015625)" xlink:href="#DejaVuSans-104"/>
     <use transform="translate(133.203125 0.015625)" xlink:href="#DejaVuSans-97"/>
     <use transform="translate(194.482422 0.015625)" xlink:href="#DejaVuSans-114"/>
     <use transform="translate(235.595703 0.015625)" xlink:href="#DejaVuSans-97"/>
     <use transform="translate(296.875 0.015625)" xlink:href="#DejaVuSans-99"/>
     <use transform="translate(351.855469 0.015625)" xlink:href="#DejaVuSans-116"/>
     <use transform="translate(391.064453 0.015625)" xlink:href="#DejaVuSans-101"/>
     <use transform="translate(452.587891 0.015625)" xlink:href="#DejaVuSans-114"/>
     <use transform="translate(494.658203 -16.390625)scale(0.7)" xlink:href="#DejaVuSans-Oblique-116"/>
     <use transform="translate(535.742188 -16.390625)scale(0.7)" xlink:href="#DejaVuSans-8722"/>
     <use transform="translate(608.032227 -16.390625)scale(0.7)" xlink:href="#DejaVuSans-52"/>
    </g>
   </g>
   <g id="text_9">
    <!-- Character$_{t-5}$ -->
    <g transform="translate(137.009231 278.076298)scale(0.1 -0.1)">
     <use transform="translate(0 0.015625)" xlink:href="#DejaVuSans-67"/>
     <use transform="translate(69.824219 0.015625)" xlink:href="#DejaVuSans-104"/>
     <use transform="translate(133.203125 0.015625)" xlink:href="#DejaVuSans-97"/>
     <use transform="translate(194.482422 0.015625)" xlink:href="#DejaVuSans-114"/>
     <use transform="translate(235.595703 0.015625)" xlink:href="#DejaVuSans-97"/>
     <use transform="translate(296.875 0.015625)" xlink:href="#DejaVuSans-99"/>
     <use transform="translate(351.855469 0.015625)" xlink:href="#DejaVuSans-116"/>
     <use transform="translate(391.064453 0.015625)" xlink:href="#DejaVuSans-101"/>
     <use transform="translate(452.587891 0.015625)" xlink:href="#DejaVuSans-114"/>
     <use transform="translate(494.658203 -16.390625)scale(0.7)" xlink:href="#DejaVuSans-Oblique-116"/>
     <use transform="translate(535.742188 -16.390625)scale(0.7)" xlink:href="#DejaVuSans-8722"/>
     <use transform="translate(608.032227 -16.390625)scale(0.7)" xlink:href="#DejaVuSans-53"/>
    </g>
   </g>
   <g id="text_10">
    <!-- Character$_{t-6}$ -->
    <defs>
     <path d="M 33.015625 40.375 
Q 26.375 40.375 22.484375 35.828125 
Q 18.609375 31.296875 18.609375 23.390625 
Q 18.609375 15.53125 22.484375 10.953125 
Q 26.375 6.390625 33.015625 6.390625 
Q 39.65625 6.390625 43.53125 10.953125 
Q 47.40625 15.53125 47.40625 23.390625 
Q 47.40625 31.296875 43.53125 35.828125 
Q 39.65625 40.375 33.015625 40.375 
z
M 52.59375 71.296875 
L 52.59375 62.3125 
Q 48.875 64.0625 45.09375 64.984375 
Q 41.3125 65.921875 37.59375 65.921875 
Q 27.828125 65.921875 22.671875 59.328125 
Q 17.53125 52.734375 16.796875 39.40625 
Q 19.671875 43.65625 24.015625 45.921875 
Q 28.375 48.1875 33.59375 48.1875 
Q 44.578125 48.1875 50.953125 41.515625 
Q 57.328125 34.859375 57.328125 23.390625 
Q 57.328125 12.15625 50.6875 5.359375 
Q 44.046875 -1.421875 33.015625 -1.421875 
Q 20.359375 -1.421875 13.671875 8.265625 
Q 6.984375 17.96875 6.984375 36.375 
Q 6.984375 53.65625 15.1875 63.9375 
Q 23.390625 74.21875 37.203125 74.21875 
Q 40.921875 74.21875 44.703125 73.484375 
Q 48.484375 72.75 52.59375 71.296875 
z
" id="DejaVuSans-54"/>
    </defs>
    <g transform="translate(137.009231 262.62399)scale(0.1 -0.1)">
     <use transform="translate(0 0.015625)" xlink:href="#DejaVuSans-67"/>
     <use transform="translate(69.824219 0.015625)" xlink:href="#DejaVuSans-104"/>
     <use transform="translate(133.203125 0.015625)" xlink:href="#DejaVuSans-97"/>
     <use transform="translate(194.482422 0.015625)" xlink:href="#DejaVuSans-114"/>
     <use transform="translate(235.595703 0.015625)" xlink:href="#DejaVuSans-97"/>
     <use transform="translate(296.875 0.015625)" xlink:href="#DejaVuSans-99"/>
     <use transform="translate(351.855469 0.015625)" xlink:href="#DejaVuSans-116"/>
     <use transform="translate(391.064453 0.015625)" xlink:href="#DejaVuSans-101"/>
     <use transform="translate(452.587891 0.015625)" xlink:href="#DejaVuSans-114"/>
     <use transform="translate(494.658203 -16.390625)scale(0.7)" xlink:href="#DejaVuSans-Oblique-116"/>
     <use transform="translate(535.742188 -16.390625)scale(0.7)" xlink:href="#DejaVuSans-8722"/>
     <use transform="translate(608.032227 -16.390625)scale(0.7)" xlink:href="#DejaVuSans-54"/>
    </g>
   </g>
   <g id="text_11">
    <!-- Character$_{t-7}$ -->
    <defs>
     <path d="M 8.203125 72.90625 
L 55.078125 72.90625 
L 55.078125 68.703125 
L 28.609375 0 
L 18.3125 0 
L 43.21875 64.59375 
L 8.203125 64.59375 
z
" id="DejaVuSans-55"/>
    </defs>
    <g transform="translate(137.009231 247.171683)scale(0.1 -0.1)">
     <use transform="translate(0 0.015625)" xlink:href="#DejaVuSans-67"/>
     <use transform="translate(69.824219 0.015625)" xlink:href="#DejaVuSans-104"/>
     <use transform="translate(133.203125 0.015625)" xlink:href="#DejaVuSans-97"/>
     <use transform="translate(194.482422 0.015625)" xlink:href="#DejaVuSans-114"/>
     <use transform="translate(235.595703 0.015625)" xlink:href="#DejaVuSans-97"/>
     <use transform="translate(296.875 0.015625)" xlink:href="#DejaVuSans-99"/>
     <use transform="translate(351.855469 0.015625)" xlink:href="#DejaVuSans-116"/>
     <use transform="translate(391.064453 0.015625)" xlink:href="#DejaVuSans-101"/>
     <use transform="translate(452.587891 0.015625)" xlink:href="#DejaVuSans-114"/>
     <use transform="translate(494.658203 -16.390625)scale(0.7)" xlink:href="#DejaVuSans-Oblique-116"/>
     <use transform="translate(535.742188 -16.390625)scale(0.7)" xlink:href="#DejaVuSans-8722"/>
     <use transform="translate(608.032227 -16.390625)scale(0.7)" xlink:href="#DejaVuSans-55"/>
    </g>
   </g>
   <g id="text_12">
    <!-- Character$_{t-8}$ -->
    <defs>
     <path d="M 31.78125 34.625 
Q 24.75 34.625 20.71875 30.859375 
Q 16.703125 27.09375 16.703125 20.515625 
Q 16.703125 13.921875 20.71875 10.15625 
Q 24.75 6.390625 31.78125 6.390625 
Q 38.8125 6.390625 42.859375 10.171875 
Q 46.921875 13.96875 46.921875 20.515625 
Q 46.921875 27.09375 42.890625 30.859375 
Q 38.875 34.625 31.78125 34.625 
z
M 21.921875 38.8125 
Q 15.578125 40.375 12.03125 44.71875 
Q 8.5 49.078125 8.5 55.328125 
Q 8.5 64.0625 14.71875 69.140625 
Q 20.953125 74.21875 31.78125 74.21875 
Q 42.671875 74.21875 48.875 69.140625 
Q 55.078125 64.0625 55.078125 55.328125 
Q 55.078125 49.078125 51.53125 44.71875 
Q 48 40.375 41.703125 38.8125 
Q 48.828125 37.15625 52.796875 32.3125 
Q 56.78125 27.484375 56.78125 20.515625 
Q 56.78125 9.90625 50.3125 4.234375 
Q 43.84375 -1.421875 31.78125 -1.421875 
Q 19.734375 -1.421875 13.25 4.234375 
Q 6.78125 9.90625 6.78125 20.515625 
Q 6.78125 27.484375 10.78125 32.3125 
Q 14.796875 37.15625 21.921875 38.8125 
z
M 18.3125 54.390625 
Q 18.3125 48.734375 21.84375 45.5625 
Q 25.390625 42.390625 31.78125 42.390625 
Q 38.140625 42.390625 41.71875 45.5625 
Q 45.3125 48.734375 45.3125 54.390625 
Q 45.3125 60.0625 41.71875 63.234375 
Q 38.140625 66.40625 31.78125 66.40625 
Q 25.390625 66.40625 21.84375 63.234375 
Q 18.3125 60.0625 18.3125 54.390625 
z
" id="DejaVuSans-56"/>
    </defs>
    <g transform="translate(137.009231 231.719375)scale(0.1 -0.1)">
     <use transform="translate(0 0.015625)" xlink:href="#DejaVuSans-67"/>
     <use transform="translate(69.824219 0.015625)" xlink:href="#DejaVuSans-104"/>
     <use transform="translate(133.203125 0.015625)" xlink:href="#DejaVuSans-97"/>
     <use transform="translate(194.482422 0.015625)" xlink:href="#DejaVuSans-114"/>
     <use transform="translate(235.595703 0.015625)" xlink:href="#DejaVuSans-97"/>
     <use transform="translate(296.875 0.015625)" xlink:href="#DejaVuSans-99"/>
     <use transform="translate(351.855469 0.015625)" xlink:href="#DejaVuSans-116"/>
     <use transform="translate(391.064453 0.015625)" xlink:href="#DejaVuSans-101"/>
     <use transform="translate(452.587891 0.015625)" xlink:href="#DejaVuSans-114"/>
     <use transform="translate(494.658203 -16.390625)scale(0.7)" xlink:href="#DejaVuSans-Oblique-116"/>
     <use transform="translate(535.742188 -16.390625)scale(0.7)" xlink:href="#DejaVuSans-8722"/>
     <use transform="translate(608.032227 -16.390625)scale(0.7)" xlink:href="#DejaVuSans-56"/>
    </g>
   </g>
   <g id="text_13">
    <!-- Character$_{t-9}$ -->
    <defs>
     <path d="M 10.984375 1.515625 
L 10.984375 10.5 
Q 14.703125 8.734375 18.5 7.8125 
Q 22.3125 6.890625 25.984375 6.890625 
Q 35.75 6.890625 40.890625 13.453125 
Q 46.046875 20.015625 46.78125 33.40625 
Q 43.953125 29.203125 39.59375 26.953125 
Q 35.25 24.703125 29.984375 24.703125 
Q 19.046875 24.703125 12.671875 31.3125 
Q 6.296875 37.9375 6.296875 49.421875 
Q 6.296875 60.640625 12.9375 67.421875 
Q 19.578125 74.21875 30.609375 74.21875 
Q 43.265625 74.21875 49.921875 64.515625 
Q 56.59375 54.828125 56.59375 36.375 
Q 56.59375 19.140625 48.40625 8.859375 
Q 40.234375 -1.421875 26.421875 -1.421875 
Q 22.703125 -1.421875 18.890625 -0.6875 
Q 15.09375 0.046875 10.984375 1.515625 
z
M 30.609375 32.421875 
Q 37.25 32.421875 41.125 36.953125 
Q 45.015625 41.5 45.015625 49.421875 
Q 45.015625 57.28125 41.125 61.84375 
Q 37.25 66.40625 30.609375 66.40625 
Q 23.96875 66.40625 20.09375 61.84375 
Q 16.21875 57.28125 16.21875 49.421875 
Q 16.21875 41.5 20.09375 36.953125 
Q 23.96875 32.421875 30.609375 32.421875 
z
" id="DejaVuSans-57"/>
    </defs>
    <g transform="translate(137.009231 216.267067)scale(0.1 -0.1)">
     <use transform="translate(0 0.015625)" xlink:href="#DejaVuSans-67"/>
     <use transform="translate(69.824219 0.015625)" xlink:href="#DejaVuSans-104"/>
     <use transform="translate(133.203125 0.015625)" xlink:href="#DejaVuSans-97"/>
     <use transform="translate(194.482422 0.015625)" xlink:href="#DejaVuSans-114"/>
     <use transform="translate(235.595703 0.015625)" xlink:href="#DejaVuSans-97"/>
     <use transform="translate(296.875 0.015625)" xlink:href="#DejaVuSans-99"/>
     <use transform="translate(351.855469 0.015625)" xlink:href="#DejaVuSans-116"/>
     <use transform="translate(391.064453 0.015625)" xlink:href="#DejaVuSans-101"/>
     <use transform="translate(452.587891 0.015625)" xlink:href="#DejaVuSans-114"/>
     <use transform="translate(494.658203 -16.390625)scale(0.7)" xlink:href="#DejaVuSans-Oblique-116"/>
     <use transform="translate(535.742188 -16.390625)scale(0.7)" xlink:href="#DejaVuSans-8722"/>
     <use transform="translate(608.032227 -16.390625)scale(0.7)" xlink:href="#DejaVuSans-57"/>
    </g>
   </g>
   <g id="text_14">
    <!-- Encoder -->
    <defs>
     <path d="M 9.8125 72.90625 
L 55.90625 72.90625 
L 55.90625 64.59375 
L 19.671875 64.59375 
L 19.671875 43.015625 
L 54.390625 43.015625 
L 54.390625 34.71875 
L 19.671875 34.71875 
L 19.671875 8.296875 
L 56.78125 8.296875 
L 56.78125 0 
L 9.8125 0 
z
" id="DejaVuSans-69"/>
    </defs>
    <g transform="translate(145.277668 433.15125)scale(0.12 -0.12)">
     <use xlink:href="#DejaVuSans-69"/>
     <use x="63.183594" xlink:href="#DejaVuSans-110"/>
     <use x="126.5625" xlink:href="#DejaVuSans-99"/>
     <use x="181.542969" xlink:href="#DejaVuSans-111"/>
     <use x="242.724609" xlink:href="#DejaVuSans-100"/>
     <use x="306.201172" xlink:href="#DejaVuSans-101"/>
     <use x="367.724609" xlink:href="#DejaVuSans-114"/>
    </g>
   </g>
   <g id="text_15">
    <!-- KNN -->
    <defs>
     <path d="M 9.8125 72.90625 
L 19.671875 72.90625 
L 19.671875 42.09375 
L 52.390625 72.90625 
L 65.09375 72.90625 
L 28.90625 38.921875 
L 67.671875 0 
L 54.6875 0 
L 19.671875 35.109375 
L 19.671875 0 
L 9.8125 0 
z
" id="DejaVuSans-75"/>
    </defs>
    <g transform="translate(687.426274 433.15125)scale(0.12 -0.12)">
     <use xlink:href="#DejaVuSans-75"/>
     <use x="65.576172" xlink:href="#DejaVuSans-78"/>
     <use x="140.380859" xlink:href="#DejaVuSans-78"/>
    </g>
   </g>
   <g id="text_16">
    <!-- Character$_{t+1}$ -->
    <defs>
     <path d="M 46 62.703125 
L 46 35.5 
L 73.1875 35.5 
L 73.1875 27.203125 
L 46 27.203125 
L 46 0 
L 37.796875 0 
L 37.796875 27.203125 
L 10.59375 27.203125 
L 10.59375 35.5 
L 37.796875 35.5 
L 37.796875 62.703125 
z
" id="DejaVuSans-43"/>
    </defs>
    <g transform="translate(667.538462 509.860913)scale(0.1 -0.1)">
     <use transform="translate(0 0.015625)" xlink:href="#DejaVuSans-67"/>
     <use transform="translate(69.824219 0.015625)" xlink:href="#DejaVuSans-104"/>
     <use transform="translate(133.203125 0.015625)" xlink:href="#DejaVuSans-97"/>
     <use transform="translate(194.482422 0.015625)" xlink:href="#DejaVuSans-114"/>
     <use transform="translate(235.595703 0.015625)" xlink:href="#DejaVuSans-97"/>
     <use transform="translate(296.875 0.015625)" xlink:href="#DejaVuSans-99"/>
     <use transform="translate(351.855469 0.015625)" xlink:href="#DejaVuSans-116"/>
     <use transform="translate(391.064453 0.015625)" xlink:href="#DejaVuSans-101"/>
     <use transform="translate(452.587891 0.015625)" xlink:href="#DejaVuSans-114"/>
     <use transform="translate(494.658203 -16.390625)scale(0.7)" xlink:href="#DejaVuSans-Oblique-116"/>
     <use transform="translate(535.742188 -16.390625)scale(0.7)" xlink:href="#DejaVuSans-43"/>
     <use transform="translate(608.032227 -16.390625)scale(0.7)" xlink:href="#DejaVuSans-49"/>
    </g>
   </g>
   <g id="text_17">
    <!-- Spiking Activity -->
    <defs>
     <path d="M 45.40625 27.984375 
Q 45.40625 37.75 41.375 43.109375 
Q 37.359375 48.484375 30.078125 48.484375 
Q 22.859375 48.484375 18.828125 43.109375 
Q 14.796875 37.75 14.796875 27.984375 
Q 14.796875 18.265625 18.828125 12.890625 
Q 22.859375 7.515625 30.078125 7.515625 
Q 37.359375 7.515625 41.375 12.890625 
Q 45.40625 18.265625 45.40625 27.984375 
z
M 54.390625 6.78125 
Q 54.390625 -7.171875 48.1875 -13.984375 
Q 42 -20.796875 29.203125 -20.796875 
Q 24.46875 -20.796875 20.265625 -20.09375 
Q 16.0625 -19.390625 12.109375 -17.921875 
L 12.109375 -9.1875 
Q 16.0625 -11.328125 19.921875 -12.34375 
Q 23.78125 -13.375 27.78125 -13.375 
Q 36.625 -13.375 41.015625 -8.765625 
Q 45.40625 -4.15625 45.40625 5.171875 
L 45.40625 9.625 
Q 42.625 4.78125 38.28125 2.390625 
Q 33.9375 0 27.875 0 
Q 17.828125 0 11.671875 7.65625 
Q 5.515625 15.328125 5.515625 27.984375 
Q 5.515625 40.671875 11.671875 48.328125 
Q 17.828125 56 27.875 56 
Q 33.9375 56 38.28125 53.609375 
Q 42.625 51.21875 45.40625 46.390625 
L 45.40625 54.6875 
L 54.390625 54.6875 
z
" id="DejaVuSans-103"/>
     <path d="M 34.1875 63.1875 
L 20.796875 26.90625 
L 47.609375 26.90625 
z
M 28.609375 72.90625 
L 39.796875 72.90625 
L 67.578125 0 
L 57.328125 0 
L 50.6875 18.703125 
L 17.828125 18.703125 
L 11.1875 0 
L 0.78125 0 
z
" id="DejaVuSans-65"/>
     <path d="M 2.984375 54.6875 
L 12.5 54.6875 
L 29.59375 8.796875 
L 46.6875 54.6875 
L 56.203125 54.6875 
L 35.6875 0 
L 23.484375 0 
z
" id="DejaVuSans-118"/>
     <path d="M 32.171875 -5.078125 
Q 28.375 -14.84375 24.75 -17.8125 
Q 21.140625 -20.796875 15.09375 -20.796875 
L 7.90625 -20.796875 
L 7.90625 -13.28125 
L 13.1875 -13.28125 
Q 16.890625 -13.28125 18.9375 -11.515625 
Q 21 -9.765625 23.484375 -3.21875 
L 25.09375 0.875 
L 2.984375 54.6875 
L 12.5 54.6875 
L 29.59375 11.921875 
L 46.6875 54.6875 
L 56.203125 54.6875 
z
" id="DejaVuSans-121"/>
    </defs>
    <g transform="translate(642.228696 683.119165)scale(0.15 -0.15)">
     <use xlink:href="#DejaVuSans-83"/>
     <use x="63.476562" xlink:href="#DejaVuSans-112"/>
     <use x="126.953125" xlink:href="#DejaVuSans-105"/>
     <use x="154.736328" xlink:href="#DejaVuSans-107"/>
     <use x="212.646484" xlink:href="#DejaVuSans-105"/>
     <use x="240.429688" xlink:href="#DejaVuSans-110"/>
     <use x="303.808594" xlink:href="#DejaVuSans-103"/>
     <use x="367.285156" xlink:href="#DejaVuSans-32"/>
     <use x="399.072266" xlink:href="#DejaVuSans-65"/>
     <use x="467.464844" xlink:href="#DejaVuSans-99"/>
     <use x="522.445312" xlink:href="#DejaVuSans-116"/>
     <use x="561.654297" xlink:href="#DejaVuSans-105"/>
     <use x="589.4375" xlink:href="#DejaVuSans-118"/>
     <use x="648.617188" xlink:href="#DejaVuSans-105"/>
     <use x="676.400391" xlink:href="#DejaVuSans-116"/>
     <use x="715.609375" xlink:href="#DejaVuSans-121"/>
    </g>
    <!-- Classifier -->
    <defs>
     <path d="M 37.109375 75.984375 
L 37.109375 68.5 
L 28.515625 68.5 
Q 23.6875 68.5 21.796875 66.546875 
Q 19.921875 64.59375 19.921875 59.515625 
L 19.921875 54.6875 
L 34.71875 54.6875 
L 34.71875 47.703125 
L 19.921875 47.703125 
L 19.921875 0 
L 10.890625 0 
L 10.890625 47.703125 
L 2.296875 47.703125 
L 2.296875 54.6875 
L 10.890625 54.6875 
L 10.890625 58.5 
Q 10.890625 67.625 15.140625 71.796875 
Q 19.390625 75.984375 28.609375 75.984375 
z
" id="DejaVuSans-102"/>
    </defs>
    <g transform="translate(666.102133 699.915883)scale(0.15 -0.15)">
     <use xlink:href="#DejaVuSans-67"/>
     <use x="69.824219" xlink:href="#DejaVuSans-108"/>
     <use x="97.607422" xlink:href="#DejaVuSans-97"/>
     <use x="158.886719" xlink:href="#DejaVuSans-115"/>
     <use x="210.986328" xlink:href="#DejaVuSans-115"/>
     <use x="263.085938" xlink:href="#DejaVuSans-105"/>
     <use x="290.869141" xlink:href="#DejaVuSans-102"/>
     <use x="326.074219" xlink:href="#DejaVuSans-105"/>
     <use x="353.857422" xlink:href="#DejaVuSans-101"/>
     <use x="415.380859" xlink:href="#DejaVuSans-114"/>
    </g>
   </g>
   <g id="patch_72">
    <path clip-path="url(#p93eba4d3d0)" d="M 262.523077 651.323077 
C 266.621077 651.323077 270.551785 649.694924 273.449508 646.797201 
C 276.347232 643.899477 277.975385 639.968769 277.975385 635.870769 
C 277.975385 631.772769 276.347232 627.842061 273.449508 624.944338 
C 270.551785 622.046614 266.621077 620.418462 262.523077 620.418462 
C 258.425077 620.418462 254.494369 622.046614 251.596645 624.944338 
C 248.698922 627.842061 247.070769 631.772769 247.070769 635.870769 
C 247.070769 639.968769 248.698922 643.899477 251.596645 646.797201 
C 254.494369 649.694924 258.425077 651.323077 262.523077 651.323077 
z
" style="fill:#ffffff;stroke:#000000;stroke-linejoin:miter;"/>
   </g>
   <g id="patch_73">
    <path clip-path="url(#p93eba4d3d0)" d="M 262.523077 604.966154 
C 266.621077 604.966154 270.551785 603.338001 273.449508 600.440278 
C 276.347232 597.542554 277.975385 593.611846 277.975385 589.513846 
C 277.975385 585.415846 276.347232 581.485138 273.449508 578.587415 
C 270.551785 575.689691 266.621077 574.061538 262.523077 574.061538 
C 258.425077 574.061538 254.494369 575.689691 251.596645 578.587415 
C 248.698922 581.485138 247.070769 585.415846 247.070769 589.513846 
C 247.070769 593.611846 248.698922 597.542554 251.596645 600.440278 
C 254.494369 603.338001 258.425077 604.966154 262.523077 604.966154 
z
" style="fill:#ffffff;stroke:#000000;stroke-linejoin:miter;"/>
   </g>
   <g id="patch_74">
    <path clip-path="url(#p93eba4d3d0)" d="M 262.523077 558.609231 
C 266.621077 558.609231 270.551785 556.981078 273.449508 554.083355 
C 276.347232 551.185631 277.975385 547.254923 277.975385 543.156923 
C 277.975385 539.058923 276.347232 535.128215 273.449508 532.230492 
C 270.551785 529.332768 266.621077 527.704615 262.523077 527.704615 
C 258.425077 527.704615 254.494369 529.332768 251.596645 532.230492 
C 248.698922 535.128215 247.070769 539.058923 247.070769 543.156923 
C 247.070769 547.254923 248.698922 551.185631 251.596645 554.083355 
C 254.494369 556.981078 258.425077 558.609231 262.523077 558.609231 
z
" style="fill:#ffffff;stroke:#000000;stroke-linejoin:miter;"/>
   </g>
   <g id="patch_75">
    <path clip-path="url(#p93eba4d3d0)" d="M 262.523077 512.252308 
C 266.621077 512.252308 270.551785 510.624155 273.449508 507.726432 
C 276.347232 504.828708 277.975385 500.898 277.975385 496.8 
C 277.975385 492.702 276.347232 488.771292 273.449508 485.873568 
C 270.551785 482.975845 266.621077 481.347692 262.523077 481.347692 
C 258.425077 481.347692 254.494369 482.975845 251.596645 485.873568 
C 248.698922 488.771292 247.070769 492.702 247.070769 496.8 
C 247.070769 500.898 248.698922 504.828708 251.596645 507.726432 
C 254.494369 510.624155 258.425077 512.252308 262.523077 512.252308 
z
" style="fill:#ffffff;stroke:#000000;stroke-linejoin:miter;"/>
   </g>
   <g id="patch_76">
    <path clip-path="url(#p93eba4d3d0)" d="M 262.523077 465.895385 
C 266.621077 465.895385 270.551785 464.267232 273.449508 461.369508 
C 276.347232 458.471785 277.975385 454.541077 277.975385 450.443077 
C 277.975385 446.345077 276.347232 442.414369 273.449508 439.516645 
C 270.551785 436.618922 266.621077 434.990769 262.523077 434.990769 
C 258.425077 434.990769 254.494369 436.618922 251.596645 439.516645 
C 248.698922 442.414369 247.070769 446.345077 247.070769 450.443077 
C 247.070769 454.541077 248.698922 458.471785 251.596645 461.369508 
C 254.494369 464.267232 258.425077 465.895385 262.523077 465.895385 
z
" style="fill:#ffffff;stroke:#000000;stroke-linejoin:miter;"/>
   </g>
   <g id="patch_77">
    <path clip-path="url(#p93eba4d3d0)" d="M 262.523077 419.538462 
C 266.621077 419.538462 270.551785 417.910309 273.449508 415.012585 
C 276.347232 412.114862 277.975385 408.184154 277.975385 404.086154 
C 277.975385 399.988154 276.347232 396.057446 273.449508 393.159722 
C 270.551785 390.261999 266.621077 388.633846 262.523077 388.633846 
C 258.425077 388.633846 254.494369 390.261999 251.596645 393.159722 
C 248.698922 396.057446 247.070769 399.988154 247.070769 404.086154 
C 247.070769 408.184154 248.698922 412.114862 251.596645 415.012585 
C 254.494369 417.910309 258.425077 419.538462 262.523077 419.538462 
z
" style="fill:#ffffff;stroke:#000000;stroke-linejoin:miter;"/>
   </g>
   <g id="patch_78">
    <path clip-path="url(#p93eba4d3d0)" d="M 262.523077 373.181538 
C 266.621077 373.181538 270.551785 371.553386 273.449508 368.655662 
C 276.347232 365.757939 277.975385 361.827231 277.975385 357.729231 
C 277.975385 353.631231 276.347232 349.700523 273.449508 346.802799 
C 270.551785 343.905076 266.621077 342.276923 262.523077 342.276923 
C 258.425077 342.276923 254.494369 343.905076 251.596645 346.802799 
C 248.698922 349.700523 247.070769 353.631231 247.070769 357.729231 
C 247.070769 361.827231 248.698922 365.757939 251.596645 368.655662 
C 254.494369 371.553386 258.425077 373.181538 262.523077 373.181538 
z
" style="fill:#ffffff;stroke:#000000;stroke-linejoin:miter;"/>
   </g>
   <g id="patch_79">
    <path clip-path="url(#p93eba4d3d0)" d="M 262.523077 326.824615 
C 266.621077 326.824615 270.551785 325.196463 273.449508 322.298739 
C 276.347232 319.401016 277.975385 315.470308 277.975385 311.372308 
C 277.975385 307.274308 276.347232 303.3436 273.449508 300.445876 
C 270.551785 297.548153 266.621077 295.92 262.523077 295.92 
C 258.425077 295.92 254.494369 297.548153 251.596645 300.445876 
C 248.698922 303.3436 247.070769 307.274308 247.070769 311.372308 
C 247.070769 315.470308 248.698922 319.401016 251.596645 322.298739 
C 254.494369 325.196463 258.425077 326.824615 262.523077 326.824615 
z
" style="fill:#ffffff;stroke:#000000;stroke-linejoin:miter;"/>
   </g>
   <g id="patch_80">
    <path clip-path="url(#p93eba4d3d0)" d="M 262.523077 280.467692 
C 266.621077 280.467692 270.551785 278.83954 273.449508 275.941816 
C 276.347232 273.044093 277.975385 269.113385 277.975385 265.015385 
C 277.975385 260.917385 276.347232 256.986677 273.449508 254.088953 
C 270.551785 251.19123 266.621077 249.563077 262.523077 249.563077 
C 258.425077 249.563077 254.494369 251.19123 251.596645 254.088953 
C 248.698922 256.986677 247.070769 260.917385 247.070769 265.015385 
C 247.070769 269.113385 248.698922 273.044093 251.596645 275.941816 
C 254.494369 278.83954 258.425077 280.467692 262.523077 280.467692 
z
" style="fill:#ffffff;stroke:#000000;stroke-linejoin:miter;"/>
   </g>
   <g id="patch_81">
    <path clip-path="url(#p93eba4d3d0)" d="M 262.523077 234.110769 
C 266.621077 234.110769 270.551785 232.482617 273.449508 229.584893 
C 276.347232 226.68717 277.975385 222.756461 277.975385 218.658462 
C 277.975385 214.560462 276.347232 210.629754 273.449508 207.73203 
C 270.551785 204.834306 266.621077 203.206154 262.523077 203.206154 
C 258.425077 203.206154 254.494369 204.834306 251.596645 207.73203 
C 248.698922 210.629754 247.070769 214.560462 247.070769 218.658462 
C 247.070769 222.756461 248.698922 226.68717 251.596645 229.584893 
C 254.494369 232.482617 258.425077 234.110769 262.523077 234.110769 
z
" style="fill:#ffffff;stroke:#000000;stroke-linejoin:miter;"/>
   </g>
  </g>
 </g>
 <defs>
  <clipPath id="p93eba4d3d0">
   <rect height="515.076923" width="669.6" x="108" y="172.301538"/>
  </clipPath>
 </defs>
</svg>
