<?xml version="1.0" encoding="utf-8" standalone="no"?>
<!DOCTYPE svg PUBLIC "-//W3C//DTD SVG 1.1//EN"
  "http://www.w3.org/Graphics/SVG/1.1/DTD/svg11.dtd">
<!-- Created with matplotlib (https://matplotlib.org/) -->
<svg height="864pt" version="1.1" viewBox="0 0 864 864" width="864pt" xmlns="http://www.w3.org/2000/svg" xmlns:xlink="http://www.w3.org/1999/xlink">
 <defs>
  <style type="text/css">
*{stroke-linecap:butt;stroke-linejoin:round;}
  </style>
 </defs>
 <g id="figure_1">
  <g id="patch_1">
   <path d="M 0 864 
L 864 864 
L 864 0 
L 0 0 
z
" style="fill:#ffffff;"/>
  </g>
  <g id="axes_1">
   <g id="patch_2">
    <path clip-path="url(#p179cb54c32)" d="M 177.192 360.09 
L 172.728 360.09 
L 172.728 391.338 
L 168.264 391.338 
L 174.96 399.15 
L 181.656 391.338 
L 177.192 391.338 
z
" style="fill:none;stroke:#000000;stroke-linejoin:miter;"/>
   </g>
   <g id="patch_3">
    <path clip-path="url(#p179cb54c32)" d="M 130.32 449.37 
L 214.02 449.37 
L 214.02 404.73 
L 130.32 404.73 
z
" style="fill:none;stroke:#000000;stroke-linejoin:miter;"/>
   </g>
   <g id="patch_4">
    <path clip-path="url(#p179cb54c32)" d="M 668.79 449.37 
L 752.49 449.37 
L 752.49 404.73 
L 668.79 404.73 
z
" style="fill:none;stroke:#000000;stroke-linejoin:miter;"/>
   </g>
   <g id="patch_5">
    <path clip-path="url(#p179cb54c32)" d="M 712.872 460.53 
L 708.408 460.53 
L 708.408 491.778 
L 703.944 491.778 
L 710.64 499.59 
L 717.336 491.778 
L 712.872 491.778 
z
" style="fill:none;stroke:#000000;stroke-linejoin:miter;"/>
   </g>
   <g id="line2d_1">
    <path clip-path="url(#p179cb54c32)" d="M 214.02 429.84 
L 275.4 653.04 
" style="fill:none;stroke:#000000;stroke-linecap:square;stroke-opacity:0.9;stroke-width:0.7;"/>
   </g>
   <g id="line2d_2">
    <path clip-path="url(#p179cb54c32)" d="M 214.02 429.84 
L 275.4 602.82 
" style="fill:none;stroke:#000000;stroke-linecap:square;stroke-opacity:0.9;stroke-width:0.7;"/>
   </g>
   <g id="line2d_3">
    <path clip-path="url(#p179cb54c32)" d="M 214.02 429.84 
L 275.4 552.6 
" style="fill:none;stroke:#000000;stroke-linecap:square;stroke-opacity:0.9;stroke-width:0.7;"/>
   </g>
   <g id="line2d_4">
    <path clip-path="url(#p179cb54c32)" d="M 214.02 429.84 
L 275.4 502.38 
" style="fill:none;stroke:#000000;stroke-linecap:square;stroke-opacity:0.9;stroke-width:0.7;"/>
   </g>
   <g id="line2d_5">
    <path clip-path="url(#p179cb54c32)" d="M 214.02 429.84 
L 275.4 452.16 
" style="fill:none;stroke:#000000;stroke-linecap:square;stroke-opacity:0.9;stroke-width:0.7;"/>
   </g>
   <g id="line2d_6">
    <path clip-path="url(#p179cb54c32)" d="M 214.02 429.84 
L 275.4 401.94 
" style="fill:none;stroke:#000000;stroke-linecap:square;stroke-opacity:0.9;stroke-width:0.7;"/>
   </g>
   <g id="line2d_7">
    <path clip-path="url(#p179cb54c32)" d="M 214.02 429.84 
L 275.4 351.72 
" style="fill:none;stroke:#000000;stroke-linecap:square;stroke-opacity:0.9;stroke-width:0.7;"/>
   </g>
   <g id="line2d_8">
    <path clip-path="url(#p179cb54c32)" d="M 214.02 429.84 
L 275.4 301.5 
" style="fill:none;stroke:#000000;stroke-linecap:square;stroke-opacity:0.9;stroke-width:0.7;"/>
   </g>
   <g id="line2d_9">
    <path clip-path="url(#p179cb54c32)" d="M 214.02 429.84 
L 275.4 251.28 
" style="fill:none;stroke:#000000;stroke-linecap:square;stroke-opacity:0.9;stroke-width:0.7;"/>
   </g>
   <g id="line2d_10">
    <path clip-path="url(#p179cb54c32)" d="M 214.02 429.84 
L 275.4 201.06 
" style="fill:none;stroke:#000000;stroke-linecap:square;stroke-opacity:0.9;stroke-width:0.7;"/>
   </g>
   <g id="line2d_11">
    <path clip-path="url(#p179cb54c32)" d="M 275.4 653.04 
L 442.8 602.82 
" style="fill:none;stroke:#000000;stroke-linecap:square;stroke-opacity:0.9;stroke-width:0.7;"/>
   </g>
   <g id="line2d_12">
    <path clip-path="url(#p179cb54c32)" d="M 275.4 602.82 
L 442.8 602.82 
" style="fill:none;stroke:#000000;stroke-linecap:square;stroke-opacity:0.9;stroke-width:0.7;"/>
   </g>
   <g id="line2d_13">
    <path clip-path="url(#p179cb54c32)" d="M 275.4 552.6 
L 442.8 602.82 
" style="fill:none;stroke:#000000;stroke-linecap:square;stroke-opacity:0.9;stroke-width:0.7;"/>
   </g>
   <g id="line2d_14">
    <path clip-path="url(#p179cb54c32)" d="M 275.4 502.38 
L 442.8 602.82 
" style="fill:none;stroke:#000000;stroke-linecap:square;stroke-opacity:0.9;stroke-width:0.7;"/>
   </g>
   <g id="line2d_15">
    <path clip-path="url(#p179cb54c32)" d="M 275.4 452.16 
L 442.8 602.82 
" style="fill:none;stroke:#000000;stroke-linecap:square;stroke-opacity:0.9;stroke-width:0.7;"/>
   </g>
   <g id="line2d_16">
    <path clip-path="url(#p179cb54c32)" d="M 275.4 401.94 
L 442.8 602.82 
" style="fill:none;stroke:#000000;stroke-linecap:square;stroke-opacity:0.9;stroke-width:0.7;"/>
   </g>
   <g id="line2d_17">
    <path clip-path="url(#p179cb54c32)" d="M 275.4 351.72 
L 442.8 602.82 
" style="fill:none;stroke:#000000;stroke-linecap:square;stroke-opacity:0.9;stroke-width:0.7;"/>
   </g>
   <g id="line2d_18">
    <path clip-path="url(#p179cb54c32)" d="M 275.4 301.5 
L 442.8 602.82 
" style="fill:none;stroke:#000000;stroke-linecap:square;stroke-opacity:0.9;stroke-width:0.7;"/>
   </g>
   <g id="line2d_19">
    <path clip-path="url(#p179cb54c32)" d="M 275.4 251.28 
L 442.8 602.82 
" style="fill:none;stroke:#000000;stroke-linecap:square;stroke-opacity:0.9;stroke-width:0.7;"/>
   </g>
   <g id="line2d_20">
    <path clip-path="url(#p179cb54c32)" d="M 275.4 201.06 
L 442.8 602.82 
" style="fill:none;stroke:#000000;stroke-linecap:square;stroke-opacity:0.9;stroke-width:0.7;"/>
   </g>
   <g id="line2d_21">
    <path clip-path="url(#p179cb54c32)" d="M 275.4 653.04 
L 442.8 552.6 
" style="fill:none;stroke:#000000;stroke-linecap:square;stroke-opacity:0.9;stroke-width:0.7;"/>
   </g>
   <g id="line2d_22">
    <path clip-path="url(#p179cb54c32)" d="M 275.4 602.82 
L 442.8 552.6 
" style="fill:none;stroke:#000000;stroke-linecap:square;stroke-opacity:0.9;stroke-width:0.7;"/>
   </g>
   <g id="line2d_23">
    <path clip-path="url(#p179cb54c32)" d="M 275.4 552.6 
L 442.8 552.6 
" style="fill:none;stroke:#000000;stroke-linecap:square;stroke-opacity:0.9;stroke-width:0.7;"/>
   </g>
   <g id="line2d_24">
    <path clip-path="url(#p179cb54c32)" d="M 275.4 502.38 
L 442.8 552.6 
" style="fill:none;stroke:#000000;stroke-linecap:square;stroke-opacity:0.9;stroke-width:0.7;"/>
   </g>
   <g id="line2d_25">
    <path clip-path="url(#p179cb54c32)" d="M 275.4 452.16 
L 442.8 552.6 
" style="fill:none;stroke:#000000;stroke-linecap:square;stroke-opacity:0.9;stroke-width:0.7;"/>
   </g>
   <g id="line2d_26">
    <path clip-path="url(#p179cb54c32)" d="M 275.4 401.94 
L 442.8 552.6 
" style="fill:none;stroke:#000000;stroke-linecap:square;stroke-opacity:0.9;stroke-width:0.7;"/>
   </g>
   <g id="line2d_27">
    <path clip-path="url(#p179cb54c32)" d="M 275.4 351.72 
L 442.8 552.6 
" style="fill:none;stroke:#000000;stroke-linecap:square;stroke-opacity:0.9;stroke-width:0.7;"/>
   </g>
   <g id="line2d_28">
    <path clip-path="url(#p179cb54c32)" d="M 275.4 301.5 
L 442.8 552.6 
" style="fill:none;stroke:#000000;stroke-linecap:square;stroke-opacity:0.9;stroke-width:0.7;"/>
   </g>
   <g id="line2d_29">
    <path clip-path="url(#p179cb54c32)" d="M 275.4 251.28 
L 442.8 552.6 
" style="fill:none;stroke:#000000;stroke-linecap:square;stroke-opacity:0.9;stroke-width:0.7;"/>
   </g>
   <g id="line2d_30">
    <path clip-path="url(#p179cb54c32)" d="M 275.4 201.06 
L 442.8 552.6 
" style="fill:none;stroke:#000000;stroke-linecap:square;stroke-opacity:0.9;stroke-width:0.7;"/>
   </g>
   <g id="line2d_31">
    <path clip-path="url(#p179cb54c32)" d="M 275.4 653.04 
L 442.8 502.38 
" style="fill:none;stroke:#000000;stroke-linecap:square;stroke-opacity:0.9;stroke-width:0.7;"/>
   </g>
   <g id="line2d_32">
    <path clip-path="url(#p179cb54c32)" d="M 275.4 602.82 
L 442.8 502.38 
" style="fill:none;stroke:#000000;stroke-linecap:square;stroke-opacity:0.9;stroke-width:0.7;"/>
   </g>
   <g id="line2d_33">
    <path clip-path="url(#p179cb54c32)" d="M 275.4 552.6 
L 442.8 502.38 
" style="fill:none;stroke:#000000;stroke-linecap:square;stroke-opacity:0.9;stroke-width:0.7;"/>
   </g>
   <g id="line2d_34">
    <path clip-path="url(#p179cb54c32)" d="M 275.4 502.38 
L 442.8 502.38 
" style="fill:none;stroke:#000000;stroke-linecap:square;stroke-opacity:0.9;stroke-width:0.7;"/>
   </g>
   <g id="line2d_35">
    <path clip-path="url(#p179cb54c32)" d="M 275.4 452.16 
L 442.8 502.38 
" style="fill:none;stroke:#000000;stroke-linecap:square;stroke-opacity:0.9;stroke-width:0.7;"/>
   </g>
   <g id="line2d_36">
    <path clip-path="url(#p179cb54c32)" d="M 275.4 401.94 
L 442.8 502.38 
" style="fill:none;stroke:#000000;stroke-linecap:square;stroke-opacity:0.9;stroke-width:0.7;"/>
   </g>
   <g id="line2d_37">
    <path clip-path="url(#p179cb54c32)" d="M 275.4 351.72 
L 442.8 502.38 
" style="fill:none;stroke:#000000;stroke-linecap:square;stroke-opacity:0.9;stroke-width:0.7;"/>
   </g>
   <g id="line2d_38">
    <path clip-path="url(#p179cb54c32)" d="M 275.4 301.5 
L 442.8 502.38 
" style="fill:none;stroke:#000000;stroke-linecap:square;stroke-opacity:0.9;stroke-width:0.7;"/>
   </g>
   <g id="line2d_39">
    <path clip-path="url(#p179cb54c32)" d="M 275.4 251.28 
L 442.8 502.38 
" style="fill:none;stroke:#000000;stroke-linecap:square;stroke-opacity:0.9;stroke-width:0.7;"/>
   </g>
   <g id="line2d_40">
    <path clip-path="url(#p179cb54c32)" d="M 275.4 201.06 
L 442.8 502.38 
" style="fill:none;stroke:#000000;stroke-linecap:square;stroke-opacity:0.9;stroke-width:0.7;"/>
   </g>
   <g id="line2d_41">
    <path clip-path="url(#p179cb54c32)" d="M 275.4 653.04 
L 442.8 452.16 
" style="fill:none;stroke:#000000;stroke-linecap:square;stroke-opacity:0.9;stroke-width:0.7;"/>
   </g>
   <g id="line2d_42">
    <path clip-path="url(#p179cb54c32)" d="M 275.4 602.82 
L 442.8 452.16 
" style="fill:none;stroke:#000000;stroke-linecap:square;stroke-opacity:0.9;stroke-width:0.7;"/>
   </g>
   <g id="line2d_43">
    <path clip-path="url(#p179cb54c32)" d="M 275.4 552.6 
L 442.8 452.16 
" style="fill:none;stroke:#000000;stroke-linecap:square;stroke-opacity:0.9;stroke-width:0.7;"/>
   </g>
   <g id="line2d_44">
    <path clip-path="url(#p179cb54c32)" d="M 275.4 502.38 
L 442.8 452.16 
" style="fill:none;stroke:#000000;stroke-linecap:square;stroke-opacity:0.9;stroke-width:0.7;"/>
   </g>
   <g id="line2d_45">
    <path clip-path="url(#p179cb54c32)" d="M 275.4 452.16 
L 442.8 452.16 
" style="fill:none;stroke:#000000;stroke-linecap:square;stroke-opacity:0.9;stroke-width:0.7;"/>
   </g>
   <g id="line2d_46">
    <path clip-path="url(#p179cb54c32)" d="M 275.4 401.94 
L 442.8 452.16 
" style="fill:none;stroke:#000000;stroke-linecap:square;stroke-opacity:0.9;stroke-width:0.7;"/>
   </g>
   <g id="line2d_47">
    <path clip-path="url(#p179cb54c32)" d="M 275.4 351.72 
L 442.8 452.16 
" style="fill:none;stroke:#000000;stroke-linecap:square;stroke-opacity:0.9;stroke-width:0.7;"/>
   </g>
   <g id="line2d_48">
    <path clip-path="url(#p179cb54c32)" d="M 275.4 301.5 
L 442.8 452.16 
" style="fill:none;stroke:#000000;stroke-linecap:square;stroke-opacity:0.9;stroke-width:0.7;"/>
   </g>
   <g id="line2d_49">
    <path clip-path="url(#p179cb54c32)" d="M 275.4 251.28 
L 442.8 452.16 
" style="fill:none;stroke:#000000;stroke-linecap:square;stroke-opacity:0.9;stroke-width:0.7;"/>
   </g>
   <g id="line2d_50">
    <path clip-path="url(#p179cb54c32)" d="M 275.4 201.06 
L 442.8 452.16 
" style="fill:none;stroke:#000000;stroke-linecap:square;stroke-opacity:0.9;stroke-width:0.7;"/>
   </g>
   <g id="line2d_51">
    <path clip-path="url(#p179cb54c32)" d="M 275.4 653.04 
L 442.8 401.94 
" style="fill:none;stroke:#000000;stroke-linecap:square;stroke-opacity:0.9;stroke-width:0.7;"/>
   </g>
   <g id="line2d_52">
    <path clip-path="url(#p179cb54c32)" d="M 275.4 602.82 
L 442.8 401.94 
" style="fill:none;stroke:#000000;stroke-linecap:square;stroke-opacity:0.9;stroke-width:0.7;"/>
   </g>
   <g id="line2d_53">
    <path clip-path="url(#p179cb54c32)" d="M 275.4 552.6 
L 442.8 401.94 
" style="fill:none;stroke:#000000;stroke-linecap:square;stroke-opacity:0.9;stroke-width:0.7;"/>
   </g>
   <g id="line2d_54">
    <path clip-path="url(#p179cb54c32)" d="M 275.4 502.38 
L 442.8 401.94 
" style="fill:none;stroke:#000000;stroke-linecap:square;stroke-opacity:0.9;stroke-width:0.7;"/>
   </g>
   <g id="line2d_55">
    <path clip-path="url(#p179cb54c32)" d="M 275.4 452.16 
L 442.8 401.94 
" style="fill:none;stroke:#000000;stroke-linecap:square;stroke-opacity:0.9;stroke-width:0.7;"/>
   </g>
   <g id="line2d_56">
    <path clip-path="url(#p179cb54c32)" d="M 275.4 401.94 
L 442.8 401.94 
" style="fill:none;stroke:#000000;stroke-linecap:square;stroke-opacity:0.9;stroke-width:0.7;"/>
   </g>
   <g id="line2d_57">
    <path clip-path="url(#p179cb54c32)" d="M 275.4 351.72 
L 442.8 401.94 
" style="fill:none;stroke:#000000;stroke-linecap:square;stroke-opacity:0.9;stroke-width:0.7;"/>
   </g>
   <g id="line2d_58">
    <path clip-path="url(#p179cb54c32)" d="M 275.4 301.5 
L 442.8 401.94 
" style="fill:none;stroke:#000000;stroke-linecap:square;stroke-opacity:0.9;stroke-width:0.7;"/>
   </g>
   <g id="line2d_59">
    <path clip-path="url(#p179cb54c32)" d="M 275.4 251.28 
L 442.8 401.94 
" style="fill:none;stroke:#000000;stroke-linecap:square;stroke-opacity:0.9;stroke-width:0.7;"/>
   </g>
   <g id="line2d_60">
    <path clip-path="url(#p179cb54c32)" d="M 275.4 201.06 
L 442.8 401.94 
" style="fill:none;stroke:#000000;stroke-linecap:square;stroke-opacity:0.9;stroke-width:0.7;"/>
   </g>
   <g id="line2d_61">
    <path clip-path="url(#p179cb54c32)" d="M 275.4 653.04 
L 442.8 351.72 
" style="fill:none;stroke:#000000;stroke-linecap:square;stroke-opacity:0.9;stroke-width:0.7;"/>
   </g>
   <g id="line2d_62">
    <path clip-path="url(#p179cb54c32)" d="M 275.4 602.82 
L 442.8 351.72 
" style="fill:none;stroke:#000000;stroke-linecap:square;stroke-opacity:0.9;stroke-width:0.7;"/>
   </g>
   <g id="line2d_63">
    <path clip-path="url(#p179cb54c32)" d="M 275.4 552.6 
L 442.8 351.72 
" style="fill:none;stroke:#000000;stroke-linecap:square;stroke-opacity:0.9;stroke-width:0.7;"/>
   </g>
   <g id="line2d_64">
    <path clip-path="url(#p179cb54c32)" d="M 275.4 502.38 
L 442.8 351.72 
" style="fill:none;stroke:#000000;stroke-linecap:square;stroke-opacity:0.9;stroke-width:0.7;"/>
   </g>
   <g id="line2d_65">
    <path clip-path="url(#p179cb54c32)" d="M 275.4 452.16 
L 442.8 351.72 
" style="fill:none;stroke:#000000;stroke-linecap:square;stroke-opacity:0.9;stroke-width:0.7;"/>
   </g>
   <g id="line2d_66">
    <path clip-path="url(#p179cb54c32)" d="M 275.4 401.94 
L 442.8 351.72 
" style="fill:none;stroke:#000000;stroke-linecap:square;stroke-opacity:0.9;stroke-width:0.7;"/>
   </g>
   <g id="line2d_67">
    <path clip-path="url(#p179cb54c32)" d="M 275.4 351.72 
L 442.8 351.72 
" style="fill:none;stroke:#000000;stroke-linecap:square;stroke-opacity:0.9;stroke-width:0.7;"/>
   </g>
   <g id="line2d_68">
    <path clip-path="url(#p179cb54c32)" d="M 275.4 301.5 
L 442.8 351.72 
" style="fill:none;stroke:#000000;stroke-linecap:square;stroke-opacity:0.9;stroke-width:0.7;"/>
   </g>
   <g id="line2d_69">
    <path clip-path="url(#p179cb54c32)" d="M 275.4 251.28 
L 442.8 351.72 
" style="fill:none;stroke:#000000;stroke-linecap:square;stroke-opacity:0.9;stroke-width:0.7;"/>
   </g>
   <g id="line2d_70">
    <path clip-path="url(#p179cb54c32)" d="M 275.4 201.06 
L 442.8 351.72 
" style="fill:none;stroke:#000000;stroke-linecap:square;stroke-opacity:0.9;stroke-width:0.7;"/>
   </g>
   <g id="line2d_71">
    <path clip-path="url(#p179cb54c32)" d="M 275.4 653.04 
L 442.8 301.5 
" style="fill:none;stroke:#000000;stroke-linecap:square;stroke-opacity:0.9;stroke-width:0.7;"/>
   </g>
   <g id="line2d_72">
    <path clip-path="url(#p179cb54c32)" d="M 275.4 602.82 
L 442.8 301.5 
" style="fill:none;stroke:#000000;stroke-linecap:square;stroke-opacity:0.9;stroke-width:0.7;"/>
   </g>
   <g id="line2d_73">
    <path clip-path="url(#p179cb54c32)" d="M 275.4 552.6 
L 442.8 301.5 
" style="fill:none;stroke:#000000;stroke-linecap:square;stroke-opacity:0.9;stroke-width:0.7;"/>
   </g>
   <g id="line2d_74">
    <path clip-path="url(#p179cb54c32)" d="M 275.4 502.38 
L 442.8 301.5 
" style="fill:none;stroke:#000000;stroke-linecap:square;stroke-opacity:0.9;stroke-width:0.7;"/>
   </g>
   <g id="line2d_75">
    <path clip-path="url(#p179cb54c32)" d="M 275.4 452.16 
L 442.8 301.5 
" style="fill:none;stroke:#000000;stroke-linecap:square;stroke-opacity:0.9;stroke-width:0.7;"/>
   </g>
   <g id="line2d_76">
    <path clip-path="url(#p179cb54c32)" d="M 275.4 401.94 
L 442.8 301.5 
" style="fill:none;stroke:#000000;stroke-linecap:square;stroke-opacity:0.9;stroke-width:0.7;"/>
   </g>
   <g id="line2d_77">
    <path clip-path="url(#p179cb54c32)" d="M 275.4 351.72 
L 442.8 301.5 
" style="fill:none;stroke:#000000;stroke-linecap:square;stroke-opacity:0.9;stroke-width:0.7;"/>
   </g>
   <g id="line2d_78">
    <path clip-path="url(#p179cb54c32)" d="M 275.4 301.5 
L 442.8 301.5 
" style="fill:none;stroke:#000000;stroke-linecap:square;stroke-opacity:0.9;stroke-width:0.7;"/>
   </g>
   <g id="line2d_79">
    <path clip-path="url(#p179cb54c32)" d="M 275.4 251.28 
L 442.8 301.5 
" style="fill:none;stroke:#000000;stroke-linecap:square;stroke-opacity:0.9;stroke-width:0.7;"/>
   </g>
   <g id="line2d_80">
    <path clip-path="url(#p179cb54c32)" d="M 275.4 201.06 
L 442.8 301.5 
" style="fill:none;stroke:#000000;stroke-linecap:square;stroke-opacity:0.9;stroke-width:0.7;"/>
   </g>
   <g id="line2d_81">
    <path clip-path="url(#p179cb54c32)" d="M 275.4 653.04 
L 442.8 251.28 
" style="fill:none;stroke:#000000;stroke-linecap:square;stroke-opacity:0.9;stroke-width:0.7;"/>
   </g>
   <g id="line2d_82">
    <path clip-path="url(#p179cb54c32)" d="M 275.4 602.82 
L 442.8 251.28 
" style="fill:none;stroke:#000000;stroke-linecap:square;stroke-opacity:0.9;stroke-width:0.7;"/>
   </g>
   <g id="line2d_83">
    <path clip-path="url(#p179cb54c32)" d="M 275.4 552.6 
L 442.8 251.28 
" style="fill:none;stroke:#000000;stroke-linecap:square;stroke-opacity:0.9;stroke-width:0.7;"/>
   </g>
   <g id="line2d_84">
    <path clip-path="url(#p179cb54c32)" d="M 275.4 502.38 
L 442.8 251.28 
" style="fill:none;stroke:#000000;stroke-linecap:square;stroke-opacity:0.9;stroke-width:0.7;"/>
   </g>
   <g id="line2d_85">
    <path clip-path="url(#p179cb54c32)" d="M 275.4 452.16 
L 442.8 251.28 
" style="fill:none;stroke:#000000;stroke-linecap:square;stroke-opacity:0.9;stroke-width:0.7;"/>
   </g>
   <g id="line2d_86">
    <path clip-path="url(#p179cb54c32)" d="M 275.4 401.94 
L 442.8 251.28 
" style="fill:none;stroke:#000000;stroke-linecap:square;stroke-opacity:0.9;stroke-width:0.7;"/>
   </g>
   <g id="line2d_87">
    <path clip-path="url(#p179cb54c32)" d="M 275.4 351.72 
L 442.8 251.28 
" style="fill:none;stroke:#000000;stroke-linecap:square;stroke-opacity:0.9;stroke-width:0.7;"/>
   </g>
   <g id="line2d_88">
    <path clip-path="url(#p179cb54c32)" d="M 275.4 301.5 
L 442.8 251.28 
" style="fill:none;stroke:#000000;stroke-linecap:square;stroke-opacity:0.9;stroke-width:0.7;"/>
   </g>
   <g id="line2d_89">
    <path clip-path="url(#p179cb54c32)" d="M 275.4 251.28 
L 442.8 251.28 
" style="fill:none;stroke:#000000;stroke-linecap:square;stroke-opacity:0.9;stroke-width:0.7;"/>
   </g>
   <g id="line2d_90">
    <path clip-path="url(#p179cb54c32)" d="M 275.4 201.06 
L 442.8 251.28 
" style="fill:none;stroke:#000000;stroke-linecap:square;stroke-opacity:0.9;stroke-width:0.7;"/>
   </g>
   <g id="line2d_91">
    <path clip-path="url(#p179cb54c32)" d="M 442.8 602.82 
L 610.2 429.84 
" style="fill:none;stroke:#000000;stroke-linecap:square;stroke-opacity:0.9;stroke-width:0.7;"/>
   </g>
   <g id="line2d_92">
    <path clip-path="url(#p179cb54c32)" d="M 442.8 552.6 
L 610.2 429.84 
" style="fill:none;stroke:#000000;stroke-linecap:square;stroke-opacity:0.9;stroke-width:0.7;"/>
   </g>
   <g id="line2d_93">
    <path clip-path="url(#p179cb54c32)" d="M 442.8 502.38 
L 610.2 429.84 
" style="fill:none;stroke:#000000;stroke-linecap:square;stroke-opacity:0.9;stroke-width:0.7;"/>
   </g>
   <g id="line2d_94">
    <path clip-path="url(#p179cb54c32)" d="M 442.8 452.16 
L 610.2 429.84 
" style="fill:none;stroke:#000000;stroke-linecap:square;stroke-opacity:0.9;stroke-width:0.7;"/>
   </g>
   <g id="line2d_95">
    <path clip-path="url(#p179cb54c32)" d="M 442.8 401.94 
L 610.2 429.84 
" style="fill:none;stroke:#000000;stroke-linecap:square;stroke-opacity:0.9;stroke-width:0.7;"/>
   </g>
   <g id="line2d_96">
    <path clip-path="url(#p179cb54c32)" d="M 442.8 351.72 
L 610.2 429.84 
" style="fill:none;stroke:#000000;stroke-linecap:square;stroke-opacity:0.9;stroke-width:0.7;"/>
   </g>
   <g id="line2d_97">
    <path clip-path="url(#p179cb54c32)" d="M 442.8 301.5 
L 610.2 429.84 
" style="fill:none;stroke:#000000;stroke-linecap:square;stroke-opacity:0.9;stroke-width:0.7;"/>
   </g>
   <g id="line2d_98">
    <path clip-path="url(#p179cb54c32)" d="M 442.8 251.28 
L 610.2 429.84 
" style="fill:none;stroke:#000000;stroke-linecap:square;stroke-opacity:0.9;stroke-width:0.7;"/>
   </g>
   <g id="line2d_99">
    <path clip-path="url(#p179cb54c32)" d="M 610.2 429.84 
L 668.79 429.84 
" style="fill:none;stroke:#000000;stroke-linecap:square;stroke-opacity:0.9;stroke-width:0.7;"/>
   </g>
   <g id="text_1">
    <!-- TDNN Network Model -->
    <defs>
     <path d="M -0.296875 72.90625 
L 61.375 72.90625 
L 61.375 64.59375 
L 35.5 64.59375 
L 35.5 0 
L 25.59375 0 
L 25.59375 64.59375 
L -0.296875 64.59375 
z
" id="DejaVuSans-84"/>
     <path d="M 19.671875 64.796875 
L 19.671875 8.109375 
L 31.59375 8.109375 
Q 46.6875 8.109375 53.6875 14.9375 
Q 60.6875 21.78125 60.6875 36.53125 
Q 60.6875 51.171875 53.6875 57.984375 
Q 46.6875 64.796875 31.59375 64.796875 
z
M 9.8125 72.90625 
L 30.078125 72.90625 
Q 51.265625 72.90625 61.171875 64.09375 
Q 71.09375 55.28125 71.09375 36.53125 
Q 71.09375 17.671875 61.125 8.828125 
Q 51.171875 0 30.078125 0 
L 9.8125 0 
z
" id="DejaVuSans-68"/>
     <path d="M 9.8125 72.90625 
L 23.09375 72.90625 
L 55.421875 11.921875 
L 55.421875 72.90625 
L 64.984375 72.90625 
L 64.984375 0 
L 51.703125 0 
L 19.390625 60.984375 
L 19.390625 0 
L 9.8125 0 
z
" id="DejaVuSans-78"/>
     <path id="DejaVuSans-32"/>
     <path d="M 56.203125 29.59375 
L 56.203125 25.203125 
L 14.890625 25.203125 
Q 15.484375 15.921875 20.484375 11.0625 
Q 25.484375 6.203125 34.421875 6.203125 
Q 39.59375 6.203125 44.453125 7.46875 
Q 49.3125 8.734375 54.109375 11.28125 
L 54.109375 2.78125 
Q 49.265625 0.734375 44.1875 -0.34375 
Q 39.109375 -1.421875 33.890625 -1.421875 
Q 20.796875 -1.421875 13.15625 6.1875 
Q 5.515625 13.8125 5.515625 26.8125 
Q 5.515625 40.234375 12.765625 48.109375 
Q 20.015625 56 32.328125 56 
Q 43.359375 56 49.78125 48.890625 
Q 56.203125 41.796875 56.203125 29.59375 
z
M 47.21875 32.234375 
Q 47.125 39.59375 43.09375 43.984375 
Q 39.0625 48.390625 32.421875 48.390625 
Q 24.90625 48.390625 20.390625 44.140625 
Q 15.875 39.890625 15.1875 32.171875 
z
" id="DejaVuSans-101"/>
     <path d="M 18.3125 70.21875 
L 18.3125 54.6875 
L 36.8125 54.6875 
L 36.8125 47.703125 
L 18.3125 47.703125 
L 18.3125 18.015625 
Q 18.3125 11.328125 20.140625 9.421875 
Q 21.96875 7.515625 27.59375 7.515625 
L 36.8125 7.515625 
L 36.8125 0 
L 27.59375 0 
Q 17.1875 0 13.234375 3.875 
Q 9.28125 7.765625 9.28125 18.015625 
L 9.28125 47.703125 
L 2.6875 47.703125 
L 2.6875 54.6875 
L 9.28125 54.6875 
L 9.28125 70.21875 
z
" id="DejaVuSans-116"/>
     <path d="M 4.203125 54.6875 
L 13.1875 54.6875 
L 24.421875 12.015625 
L 35.59375 54.6875 
L 46.1875 54.6875 
L 57.421875 12.015625 
L 68.609375 54.6875 
L 77.59375 54.6875 
L 63.28125 0 
L 52.6875 0 
L 40.921875 44.828125 
L 29.109375 0 
L 18.5 0 
z
" id="DejaVuSans-119"/>
     <path d="M 30.609375 48.390625 
Q 23.390625 48.390625 19.1875 42.75 
Q 14.984375 37.109375 14.984375 27.296875 
Q 14.984375 17.484375 19.15625 11.84375 
Q 23.34375 6.203125 30.609375 6.203125 
Q 37.796875 6.203125 41.984375 11.859375 
Q 46.1875 17.53125 46.1875 27.296875 
Q 46.1875 37.015625 41.984375 42.703125 
Q 37.796875 48.390625 30.609375 48.390625 
z
M 30.609375 56 
Q 42.328125 56 49.015625 48.375 
Q 55.71875 40.765625 55.71875 27.296875 
Q 55.71875 13.875 49.015625 6.21875 
Q 42.328125 -1.421875 30.609375 -1.421875 
Q 18.84375 -1.421875 12.171875 6.21875 
Q 5.515625 13.875 5.515625 27.296875 
Q 5.515625 40.765625 12.171875 48.375 
Q 18.84375 56 30.609375 56 
z
" id="DejaVuSans-111"/>
     <path d="M 41.109375 46.296875 
Q 39.59375 47.171875 37.8125 47.578125 
Q 36.03125 48 33.890625 48 
Q 26.265625 48 22.1875 43.046875 
Q 18.109375 38.09375 18.109375 28.8125 
L 18.109375 0 
L 9.078125 0 
L 9.078125 54.6875 
L 18.109375 54.6875 
L 18.109375 46.1875 
Q 20.953125 51.171875 25.484375 53.578125 
Q 30.03125 56 36.53125 56 
Q 37.453125 56 38.578125 55.875 
Q 39.703125 55.765625 41.0625 55.515625 
z
" id="DejaVuSans-114"/>
     <path d="M 9.078125 75.984375 
L 18.109375 75.984375 
L 18.109375 31.109375 
L 44.921875 54.6875 
L 56.390625 54.6875 
L 27.390625 29.109375 
L 57.625 0 
L 45.90625 0 
L 18.109375 26.703125 
L 18.109375 0 
L 9.078125 0 
z
" id="DejaVuSans-107"/>
     <path d="M 9.8125 72.90625 
L 24.515625 72.90625 
L 43.109375 23.296875 
L 61.8125 72.90625 
L 76.515625 72.90625 
L 76.515625 0 
L 66.890625 0 
L 66.890625 64.015625 
L 48.09375 14.015625 
L 38.1875 14.015625 
L 19.390625 64.015625 
L 19.390625 0 
L 9.8125 0 
z
" id="DejaVuSans-77"/>
     <path d="M 45.40625 46.390625 
L 45.40625 75.984375 
L 54.390625 75.984375 
L 54.390625 0 
L 45.40625 0 
L 45.40625 8.203125 
Q 42.578125 3.328125 38.25 0.953125 
Q 33.9375 -1.421875 27.875 -1.421875 
Q 17.96875 -1.421875 11.734375 6.484375 
Q 5.515625 14.40625 5.515625 27.296875 
Q 5.515625 40.1875 11.734375 48.09375 
Q 17.96875 56 27.875 56 
Q 33.9375 56 38.25 53.625 
Q 42.578125 51.265625 45.40625 46.390625 
z
M 14.796875 27.296875 
Q 14.796875 17.390625 18.875 11.75 
Q 22.953125 6.109375 30.078125 6.109375 
Q 37.203125 6.109375 41.296875 11.75 
Q 45.40625 17.390625 45.40625 27.296875 
Q 45.40625 37.203125 41.296875 42.84375 
Q 37.203125 48.484375 30.078125 48.484375 
Q 22.953125 48.484375 18.875 42.84375 
Q 14.796875 37.203125 14.796875 27.296875 
z
" id="DejaVuSans-100"/>
     <path d="M 9.421875 75.984375 
L 18.40625 75.984375 
L 18.40625 0 
L 9.421875 0 
z
" id="DejaVuSans-108"/>
    </defs>
    <g transform="translate(335.89375 156.35875)scale(0.2 -0.2)">
     <use xlink:href="#DejaVuSans-84"/>
     <use x="61.083984" xlink:href="#DejaVuSans-68"/>
     <use x="138.085938" xlink:href="#DejaVuSans-78"/>
     <use x="212.890625" xlink:href="#DejaVuSans-78"/>
     <use x="287.695312" xlink:href="#DejaVuSans-32"/>
     <use x="319.482422" xlink:href="#DejaVuSans-78"/>
     <use x="394.287109" xlink:href="#DejaVuSans-101"/>
     <use x="455.810547" xlink:href="#DejaVuSans-116"/>
     <use x="495.019531" xlink:href="#DejaVuSans-119"/>
     <use x="576.806641" xlink:href="#DejaVuSans-111"/>
     <use x="637.988281" xlink:href="#DejaVuSans-114"/>
     <use x="679.101562" xlink:href="#DejaVuSans-107"/>
     <use x="737.011719" xlink:href="#DejaVuSans-32"/>
     <use x="768.798828" xlink:href="#DejaVuSans-77"/>
     <use x="855.078125" xlink:href="#DejaVuSans-111"/>
     <use x="916.259766" xlink:href="#DejaVuSans-100"/>
     <use x="979.736328" xlink:href="#DejaVuSans-101"/>
     <use x="1041.259766" xlink:href="#DejaVuSans-108"/>
    </g>
   </g>
   <g id="text_2">
    <!-- 250 Input -->
    <defs>
     <path d="M 19.1875 8.296875 
L 53.609375 8.296875 
L 53.609375 0 
L 7.328125 0 
L 7.328125 8.296875 
Q 12.9375 14.109375 22.625 23.890625 
Q 32.328125 33.6875 34.8125 36.53125 
Q 39.546875 41.84375 41.421875 45.53125 
Q 43.3125 49.21875 43.3125 52.78125 
Q 43.3125 58.59375 39.234375 62.25 
Q 35.15625 65.921875 28.609375 65.921875 
Q 23.96875 65.921875 18.8125 64.3125 
Q 13.671875 62.703125 7.8125 59.421875 
L 7.8125 69.390625 
Q 13.765625 71.78125 18.9375 73 
Q 24.125 74.21875 28.421875 74.21875 
Q 39.75 74.21875 46.484375 68.546875 
Q 53.21875 62.890625 53.21875 53.421875 
Q 53.21875 48.921875 51.53125 44.890625 
Q 49.859375 40.875 45.40625 35.40625 
Q 44.1875 33.984375 37.640625 27.21875 
Q 31.109375 20.453125 19.1875 8.296875 
z
" id="DejaVuSans-50"/>
     <path d="M 10.796875 72.90625 
L 49.515625 72.90625 
L 49.515625 64.59375 
L 19.828125 64.59375 
L 19.828125 46.734375 
Q 21.96875 47.46875 24.109375 47.828125 
Q 26.265625 48.1875 28.421875 48.1875 
Q 40.625 48.1875 47.75 41.5 
Q 54.890625 34.8125 54.890625 23.390625 
Q 54.890625 11.625 47.5625 5.09375 
Q 40.234375 -1.421875 26.90625 -1.421875 
Q 22.3125 -1.421875 17.546875 -0.640625 
Q 12.796875 0.140625 7.71875 1.703125 
L 7.71875 11.625 
Q 12.109375 9.234375 16.796875 8.0625 
Q 21.484375 6.890625 26.703125 6.890625 
Q 35.15625 6.890625 40.078125 11.328125 
Q 45.015625 15.765625 45.015625 23.390625 
Q 45.015625 31 40.078125 35.4375 
Q 35.15625 39.890625 26.703125 39.890625 
Q 22.75 39.890625 18.8125 39.015625 
Q 14.890625 38.140625 10.796875 36.28125 
z
" id="DejaVuSans-53"/>
     <path d="M 31.78125 66.40625 
Q 24.171875 66.40625 20.328125 58.90625 
Q 16.5 51.421875 16.5 36.375 
Q 16.5 21.390625 20.328125 13.890625 
Q 24.171875 6.390625 31.78125 6.390625 
Q 39.453125 6.390625 43.28125 13.890625 
Q 47.125 21.390625 47.125 36.375 
Q 47.125 51.421875 43.28125 58.90625 
Q 39.453125 66.40625 31.78125 66.40625 
z
M 31.78125 74.21875 
Q 44.046875 74.21875 50.515625 64.515625 
Q 56.984375 54.828125 56.984375 36.375 
Q 56.984375 17.96875 50.515625 8.265625 
Q 44.046875 -1.421875 31.78125 -1.421875 
Q 19.53125 -1.421875 13.0625 8.265625 
Q 6.59375 17.96875 6.59375 36.375 
Q 6.59375 54.828125 13.0625 64.515625 
Q 19.53125 74.21875 31.78125 74.21875 
z
" id="DejaVuSans-48"/>
     <path d="M 9.8125 72.90625 
L 19.671875 72.90625 
L 19.671875 0 
L 9.8125 0 
z
" id="DejaVuSans-73"/>
     <path d="M 54.890625 33.015625 
L 54.890625 0 
L 45.90625 0 
L 45.90625 32.71875 
Q 45.90625 40.484375 42.875 44.328125 
Q 39.84375 48.1875 33.796875 48.1875 
Q 26.515625 48.1875 22.3125 43.546875 
Q 18.109375 38.921875 18.109375 30.90625 
L 18.109375 0 
L 9.078125 0 
L 9.078125 54.6875 
L 18.109375 54.6875 
L 18.109375 46.1875 
Q 21.34375 51.125 25.703125 53.5625 
Q 30.078125 56 35.796875 56 
Q 45.21875 56 50.046875 50.171875 
Q 54.890625 44.34375 54.890625 33.015625 
z
" id="DejaVuSans-110"/>
     <path d="M 18.109375 8.203125 
L 18.109375 -20.796875 
L 9.078125 -20.796875 
L 9.078125 54.6875 
L 18.109375 54.6875 
L 18.109375 46.390625 
Q 20.953125 51.265625 25.265625 53.625 
Q 29.59375 56 35.59375 56 
Q 45.5625 56 51.78125 48.09375 
Q 58.015625 40.1875 58.015625 27.296875 
Q 58.015625 14.40625 51.78125 6.484375 
Q 45.5625 -1.421875 35.59375 -1.421875 
Q 29.59375 -1.421875 25.265625 0.953125 
Q 20.953125 3.328125 18.109375 8.203125 
z
M 48.6875 27.296875 
Q 48.6875 37.203125 44.609375 42.84375 
Q 40.53125 48.484375 33.40625 48.484375 
Q 26.265625 48.484375 22.1875 42.84375 
Q 18.109375 37.203125 18.109375 27.296875 
Q 18.109375 17.390625 22.1875 11.75 
Q 26.265625 6.109375 33.40625 6.109375 
Q 40.53125 6.109375 44.609375 11.75 
Q 48.6875 17.390625 48.6875 27.296875 
z
" id="DejaVuSans-112"/>
     <path d="M 8.5 21.578125 
L 8.5 54.6875 
L 17.484375 54.6875 
L 17.484375 21.921875 
Q 17.484375 14.15625 20.5 10.265625 
Q 23.53125 6.390625 29.59375 6.390625 
Q 36.859375 6.390625 41.078125 11.03125 
Q 45.3125 15.671875 45.3125 23.6875 
L 45.3125 54.6875 
L 54.296875 54.6875 
L 54.296875 0 
L 45.3125 0 
L 45.3125 8.40625 
Q 42.046875 3.421875 37.71875 1 
Q 33.40625 -1.421875 27.6875 -1.421875 
Q 18.265625 -1.421875 13.375 4.4375 
Q 8.5 10.296875 8.5 21.578125 
z
M 31.109375 56 
z
" id="DejaVuSans-117"/>
    </defs>
    <g transform="translate(239.280469 712.979063)scale(0.15 -0.15)">
     <use xlink:href="#DejaVuSans-50"/>
     <use x="63.623047" xlink:href="#DejaVuSans-53"/>
     <use x="127.246094" xlink:href="#DejaVuSans-48"/>
     <use x="190.869141" xlink:href="#DejaVuSans-32"/>
     <use x="222.65625" xlink:href="#DejaVuSans-73"/>
     <use x="252.148438" xlink:href="#DejaVuSans-110"/>
     <use x="315.527344" xlink:href="#DejaVuSans-112"/>
     <use x="379.003906" xlink:href="#DejaVuSans-117"/>
     <use x="442.382812" xlink:href="#DejaVuSans-116"/>
    </g>
   </g>
   <g id="text_3">
    <!-- 200 Hidden -->
    <defs>
     <path d="M 9.8125 72.90625 
L 19.671875 72.90625 
L 19.671875 43.015625 
L 55.515625 43.015625 
L 55.515625 72.90625 
L 65.375 72.90625 
L 65.375 0 
L 55.515625 0 
L 55.515625 34.71875 
L 19.671875 34.71875 
L 19.671875 0 
L 9.8125 0 
z
" id="DejaVuSans-72"/>
     <path d="M 9.421875 54.6875 
L 18.40625 54.6875 
L 18.40625 0 
L 9.421875 0 
z
M 9.421875 75.984375 
L 18.40625 75.984375 
L 18.40625 64.59375 
L 9.421875 64.59375 
z
" id="DejaVuSans-105"/>
    </defs>
    <g transform="translate(399.486328 712.979063)scale(0.15 -0.15)">
     <use xlink:href="#DejaVuSans-50"/>
     <use x="63.623047" xlink:href="#DejaVuSans-48"/>
     <use x="127.246094" xlink:href="#DejaVuSans-48"/>
     <use x="190.869141" xlink:href="#DejaVuSans-32"/>
     <use x="222.65625" xlink:href="#DejaVuSans-72"/>
     <use x="297.851562" xlink:href="#DejaVuSans-105"/>
     <use x="325.634766" xlink:href="#DejaVuSans-100"/>
     <use x="389.111328" xlink:href="#DejaVuSans-100"/>
     <use x="452.587891" xlink:href="#DejaVuSans-101"/>
     <use x="514.111328" xlink:href="#DejaVuSans-110"/>
    </g>
   </g>
   <g id="text_4">
    <!-- 25 Output -->
    <defs>
     <path d="M 39.40625 66.21875 
Q 28.65625 66.21875 22.328125 58.203125 
Q 16.015625 50.203125 16.015625 36.375 
Q 16.015625 22.609375 22.328125 14.59375 
Q 28.65625 6.59375 39.40625 6.59375 
Q 50.140625 6.59375 56.421875 14.59375 
Q 62.703125 22.609375 62.703125 36.375 
Q 62.703125 50.203125 56.421875 58.203125 
Q 50.140625 66.21875 39.40625 66.21875 
z
M 39.40625 74.21875 
Q 54.734375 74.21875 63.90625 63.9375 
Q 73.09375 53.65625 73.09375 36.375 
Q 73.09375 19.140625 63.90625 8.859375 
Q 54.734375 -1.421875 39.40625 -1.421875 
Q 24.03125 -1.421875 14.8125 8.828125 
Q 5.609375 19.09375 5.609375 36.375 
Q 5.609375 53.65625 14.8125 63.9375 
Q 24.03125 74.21875 39.40625 74.21875 
z
" id="DejaVuSans-79"/>
    </defs>
    <g transform="translate(572.220703 712.979063)scale(0.15 -0.15)">
     <use xlink:href="#DejaVuSans-50"/>
     <use x="63.623047" xlink:href="#DejaVuSans-53"/>
     <use x="127.246094" xlink:href="#DejaVuSans-32"/>
     <use x="159.033203" xlink:href="#DejaVuSans-79"/>
     <use x="237.744141" xlink:href="#DejaVuSans-117"/>
     <use x="301.123047" xlink:href="#DejaVuSans-116"/>
     <use x="340.332031" xlink:href="#DejaVuSans-112"/>
     <use x="403.808594" xlink:href="#DejaVuSans-117"/>
     <use x="467.1875" xlink:href="#DejaVuSans-116"/>
    </g>
   </g>
   <g id="text_5">
    <!-- Character$_t$ -->
    <defs>
     <path d="M 64.40625 67.28125 
L 64.40625 56.890625 
Q 59.421875 61.53125 53.78125 63.8125 
Q 48.140625 66.109375 41.796875 66.109375 
Q 29.296875 66.109375 22.65625 58.46875 
Q 16.015625 50.828125 16.015625 36.375 
Q 16.015625 21.96875 22.65625 14.328125 
Q 29.296875 6.6875 41.796875 6.6875 
Q 48.140625 6.6875 53.78125 8.984375 
Q 59.421875 11.28125 64.40625 15.921875 
L 64.40625 5.609375 
Q 59.234375 2.09375 53.4375 0.328125 
Q 47.65625 -1.421875 41.21875 -1.421875 
Q 24.65625 -1.421875 15.125 8.703125 
Q 5.609375 18.84375 5.609375 36.375 
Q 5.609375 53.953125 15.125 64.078125 
Q 24.65625 74.21875 41.21875 74.21875 
Q 47.75 74.21875 53.53125 72.484375 
Q 59.328125 70.75 64.40625 67.28125 
z
" id="DejaVuSans-67"/>
     <path d="M 54.890625 33.015625 
L 54.890625 0 
L 45.90625 0 
L 45.90625 32.71875 
Q 45.90625 40.484375 42.875 44.328125 
Q 39.84375 48.1875 33.796875 48.1875 
Q 26.515625 48.1875 22.3125 43.546875 
Q 18.109375 38.921875 18.109375 30.90625 
L 18.109375 0 
L 9.078125 0 
L 9.078125 75.984375 
L 18.109375 75.984375 
L 18.109375 46.1875 
Q 21.34375 51.125 25.703125 53.5625 
Q 30.078125 56 35.796875 56 
Q 45.21875 56 50.046875 50.171875 
Q 54.890625 44.34375 54.890625 33.015625 
z
" id="DejaVuSans-104"/>
     <path d="M 34.28125 27.484375 
Q 23.390625 27.484375 19.1875 25 
Q 14.984375 22.515625 14.984375 16.5 
Q 14.984375 11.71875 18.140625 8.90625 
Q 21.296875 6.109375 26.703125 6.109375 
Q 34.1875 6.109375 38.703125 11.40625 
Q 43.21875 16.703125 43.21875 25.484375 
L 43.21875 27.484375 
z
M 52.203125 31.203125 
L 52.203125 0 
L 43.21875 0 
L 43.21875 8.296875 
Q 40.140625 3.328125 35.546875 0.953125 
Q 30.953125 -1.421875 24.3125 -1.421875 
Q 15.921875 -1.421875 10.953125 3.296875 
Q 6 8.015625 6 15.921875 
Q 6 25.140625 12.171875 29.828125 
Q 18.359375 34.515625 30.609375 34.515625 
L 43.21875 34.515625 
L 43.21875 35.40625 
Q 43.21875 41.609375 39.140625 45 
Q 35.0625 48.390625 27.6875 48.390625 
Q 23 48.390625 18.546875 47.265625 
Q 14.109375 46.140625 10.015625 43.890625 
L 10.015625 52.203125 
Q 14.9375 54.109375 19.578125 55.046875 
Q 24.21875 56 28.609375 56 
Q 40.484375 56 46.34375 49.84375 
Q 52.203125 43.703125 52.203125 31.203125 
z
" id="DejaVuSans-97"/>
     <path d="M 48.78125 52.59375 
L 48.78125 44.1875 
Q 44.96875 46.296875 41.140625 47.34375 
Q 37.3125 48.390625 33.40625 48.390625 
Q 24.65625 48.390625 19.8125 42.84375 
Q 14.984375 37.3125 14.984375 27.296875 
Q 14.984375 17.28125 19.8125 11.734375 
Q 24.65625 6.203125 33.40625 6.203125 
Q 37.3125 6.203125 41.140625 7.25 
Q 44.96875 8.296875 48.78125 10.40625 
L 48.78125 2.09375 
Q 45.015625 0.34375 40.984375 -0.53125 
Q 36.96875 -1.421875 32.421875 -1.421875 
Q 20.0625 -1.421875 12.78125 6.34375 
Q 5.515625 14.109375 5.515625 27.296875 
Q 5.515625 40.671875 12.859375 48.328125 
Q 20.21875 56 33.015625 56 
Q 37.15625 56 41.109375 55.140625 
Q 45.0625 54.296875 48.78125 52.59375 
z
" id="DejaVuSans-99"/>
     <path d="M 42.28125 54.6875 
L 40.921875 47.703125 
L 23 47.703125 
L 17.1875 18.015625 
Q 16.890625 16.359375 16.75 15.234375 
Q 16.609375 14.109375 16.609375 13.484375 
Q 16.609375 10.359375 18.484375 8.9375 
Q 20.359375 7.515625 24.515625 7.515625 
L 33.59375 7.515625 
L 32.078125 0 
L 23.484375 0 
Q 15.484375 0 11.546875 3.125 
Q 7.625 6.25 7.625 12.59375 
Q 7.625 13.71875 7.765625 15.0625 
Q 7.90625 16.40625 8.203125 18.015625 
L 14.015625 47.703125 
L 6.390625 47.703125 
L 7.8125 54.6875 
L 15.28125 54.6875 
L 18.3125 70.21875 
L 27.296875 70.21875 
L 24.3125 54.6875 
z
" id="DejaVuSans-Oblique-116"/>
    </defs>
    <g transform="translate(148.71 348.899375)scale(0.1 -0.1)">
     <use transform="translate(0 0.015625)" xlink:href="#DejaVuSans-67"/>
     <use transform="translate(69.824219 0.015625)" xlink:href="#DejaVuSans-104"/>
     <use transform="translate(133.203125 0.015625)" xlink:href="#DejaVuSans-97"/>
     <use transform="translate(194.482422 0.015625)" xlink:href="#DejaVuSans-114"/>
     <use transform="translate(235.595703 0.015625)" xlink:href="#DejaVuSans-97"/>
     <use transform="translate(296.875 0.015625)" xlink:href="#DejaVuSans-99"/>
     <use transform="translate(351.855469 0.015625)" xlink:href="#DejaVuSans-116"/>
     <use transform="translate(391.064453 0.015625)" xlink:href="#DejaVuSans-101"/>
     <use transform="translate(452.587891 0.015625)" xlink:href="#DejaVuSans-114"/>
     <use transform="translate(494.658203 -16.390625)scale(0.7)" xlink:href="#DejaVuSans-Oblique-116"/>
    </g>
   </g>
   <g id="text_6">
    <!-- Character$_{t-1}$ -->
    <defs>
     <path d="M 10.59375 35.5 
L 73.1875 35.5 
L 73.1875 27.203125 
L 10.59375 27.203125 
z
" id="DejaVuSans-8722"/>
     <path d="M 12.40625 8.296875 
L 28.515625 8.296875 
L 28.515625 63.921875 
L 10.984375 60.40625 
L 10.984375 69.390625 
L 28.421875 72.90625 
L 38.28125 72.90625 
L 38.28125 8.296875 
L 54.390625 8.296875 
L 54.390625 0 
L 12.40625 0 
z
" id="DejaVuSans-49"/>
    </defs>
    <g transform="translate(142.16 332.159375)scale(0.1 -0.1)">
     <use transform="translate(0 0.015625)" xlink:href="#DejaVuSans-67"/>
     <use transform="translate(69.824219 0.015625)" xlink:href="#DejaVuSans-104"/>
     <use transform="translate(133.203125 0.015625)" xlink:href="#DejaVuSans-97"/>
     <use transform="translate(194.482422 0.015625)" xlink:href="#DejaVuSans-114"/>
     <use transform="translate(235.595703 0.015625)" xlink:href="#DejaVuSans-97"/>
     <use transform="translate(296.875 0.015625)" xlink:href="#DejaVuSans-99"/>
     <use transform="translate(351.855469 0.015625)" xlink:href="#DejaVuSans-116"/>
     <use transform="translate(391.064453 0.015625)" xlink:href="#DejaVuSans-101"/>
     <use transform="translate(452.587891 0.015625)" xlink:href="#DejaVuSans-114"/>
     <use transform="translate(494.658203 -16.390625)scale(0.7)" xlink:href="#DejaVuSans-Oblique-116"/>
     <use transform="translate(535.742188 -16.390625)scale(0.7)" xlink:href="#DejaVuSans-8722"/>
     <use transform="translate(608.032227 -16.390625)scale(0.7)" xlink:href="#DejaVuSans-49"/>
    </g>
   </g>
   <g id="text_7">
    <!-- Character$_{t-2}$ -->
    <g transform="translate(142.16 315.419375)scale(0.1 -0.1)">
     <use transform="translate(0 0.015625)" xlink:href="#DejaVuSans-67"/>
     <use transform="translate(69.824219 0.015625)" xlink:href="#DejaVuSans-104"/>
     <use transform="translate(133.203125 0.015625)" xlink:href="#DejaVuSans-97"/>
     <use transform="translate(194.482422 0.015625)" xlink:href="#DejaVuSans-114"/>
     <use transform="translate(235.595703 0.015625)" xlink:href="#DejaVuSans-97"/>
     <use transform="translate(296.875 0.015625)" xlink:href="#DejaVuSans-99"/>
     <use transform="translate(351.855469 0.015625)" xlink:href="#DejaVuSans-116"/>
     <use transform="translate(391.064453 0.015625)" xlink:href="#DejaVuSans-101"/>
     <use transform="translate(452.587891 0.015625)" xlink:href="#DejaVuSans-114"/>
     <use transform="translate(494.658203 -16.390625)scale(0.7)" xlink:href="#DejaVuSans-Oblique-116"/>
     <use transform="translate(535.742188 -16.390625)scale(0.7)" xlink:href="#DejaVuSans-8722"/>
     <use transform="translate(608.032227 -16.390625)scale(0.7)" xlink:href="#DejaVuSans-50"/>
    </g>
   </g>
   <g id="text_8">
    <!-- Character$_{t-3}$ -->
    <defs>
     <path d="M 40.578125 39.3125 
Q 47.65625 37.796875 51.625 33 
Q 55.609375 28.21875 55.609375 21.1875 
Q 55.609375 10.40625 48.1875 4.484375 
Q 40.765625 -1.421875 27.09375 -1.421875 
Q 22.515625 -1.421875 17.65625 -0.515625 
Q 12.796875 0.390625 7.625 2.203125 
L 7.625 11.71875 
Q 11.71875 9.328125 16.59375 8.109375 
Q 21.484375 6.890625 26.8125 6.890625 
Q 36.078125 6.890625 40.9375 10.546875 
Q 45.796875 14.203125 45.796875 21.1875 
Q 45.796875 27.640625 41.28125 31.265625 
Q 36.765625 34.90625 28.71875 34.90625 
L 20.21875 34.90625 
L 20.21875 43.015625 
L 29.109375 43.015625 
Q 36.375 43.015625 40.234375 45.921875 
Q 44.09375 48.828125 44.09375 54.296875 
Q 44.09375 59.90625 40.109375 62.90625 
Q 36.140625 65.921875 28.71875 65.921875 
Q 24.65625 65.921875 20.015625 65.03125 
Q 15.375 64.15625 9.8125 62.3125 
L 9.8125 71.09375 
Q 15.4375 72.65625 20.34375 73.4375 
Q 25.25 74.21875 29.59375 74.21875 
Q 40.828125 74.21875 47.359375 69.109375 
Q 53.90625 64.015625 53.90625 55.328125 
Q 53.90625 49.265625 50.4375 45.09375 
Q 46.96875 40.921875 40.578125 39.3125 
z
" id="DejaVuSans-51"/>
    </defs>
    <g transform="translate(142.16 298.679375)scale(0.1 -0.1)">
     <use transform="translate(0 0.015625)" xlink:href="#DejaVuSans-67"/>
     <use transform="translate(69.824219 0.015625)" xlink:href="#DejaVuSans-104"/>
     <use transform="translate(133.203125 0.015625)" xlink:href="#DejaVuSans-97"/>
     <use transform="translate(194.482422 0.015625)" xlink:href="#DejaVuSans-114"/>
     <use transform="translate(235.595703 0.015625)" xlink:href="#DejaVuSans-97"/>
     <use transform="translate(296.875 0.015625)" xlink:href="#DejaVuSans-99"/>
     <use transform="translate(351.855469 0.015625)" xlink:href="#DejaVuSans-116"/>
     <use transform="translate(391.064453 0.015625)" xlink:href="#DejaVuSans-101"/>
     <use transform="translate(452.587891 0.015625)" xlink:href="#DejaVuSans-114"/>
     <use transform="translate(494.658203 -16.390625)scale(0.7)" xlink:href="#DejaVuSans-Oblique-116"/>
     <use transform="translate(535.742188 -16.390625)scale(0.7)" xlink:href="#DejaVuSans-8722"/>
     <use transform="translate(608.032227 -16.390625)scale(0.7)" xlink:href="#DejaVuSans-51"/>
    </g>
   </g>
   <g id="text_9">
    <!-- Character$_{t-4}$ -->
    <defs>
     <path d="M 37.796875 64.3125 
L 12.890625 25.390625 
L 37.796875 25.390625 
z
M 35.203125 72.90625 
L 47.609375 72.90625 
L 47.609375 25.390625 
L 58.015625 25.390625 
L 58.015625 17.1875 
L 47.609375 17.1875 
L 47.609375 0 
L 37.796875 0 
L 37.796875 17.1875 
L 4.890625 17.1875 
L 4.890625 26.703125 
z
" id="DejaVuSans-52"/>
    </defs>
    <g transform="translate(142.16 281.939375)scale(0.1 -0.1)">
     <use transform="translate(0 0.015625)" xlink:href="#DejaVuSans-67"/>
     <use transform="translate(69.824219 0.015625)" xlink:href="#DejaVuSans-104"/>
     <use transform="translate(133.203125 0.015625)" xlink:href="#DejaVuSans-97"/>
     <use transform="translate(194.482422 0.015625)" xlink:href="#DejaVuSans-114"/>
     <use transform="translate(235.595703 0.015625)" xlink:href="#DejaVuSans-97"/>
     <use transform="translate(296.875 0.015625)" xlink:href="#DejaVuSans-99"/>
     <use transform="translate(351.855469 0.015625)" xlink:href="#DejaVuSans-116"/>
     <use transform="translate(391.064453 0.015625)" xlink:href="#DejaVuSans-101"/>
     <use transform="translate(452.587891 0.015625)" xlink:href="#DejaVuSans-114"/>
     <use transform="translate(494.658203 -16.390625)scale(0.7)" xlink:href="#DejaVuSans-Oblique-116"/>
     <use transform="translate(535.742188 -16.390625)scale(0.7)" xlink:href="#DejaVuSans-8722"/>
     <use transform="translate(608.032227 -16.390625)scale(0.7)" xlink:href="#DejaVuSans-52"/>
    </g>
   </g>
   <g id="text_10">
    <!-- Character$_{t-5}$ -->
    <g transform="translate(142.16 265.199375)scale(0.1 -0.1)">
     <use transform="translate(0 0.015625)" xlink:href="#DejaVuSans-67"/>
     <use transform="translate(69.824219 0.015625)" xlink:href="#DejaVuSans-104"/>
     <use transform="translate(133.203125 0.015625)" xlink:href="#DejaVuSans-97"/>
     <use transform="translate(194.482422 0.015625)" xlink:href="#DejaVuSans-114"/>
     <use transform="translate(235.595703 0.015625)" xlink:href="#DejaVuSans-97"/>
     <use transform="translate(296.875 0.015625)" xlink:href="#DejaVuSans-99"/>
     <use transform="translate(351.855469 0.015625)" xlink:href="#DejaVuSans-116"/>
     <use transform="translate(391.064453 0.015625)" xlink:href="#DejaVuSans-101"/>
     <use transform="translate(452.587891 0.015625)" xlink:href="#DejaVuSans-114"/>
     <use transform="translate(494.658203 -16.390625)scale(0.7)" xlink:href="#DejaVuSans-Oblique-116"/>
     <use transform="translate(535.742188 -16.390625)scale(0.7)" xlink:href="#DejaVuSans-8722"/>
     <use transform="translate(608.032227 -16.390625)scale(0.7)" xlink:href="#DejaVuSans-53"/>
    </g>
   </g>
   <g id="text_11">
    <!-- Character$_{t-6}$ -->
    <defs>
     <path d="M 33.015625 40.375 
Q 26.375 40.375 22.484375 35.828125 
Q 18.609375 31.296875 18.609375 23.390625 
Q 18.609375 15.53125 22.484375 10.953125 
Q 26.375 6.390625 33.015625 6.390625 
Q 39.65625 6.390625 43.53125 10.953125 
Q 47.40625 15.53125 47.40625 23.390625 
Q 47.40625 31.296875 43.53125 35.828125 
Q 39.65625 40.375 33.015625 40.375 
z
M 52.59375 71.296875 
L 52.59375 62.3125 
Q 48.875 64.0625 45.09375 64.984375 
Q 41.3125 65.921875 37.59375 65.921875 
Q 27.828125 65.921875 22.671875 59.328125 
Q 17.53125 52.734375 16.796875 39.40625 
Q 19.671875 43.65625 24.015625 45.921875 
Q 28.375 48.1875 33.59375 48.1875 
Q 44.578125 48.1875 50.953125 41.515625 
Q 57.328125 34.859375 57.328125 23.390625 
Q 57.328125 12.15625 50.6875 5.359375 
Q 44.046875 -1.421875 33.015625 -1.421875 
Q 20.359375 -1.421875 13.671875 8.265625 
Q 6.984375 17.96875 6.984375 36.375 
Q 6.984375 53.65625 15.1875 63.9375 
Q 23.390625 74.21875 37.203125 74.21875 
Q 40.921875 74.21875 44.703125 73.484375 
Q 48.484375 72.75 52.59375 71.296875 
z
" id="DejaVuSans-54"/>
    </defs>
    <g transform="translate(142.16 248.459375)scale(0.1 -0.1)">
     <use transform="translate(0 0.015625)" xlink:href="#DejaVuSans-67"/>
     <use transform="translate(69.824219 0.015625)" xlink:href="#DejaVuSans-104"/>
     <use transform="translate(133.203125 0.015625)" xlink:href="#DejaVuSans-97"/>
     <use transform="translate(194.482422 0.015625)" xlink:href="#DejaVuSans-114"/>
     <use transform="translate(235.595703 0.015625)" xlink:href="#DejaVuSans-97"/>
     <use transform="translate(296.875 0.015625)" xlink:href="#DejaVuSans-99"/>
     <use transform="translate(351.855469 0.015625)" xlink:href="#DejaVuSans-116"/>
     <use transform="translate(391.064453 0.015625)" xlink:href="#DejaVuSans-101"/>
     <use transform="translate(452.587891 0.015625)" xlink:href="#DejaVuSans-114"/>
     <use transform="translate(494.658203 -16.390625)scale(0.7)" xlink:href="#DejaVuSans-Oblique-116"/>
     <use transform="translate(535.742188 -16.390625)scale(0.7)" xlink:href="#DejaVuSans-8722"/>
     <use transform="translate(608.032227 -16.390625)scale(0.7)" xlink:href="#DejaVuSans-54"/>
    </g>
   </g>
   <g id="text_12">
    <!-- Character$_{t-7}$ -->
    <defs>
     <path d="M 8.203125 72.90625 
L 55.078125 72.90625 
L 55.078125 68.703125 
L 28.609375 0 
L 18.3125 0 
L 43.21875 64.59375 
L 8.203125 64.59375 
z
" id="DejaVuSans-55"/>
    </defs>
    <g transform="translate(142.16 231.719375)scale(0.1 -0.1)">
     <use transform="translate(0 0.015625)" xlink:href="#DejaVuSans-67"/>
     <use transform="translate(69.824219 0.015625)" xlink:href="#DejaVuSans-104"/>
     <use transform="translate(133.203125 0.015625)" xlink:href="#DejaVuSans-97"/>
     <use transform="translate(194.482422 0.015625)" xlink:href="#DejaVuSans-114"/>
     <use transform="translate(235.595703 0.015625)" xlink:href="#DejaVuSans-97"/>
     <use transform="translate(296.875 0.015625)" xlink:href="#DejaVuSans-99"/>
     <use transform="translate(351.855469 0.015625)" xlink:href="#DejaVuSans-116"/>
     <use transform="translate(391.064453 0.015625)" xlink:href="#DejaVuSans-101"/>
     <use transform="translate(452.587891 0.015625)" xlink:href="#DejaVuSans-114"/>
     <use transform="translate(494.658203 -16.390625)scale(0.7)" xlink:href="#DejaVuSans-Oblique-116"/>
     <use transform="translate(535.742188 -16.390625)scale(0.7)" xlink:href="#DejaVuSans-8722"/>
     <use transform="translate(608.032227 -16.390625)scale(0.7)" xlink:href="#DejaVuSans-55"/>
    </g>
   </g>
   <g id="text_13">
    <!-- Character$_{t-8}$ -->
    <defs>
     <path d="M 31.78125 34.625 
Q 24.75 34.625 20.71875 30.859375 
Q 16.703125 27.09375 16.703125 20.515625 
Q 16.703125 13.921875 20.71875 10.15625 
Q 24.75 6.390625 31.78125 6.390625 
Q 38.8125 6.390625 42.859375 10.171875 
Q 46.921875 13.96875 46.921875 20.515625 
Q 46.921875 27.09375 42.890625 30.859375 
Q 38.875 34.625 31.78125 34.625 
z
M 21.921875 38.8125 
Q 15.578125 40.375 12.03125 44.71875 
Q 8.5 49.078125 8.5 55.328125 
Q 8.5 64.0625 14.71875 69.140625 
Q 20.953125 74.21875 31.78125 74.21875 
Q 42.671875 74.21875 48.875 69.140625 
Q 55.078125 64.0625 55.078125 55.328125 
Q 55.078125 49.078125 51.53125 44.71875 
Q 48 40.375 41.703125 38.8125 
Q 48.828125 37.15625 52.796875 32.3125 
Q 56.78125 27.484375 56.78125 20.515625 
Q 56.78125 9.90625 50.3125 4.234375 
Q 43.84375 -1.421875 31.78125 -1.421875 
Q 19.734375 -1.421875 13.25 4.234375 
Q 6.78125 9.90625 6.78125 20.515625 
Q 6.78125 27.484375 10.78125 32.3125 
Q 14.796875 37.15625 21.921875 38.8125 
z
M 18.3125 54.390625 
Q 18.3125 48.734375 21.84375 45.5625 
Q 25.390625 42.390625 31.78125 42.390625 
Q 38.140625 42.390625 41.71875 45.5625 
Q 45.3125 48.734375 45.3125 54.390625 
Q 45.3125 60.0625 41.71875 63.234375 
Q 38.140625 66.40625 31.78125 66.40625 
Q 25.390625 66.40625 21.84375 63.234375 
Q 18.3125 60.0625 18.3125 54.390625 
z
" id="DejaVuSans-56"/>
    </defs>
    <g transform="translate(142.16 214.979375)scale(0.1 -0.1)">
     <use transform="translate(0 0.015625)" xlink:href="#DejaVuSans-67"/>
     <use transform="translate(69.824219 0.015625)" xlink:href="#DejaVuSans-104"/>
     <use transform="translate(133.203125 0.015625)" xlink:href="#DejaVuSans-97"/>
     <use transform="translate(194.482422 0.015625)" xlink:href="#DejaVuSans-114"/>
     <use transform="translate(235.595703 0.015625)" xlink:href="#DejaVuSans-97"/>
     <use transform="translate(296.875 0.015625)" xlink:href="#DejaVuSans-99"/>
     <use transform="translate(351.855469 0.015625)" xlink:href="#DejaVuSans-116"/>
     <use transform="translate(391.064453 0.015625)" xlink:href="#DejaVuSans-101"/>
     <use transform="translate(452.587891 0.015625)" xlink:href="#DejaVuSans-114"/>
     <use transform="translate(494.658203 -16.390625)scale(0.7)" xlink:href="#DejaVuSans-Oblique-116"/>
     <use transform="translate(535.742188 -16.390625)scale(0.7)" xlink:href="#DejaVuSans-8722"/>
     <use transform="translate(608.032227 -16.390625)scale(0.7)" xlink:href="#DejaVuSans-56"/>
    </g>
   </g>
   <g id="text_14">
    <!-- Character$_{t-9}$ -->
    <defs>
     <path d="M 10.984375 1.515625 
L 10.984375 10.5 
Q 14.703125 8.734375 18.5 7.8125 
Q 22.3125 6.890625 25.984375 6.890625 
Q 35.75 6.890625 40.890625 13.453125 
Q 46.046875 20.015625 46.78125 33.40625 
Q 43.953125 29.203125 39.59375 26.953125 
Q 35.25 24.703125 29.984375 24.703125 
Q 19.046875 24.703125 12.671875 31.3125 
Q 6.296875 37.9375 6.296875 49.421875 
Q 6.296875 60.640625 12.9375 67.421875 
Q 19.578125 74.21875 30.609375 74.21875 
Q 43.265625 74.21875 49.921875 64.515625 
Q 56.59375 54.828125 56.59375 36.375 
Q 56.59375 19.140625 48.40625 8.859375 
Q 40.234375 -1.421875 26.421875 -1.421875 
Q 22.703125 -1.421875 18.890625 -0.6875 
Q 15.09375 0.046875 10.984375 1.515625 
z
M 30.609375 32.421875 
Q 37.25 32.421875 41.125 36.953125 
Q 45.015625 41.5 45.015625 49.421875 
Q 45.015625 57.28125 41.125 61.84375 
Q 37.25 66.40625 30.609375 66.40625 
Q 23.96875 66.40625 20.09375 61.84375 
Q 16.21875 57.28125 16.21875 49.421875 
Q 16.21875 41.5 20.09375 36.953125 
Q 23.96875 32.421875 30.609375 32.421875 
z
" id="DejaVuSans-57"/>
    </defs>
    <g transform="translate(142.16 198.239375)scale(0.1 -0.1)">
     <use transform="translate(0 0.015625)" xlink:href="#DejaVuSans-67"/>
     <use transform="translate(69.824219 0.015625)" xlink:href="#DejaVuSans-104"/>
     <use transform="translate(133.203125 0.015625)" xlink:href="#DejaVuSans-97"/>
     <use transform="translate(194.482422 0.015625)" xlink:href="#DejaVuSans-114"/>
     <use transform="translate(235.595703 0.015625)" xlink:href="#DejaVuSans-97"/>
     <use transform="translate(296.875 0.015625)" xlink:href="#DejaVuSans-99"/>
     <use transform="translate(351.855469 0.015625)" xlink:href="#DejaVuSans-116"/>
     <use transform="translate(391.064453 0.015625)" xlink:href="#DejaVuSans-101"/>
     <use transform="translate(452.587891 0.015625)" xlink:href="#DejaVuSans-114"/>
     <use transform="translate(494.658203 -16.390625)scale(0.7)" xlink:href="#DejaVuSans-Oblique-116"/>
     <use transform="translate(535.742188 -16.390625)scale(0.7)" xlink:href="#DejaVuSans-8722"/>
     <use transform="translate(608.032227 -16.390625)scale(0.7)" xlink:href="#DejaVuSans-57"/>
    </g>
   </g>
   <g id="text_15">
    <!-- Encoder -->
    <defs>
     <path d="M 9.8125 72.90625 
L 55.90625 72.90625 
L 55.90625 64.59375 
L 19.671875 64.59375 
L 19.671875 43.015625 
L 54.390625 43.015625 
L 54.390625 34.71875 
L 19.671875 34.71875 
L 19.671875 8.296875 
L 56.78125 8.296875 
L 56.78125 0 
L 9.8125 0 
z
" id="DejaVuSans-69"/>
    </defs>
    <g transform="translate(150.428438 433.15125)scale(0.12 -0.12)">
     <use xlink:href="#DejaVuSans-69"/>
     <use x="63.183594" xlink:href="#DejaVuSans-110"/>
     <use x="126.5625" xlink:href="#DejaVuSans-99"/>
     <use x="181.542969" xlink:href="#DejaVuSans-111"/>
     <use x="242.724609" xlink:href="#DejaVuSans-100"/>
     <use x="306.201172" xlink:href="#DejaVuSans-101"/>
     <use x="367.724609" xlink:href="#DejaVuSans-114"/>
    </g>
   </g>
   <g id="text_16">
    <!-- Decoder -->
    <g transform="translate(685.390313 433.15125)scale(0.12 -0.12)">
     <use xlink:href="#DejaVuSans-68"/>
     <use x="77.001953" xlink:href="#DejaVuSans-101"/>
     <use x="138.525391" xlink:href="#DejaVuSans-99"/>
     <use x="193.505859" xlink:href="#DejaVuSans-111"/>
     <use x="254.6875" xlink:href="#DejaVuSans-100"/>
     <use x="318.164062" xlink:href="#DejaVuSans-101"/>
     <use x="379.6875" xlink:href="#DejaVuSans-114"/>
    </g>
   </g>
   <g id="text_17">
    <!-- Character$_{t+1}$ -->
    <defs>
     <path d="M 46 62.703125 
L 46 35.5 
L 73.1875 35.5 
L 73.1875 27.203125 
L 46 27.203125 
L 46 0 
L 37.796875 0 
L 37.796875 27.203125 
L 10.59375 27.203125 
L 10.59375 35.5 
L 37.796875 35.5 
L 37.796875 62.703125 
z
" id="DejaVuSans-43"/>
    </defs>
    <g transform="translate(677.84 516.299375)scale(0.1 -0.1)">
     <use transform="translate(0 0.015625)" xlink:href="#DejaVuSans-67"/>
     <use transform="translate(69.824219 0.015625)" xlink:href="#DejaVuSans-104"/>
     <use transform="translate(133.203125 0.015625)" xlink:href="#DejaVuSans-97"/>
     <use transform="translate(194.482422 0.015625)" xlink:href="#DejaVuSans-114"/>
     <use transform="translate(235.595703 0.015625)" xlink:href="#DejaVuSans-97"/>
     <use transform="translate(296.875 0.015625)" xlink:href="#DejaVuSans-99"/>
     <use transform="translate(351.855469 0.015625)" xlink:href="#DejaVuSans-116"/>
     <use transform="translate(391.064453 0.015625)" xlink:href="#DejaVuSans-101"/>
     <use transform="translate(452.587891 0.015625)" xlink:href="#DejaVuSans-114"/>
     <use transform="translate(494.658203 -16.390625)scale(0.7)" xlink:href="#DejaVuSans-Oblique-116"/>
     <use transform="translate(535.742188 -16.390625)scale(0.7)" xlink:href="#DejaVuSans-43"/>
     <use transform="translate(608.032227 -16.390625)scale(0.7)" xlink:href="#DejaVuSans-49"/>
    </g>
   </g>
   <g id="patch_6">
    <path clip-path="url(#p179cb54c32)" d="M 275.4 669.78 
C 279.8395 669.78 284.097767 668.016168 287.236968 664.876968 
C 290.376168 661.737767 292.14 657.4795 292.14 653.04 
C 292.14 648.6005 290.376168 644.342233 287.236968 641.203032 
C 284.097767 638.063832 279.8395 636.3 275.4 636.3 
C 270.9605 636.3 266.702233 638.063832 263.563032 641.203032 
C 260.423832 644.342233 258.66 648.6005 258.66 653.04 
C 258.66 657.4795 260.423832 661.737767 263.563032 664.876968 
C 266.702233 668.016168 270.9605 669.78 275.4 669.78 
z
" style="fill:#ffffff;stroke:#000000;stroke-linejoin:miter;"/>
   </g>
   <g id="patch_7">
    <path clip-path="url(#p179cb54c32)" d="M 275.4 619.56 
C 279.8395 619.56 284.097767 617.796168 287.236968 614.656968 
C 290.376168 611.517767 292.14 607.2595 292.14 602.82 
C 292.14 598.3805 290.376168 594.122233 287.236968 590.983032 
C 284.097767 587.843832 279.8395 586.08 275.4 586.08 
C 270.9605 586.08 266.702233 587.843832 263.563032 590.983032 
C 260.423832 594.122233 258.66 598.3805 258.66 602.82 
C 258.66 607.2595 260.423832 611.517767 263.563032 614.656968 
C 266.702233 617.796168 270.9605 619.56 275.4 619.56 
z
" style="fill:#ffffff;stroke:#000000;stroke-linejoin:miter;"/>
   </g>
   <g id="patch_8">
    <path clip-path="url(#p179cb54c32)" d="M 275.4 569.34 
C 279.8395 569.34 284.097767 567.576168 287.236968 564.436968 
C 290.376168 561.297767 292.14 557.0395 292.14 552.6 
C 292.14 548.1605 290.376168 543.902233 287.236968 540.763032 
C 284.097767 537.623832 279.8395 535.86 275.4 535.86 
C 270.9605 535.86 266.702233 537.623832 263.563032 540.763032 
C 260.423832 543.902233 258.66 548.1605 258.66 552.6 
C 258.66 557.0395 260.423832 561.297767 263.563032 564.436968 
C 266.702233 567.576168 270.9605 569.34 275.4 569.34 
z
" style="fill:#ffffff;stroke:#000000;stroke-linejoin:miter;"/>
   </g>
   <g id="patch_9">
    <path clip-path="url(#p179cb54c32)" d="M 275.4 519.12 
C 279.8395 519.12 284.097767 517.356168 287.236968 514.216968 
C 290.376168 511.077767 292.14 506.8195 292.14 502.38 
C 292.14 497.9405 290.376168 493.682233 287.236968 490.543032 
C 284.097767 487.403832 279.8395 485.64 275.4 485.64 
C 270.9605 485.64 266.702233 487.403832 263.563032 490.543032 
C 260.423832 493.682233 258.66 497.9405 258.66 502.38 
C 258.66 506.8195 260.423832 511.077767 263.563032 514.216968 
C 266.702233 517.356168 270.9605 519.12 275.4 519.12 
z
" style="fill:#ffffff;stroke:#000000;stroke-linejoin:miter;"/>
   </g>
   <g id="patch_10">
    <path clip-path="url(#p179cb54c32)" d="M 275.4 468.9 
C 279.8395 468.9 284.097767 467.136168 287.236968 463.996968 
C 290.376168 460.857767 292.14 456.5995 292.14 452.16 
C 292.14 447.7205 290.376168 443.462233 287.236968 440.323032 
C 284.097767 437.183832 279.8395 435.42 275.4 435.42 
C 270.9605 435.42 266.702233 437.183832 263.563032 440.323032 
C 260.423832 443.462233 258.66 447.7205 258.66 452.16 
C 258.66 456.5995 260.423832 460.857767 263.563032 463.996968 
C 266.702233 467.136168 270.9605 468.9 275.4 468.9 
z
" style="fill:#ffffff;stroke:#000000;stroke-linejoin:miter;"/>
   </g>
   <g id="patch_11">
    <path clip-path="url(#p179cb54c32)" d="M 275.4 418.68 
C 279.8395 418.68 284.097767 416.916168 287.236968 413.776968 
C 290.376168 410.637767 292.14 406.3795 292.14 401.94 
C 292.14 397.5005 290.376168 393.242233 287.236968 390.103032 
C 284.097767 386.963832 279.8395 385.2 275.4 385.2 
C 270.9605 385.2 266.702233 386.963832 263.563032 390.103032 
C 260.423832 393.242233 258.66 397.5005 258.66 401.94 
C 258.66 406.3795 260.423832 410.637767 263.563032 413.776968 
C 266.702233 416.916168 270.9605 418.68 275.4 418.68 
z
" style="fill:#ffffff;stroke:#000000;stroke-linejoin:miter;"/>
   </g>
   <g id="patch_12">
    <path clip-path="url(#p179cb54c32)" d="M 275.4 368.46 
C 279.8395 368.46 284.097767 366.696168 287.236968 363.556968 
C 290.376168 360.417767 292.14 356.1595 292.14 351.72 
C 292.14 347.2805 290.376168 343.022233 287.236968 339.883032 
C 284.097767 336.743832 279.8395 334.98 275.4 334.98 
C 270.9605 334.98 266.702233 336.743832 263.563032 339.883032 
C 260.423832 343.022233 258.66 347.2805 258.66 351.72 
C 258.66 356.1595 260.423832 360.417767 263.563032 363.556968 
C 266.702233 366.696168 270.9605 368.46 275.4 368.46 
z
" style="fill:#ffffff;stroke:#000000;stroke-linejoin:miter;"/>
   </g>
   <g id="patch_13">
    <path clip-path="url(#p179cb54c32)" d="M 275.4 318.24 
C 279.8395 318.24 284.097767 316.476168 287.236968 313.336968 
C 290.376168 310.197767 292.14 305.9395 292.14 301.5 
C 292.14 297.0605 290.376168 292.802233 287.236968 289.663032 
C 284.097767 286.523832 279.8395 284.76 275.4 284.76 
C 270.9605 284.76 266.702233 286.523832 263.563032 289.663032 
C 260.423832 292.802233 258.66 297.0605 258.66 301.5 
C 258.66 305.9395 260.423832 310.197767 263.563032 313.336968 
C 266.702233 316.476168 270.9605 318.24 275.4 318.24 
z
" style="fill:#ffffff;stroke:#000000;stroke-linejoin:miter;"/>
   </g>
   <g id="patch_14">
    <path clip-path="url(#p179cb54c32)" d="M 275.4 268.02 
C 279.8395 268.02 284.097767 266.256168 287.236968 263.116968 
C 290.376168 259.977767 292.14 255.7195 292.14 251.28 
C 292.14 246.8405 290.376168 242.582233 287.236968 239.443032 
C 284.097767 236.303832 279.8395 234.54 275.4 234.54 
C 270.9605 234.54 266.702233 236.303832 263.563032 239.443032 
C 260.423832 242.582233 258.66 246.8405 258.66 251.28 
C 258.66 255.7195 260.423832 259.977767 263.563032 263.116968 
C 266.702233 266.256168 270.9605 268.02 275.4 268.02 
z
" style="fill:#ffffff;stroke:#000000;stroke-linejoin:miter;"/>
   </g>
   <g id="patch_15">
    <path clip-path="url(#p179cb54c32)" d="M 275.4 217.8 
C 279.8395 217.8 284.097767 216.036168 287.236968 212.896968 
C 290.376168 209.757767 292.14 205.4995 292.14 201.06 
C 292.14 196.6205 290.376168 192.362233 287.236968 189.223032 
C 284.097767 186.083832 279.8395 184.32 275.4 184.32 
C 270.9605 184.32 266.702233 186.083832 263.563032 189.223032 
C 260.423832 192.362233 258.66 196.6205 258.66 201.06 
C 258.66 205.4995 260.423832 209.757767 263.563032 212.896968 
C 266.702233 216.036168 270.9605 217.8 275.4 217.8 
z
" style="fill:#ffffff;stroke:#000000;stroke-linejoin:miter;"/>
   </g>
   <g id="patch_16">
    <path clip-path="url(#p179cb54c32)" d="M 442.8 619.56 
C 447.2395 619.56 451.497767 617.796168 454.636968 614.656968 
C 457.776168 611.517767 459.54 607.2595 459.54 602.82 
C 459.54 598.3805 457.776168 594.122233 454.636968 590.983032 
C 451.497767 587.843832 447.2395 586.08 442.8 586.08 
C 438.3605 586.08 434.102233 587.843832 430.963032 590.983032 
C 427.823832 594.122233 426.06 598.3805 426.06 602.82 
C 426.06 607.2595 427.823832 611.517767 430.963032 614.656968 
C 434.102233 617.796168 438.3605 619.56 442.8 619.56 
z
" style="fill:#ffffff;stroke:#000000;stroke-linejoin:miter;"/>
   </g>
   <g id="patch_17">
    <path clip-path="url(#p179cb54c32)" d="M 442.8 569.34 
C 447.2395 569.34 451.497767 567.576168 454.636968 564.436968 
C 457.776168 561.297767 459.54 557.0395 459.54 552.6 
C 459.54 548.1605 457.776168 543.902233 454.636968 540.763032 
C 451.497767 537.623832 447.2395 535.86 442.8 535.86 
C 438.3605 535.86 434.102233 537.623832 430.963032 540.763032 
C 427.823832 543.902233 426.06 548.1605 426.06 552.6 
C 426.06 557.0395 427.823832 561.297767 430.963032 564.436968 
C 434.102233 567.576168 438.3605 569.34 442.8 569.34 
z
" style="fill:#ffffff;stroke:#000000;stroke-linejoin:miter;"/>
   </g>
   <g id="patch_18">
    <path clip-path="url(#p179cb54c32)" d="M 442.8 519.12 
C 447.2395 519.12 451.497767 517.356168 454.636968 514.216968 
C 457.776168 511.077767 459.54 506.8195 459.54 502.38 
C 459.54 497.9405 457.776168 493.682233 454.636968 490.543032 
C 451.497767 487.403832 447.2395 485.64 442.8 485.64 
C 438.3605 485.64 434.102233 487.403832 430.963032 490.543032 
C 427.823832 493.682233 426.06 497.9405 426.06 502.38 
C 426.06 506.8195 427.823832 511.077767 430.963032 514.216968 
C 434.102233 517.356168 438.3605 519.12 442.8 519.12 
z
" style="fill:#ffffff;stroke:#000000;stroke-linejoin:miter;"/>
   </g>
   <g id="patch_19">
    <path clip-path="url(#p179cb54c32)" d="M 442.8 468.9 
C 447.2395 468.9 451.497767 467.136168 454.636968 463.996968 
C 457.776168 460.857767 459.54 456.5995 459.54 452.16 
C 459.54 447.7205 457.776168 443.462233 454.636968 440.323032 
C 451.497767 437.183832 447.2395 435.42 442.8 435.42 
C 438.3605 435.42 434.102233 437.183832 430.963032 440.323032 
C 427.823832 443.462233 426.06 447.7205 426.06 452.16 
C 426.06 456.5995 427.823832 460.857767 430.963032 463.996968 
C 434.102233 467.136168 438.3605 468.9 442.8 468.9 
z
" style="fill:#ffffff;stroke:#000000;stroke-linejoin:miter;"/>
   </g>
   <g id="patch_20">
    <path clip-path="url(#p179cb54c32)" d="M 442.8 418.68 
C 447.2395 418.68 451.497767 416.916168 454.636968 413.776968 
C 457.776168 410.637767 459.54 406.3795 459.54 401.94 
C 459.54 397.5005 457.776168 393.242233 454.636968 390.103032 
C 451.497767 386.963832 447.2395 385.2 442.8 385.2 
C 438.3605 385.2 434.102233 386.963832 430.963032 390.103032 
C 427.823832 393.242233 426.06 397.5005 426.06 401.94 
C 426.06 406.3795 427.823832 410.637767 430.963032 413.776968 
C 434.102233 416.916168 438.3605 418.68 442.8 418.68 
z
" style="fill:#ffffff;stroke:#000000;stroke-linejoin:miter;"/>
   </g>
   <g id="patch_21">
    <path clip-path="url(#p179cb54c32)" d="M 442.8 368.46 
C 447.2395 368.46 451.497767 366.696168 454.636968 363.556968 
C 457.776168 360.417767 459.54 356.1595 459.54 351.72 
C 459.54 347.2805 457.776168 343.022233 454.636968 339.883032 
C 451.497767 336.743832 447.2395 334.98 442.8 334.98 
C 438.3605 334.98 434.102233 336.743832 430.963032 339.883032 
C 427.823832 343.022233 426.06 347.2805 426.06 351.72 
C 426.06 356.1595 427.823832 360.417767 430.963032 363.556968 
C 434.102233 366.696168 438.3605 368.46 442.8 368.46 
z
" style="fill:#ffffff;stroke:#000000;stroke-linejoin:miter;"/>
   </g>
   <g id="patch_22">
    <path clip-path="url(#p179cb54c32)" d="M 442.8 318.24 
C 447.2395 318.24 451.497767 316.476168 454.636968 313.336968 
C 457.776168 310.197767 459.54 305.9395 459.54 301.5 
C 459.54 297.0605 457.776168 292.802233 454.636968 289.663032 
C 451.497767 286.523832 447.2395 284.76 442.8 284.76 
C 438.3605 284.76 434.102233 286.523832 430.963032 289.663032 
C 427.823832 292.802233 426.06 297.0605 426.06 301.5 
C 426.06 305.9395 427.823832 310.197767 430.963032 313.336968 
C 434.102233 316.476168 438.3605 318.24 442.8 318.24 
z
" style="fill:#ffffff;stroke:#000000;stroke-linejoin:miter;"/>
   </g>
   <g id="patch_23">
    <path clip-path="url(#p179cb54c32)" d="M 442.8 268.02 
C 447.2395 268.02 451.497767 266.256168 454.636968 263.116968 
C 457.776168 259.977767 459.54 255.7195 459.54 251.28 
C 459.54 246.8405 457.776168 242.582233 454.636968 239.443032 
C 451.497767 236.303832 447.2395 234.54 442.8 234.54 
C 438.3605 234.54 434.102233 236.303832 430.963032 239.443032 
C 427.823832 242.582233 426.06 246.8405 426.06 251.28 
C 426.06 255.7195 427.823832 259.977767 430.963032 263.116968 
C 434.102233 266.256168 438.3605 268.02 442.8 268.02 
z
" style="fill:#ffffff;stroke:#000000;stroke-linejoin:miter;"/>
   </g>
   <g id="patch_24">
    <path clip-path="url(#p179cb54c32)" d="M 610.2 446.58 
C 614.6395 446.58 618.897767 444.816168 622.036968 441.676968 
C 625.176168 438.537767 626.94 434.2795 626.94 429.84 
C 626.94 425.4005 625.176168 421.142233 622.036968 418.003032 
C 618.897767 414.863832 614.6395 413.1 610.2 413.1 
C 605.7605 413.1 601.502233 414.863832 598.363032 418.003032 
C 595.223832 421.142233 593.46 425.4005 593.46 429.84 
C 593.46 434.2795 595.223832 438.537767 598.363032 441.676968 
C 601.502233 444.816168 605.7605 446.58 610.2 446.58 
z
" style="fill:#ffffff;stroke:#000000;stroke-linejoin:miter;"/>
   </g>
  </g>
 </g>
 <defs>
  <clipPath id="p179cb54c32">
   <rect height="558" width="669.6" x="108" y="150.84"/>
  </clipPath>
 </defs>
</svg>
